<svg xmlns="http://www.w3.org/2000/svg" xmlns:xlink="http://www.w3.org/1999/xlink" viewBox="-13.456 -11.756 33.912 18.012" preserveAspectRatio="xMinYMin meet"><g transform="matrix(1,0,0,-1,0,-5.5)"><path fill-rule="evenodd" fill="#66cc99" stroke="#555555" stroke-width="0.1" opacity="0.6" d="M -3.2,-1.0 L 2.0,-1.0 L 2.7,-0.4 L 5.5,-0.4 L 5.5,-0.3 L 14.7,0.0 L 15.8,0.5 L 17.8,3.0 L 19.0,3.0 L 19.2,0.0 L 16.7,-3.5 L 13.7,-4.8 L 11.0,-6.8 L 8.6,-7.0 L 5.7,-6.7 L 4.1,-6.7 L 4.1,-4.9 L 2.0,-4.9 L 2.0,-6.5 L 1.3,-6.5 L 1.3,-6.2 L 0.9,-5.8 L 0.4,-5.8 L 0.0,-6.2 L 0.0,-6.6 L 0.4,-7.0 L 0.9,-7.0 L 1.3,-6.6 L 2.0,-6.6 L 2.0,-8.5 L 0.0,-9.0 L -3.0,-9.6 L -3.0,-7.7 L -5.5,-7.7 L -5.5,-10.2 L -8.5,-10.5 L -8.5,-9.5 L -10.8,-9.5 L -11.3,-7.5 L -11.9,-4.0 L -12.2,-1.1 L -11.8,-0.8 L -11.8,-0.2 L -12.1,0.1 L -12.0,4.0 L -11.3,4.0 L -10.8,5.0 L -10.0,5.0 L -10.0,1.9 L -9.8,1.3 L -9.8,-0.1 L -3.6,-0.4 L -3.2,-1.0 z" /></g></svg>