G04 #@! TF.GenerationSoftware,KiCad,Pcbnew,(5.1.2)-2*
G04 #@! TF.CreationDate,2019-06-10T17:10:01+02:00*
G04 #@! TF.ProjectId,GB2,4742322e-6b69-4636-9164-5f7063625858,rev?*
G04 #@! TF.SameCoordinates,Original*
G04 #@! TF.FileFunction,Legend,Bot*
G04 #@! TF.FilePolarity,Positive*
%FSLAX46Y46*%
G04 Gerber Fmt 4.6, Leading zero omitted, Abs format (unit mm)*
G04 Created by KiCad (PCBNEW (5.1.2)-2) date 2019-06-10 17:10:01*
%MOMM*%
%LPD*%
G04 APERTURE LIST*
%ADD10C,0.120000*%
%ADD11C,0.150000*%
G04 APERTURE END LIST*
D10*
X69338000Y-53718000D02*
X71878000Y-51178000D01*
X57908000Y-53718000D02*
X69338000Y-53718000D01*
X56258000Y-55368000D02*
X57908000Y-53718000D01*
X56258000Y-120018000D02*
X56258000Y-55368000D01*
X65788000Y-120018000D02*
X56258000Y-120018000D01*
X65788000Y-126368000D02*
X65788000Y-120018000D01*
X77468000Y-126368000D02*
X65788000Y-126368000D01*
X77468000Y-120018000D02*
X77468000Y-126368000D01*
X97538000Y-120018000D02*
X77468000Y-120018000D01*
X97538000Y-121918000D02*
X97538000Y-120018000D01*
X106678000Y-121918000D02*
X97538000Y-121918000D01*
X106678000Y-120018000D02*
X106678000Y-121918000D01*
X109858000Y-120018000D02*
X106678000Y-120018000D01*
X109858000Y-53718000D02*
X109858000Y-120018000D01*
X107188000Y-53718000D02*
X109858000Y-53718000D01*
X104648000Y-51178000D02*
X107188000Y-53718000D01*
X71878000Y-51178000D02*
X104648000Y-51178000D01*
X193196000Y-46846000D02*
X196886000Y-46846000D01*
X193196000Y-46146000D02*
X193196000Y-46846000D01*
X181776000Y-46146000D02*
X193196000Y-46146000D01*
X181776000Y-46846000D02*
X181776000Y-46146000D01*
X162546000Y-46846000D02*
X181776000Y-46846000D01*
X149946000Y-46846000D02*
X154426000Y-46846000D01*
X154426000Y-45046000D02*
X162546000Y-45046000D01*
X162546000Y-45046000D02*
X162546000Y-46846000D01*
X154426000Y-46846000D02*
X154426000Y-45046000D01*
X149946000Y-45046000D02*
X149946000Y-46846000D01*
X141826000Y-45046000D02*
X149946000Y-45046000D01*
X141826000Y-46846000D02*
X141826000Y-45046000D01*
X134826000Y-70466000D02*
X134826000Y-73906000D01*
X133626000Y-53346000D02*
X134826000Y-53346000D01*
X133626000Y-70466000D02*
X133626000Y-53346000D01*
X134826000Y-70466000D02*
X133626000Y-70466000D01*
X192846000Y-76006000D02*
X141926000Y-76006000D01*
X192846000Y-76006000D02*
X192846000Y-73406000D01*
X192846000Y-73406000D02*
X190246000Y-73406000D01*
X190246000Y-73406000D02*
X190246000Y-70806000D01*
X192846000Y-72136000D02*
X192846000Y-70806000D01*
X192846000Y-70806000D02*
X191516000Y-70806000D01*
X190246000Y-70806000D02*
X141926000Y-70806000D01*
X141926000Y-76006000D02*
X141926000Y-70806000D01*
X134826000Y-49906000D02*
G75*
G02X137886000Y-46846000I3060000J0D01*
G01*
X134826000Y-53346000D02*
X134826000Y-49906000D01*
X137886000Y-46846000D02*
X141826000Y-46846000D01*
X199946000Y-73906000D02*
X199946000Y-49906000D01*
X137886000Y-76966000D02*
X196886000Y-76966000D01*
X137886000Y-76966000D02*
G75*
G02X134826000Y-73906000I0J3060000D01*
G01*
X199946000Y-73906000D02*
G75*
G02X196886000Y-76966000I-3060000J0D01*
G01*
X196886000Y-46846000D02*
G75*
G02X199946000Y-49906000I0J-3060000D01*
G01*
D11*
X110831333Y-91392285D02*
X110831333Y-90916095D01*
X110545619Y-91487523D02*
X111545619Y-91154190D01*
X110545619Y-90820857D01*
X110545619Y-89963714D02*
X110545619Y-90535142D01*
X110545619Y-90249428D02*
X111545619Y-90249428D01*
X111402761Y-90344666D01*
X111307523Y-90439904D01*
X111259904Y-90535142D01*
X168195523Y-77858380D02*
X168195523Y-78572666D01*
X168243142Y-78715523D01*
X168338380Y-78810761D01*
X168481238Y-78858380D01*
X168576476Y-78858380D01*
X167195523Y-78858380D02*
X167766952Y-78858380D01*
X167481238Y-78858380D02*
X167481238Y-77858380D01*
X167576476Y-78001238D01*
X167671714Y-78096476D01*
X167766952Y-78144095D01*
X166243142Y-78858380D02*
X166814571Y-78858380D01*
X166528857Y-78858380D02*
X166528857Y-77858380D01*
X166624095Y-78001238D01*
X166719333Y-78096476D01*
X166814571Y-78144095D01*
M02*
