G04 #@! TF.GenerationSoftware,KiCad,Pcbnew,(5.1.2)-2*
G04 #@! TF.CreationDate,2019-06-10T17:10:00+02:00*
G04 #@! TF.ProjectId,GB2,4742322e-6b69-4636-9164-5f7063625858,rev?*
G04 #@! TF.SameCoordinates,Original*
G04 #@! TF.FileFunction,Copper,L1,Top*
G04 #@! TF.FilePolarity,Positive*
%FSLAX46Y46*%
G04 Gerber Fmt 4.6, Leading zero omitted, Abs format (unit mm)*
G04 Created by KiCad (PCBNEW (5.1.2)-2) date 2019-06-10 17:10:00*
%MOMM*%
%LPD*%
G04 APERTURE LIST*
%ADD10C,0.100000*%
%ADD11O,1.600000X1.600000*%
%ADD12R,1.600000X1.600000*%
%ADD13C,0.500000*%
%ADD14R,1.000000X1.500000*%
%ADD15C,0.630000*%
%ADD16R,4.900000X2.950000*%
%ADD17R,0.500000X2.200000*%
%ADD18C,1.425000*%
%ADD19C,3.500120*%
%ADD20R,3.500120X3.500120*%
%ADD21C,1.600000*%
%ADD22C,1.524000*%
%ADD23O,1.700000X1.700000*%
%ADD24R,1.700000X1.700000*%
%ADD25C,2.999740*%
%ADD26R,2.999740X2.999740*%
%ADD27R,9.400000X10.800000*%
%ADD28R,4.600000X1.100000*%
%ADD29C,5.999480*%
%ADD30R,5.999480X5.999480*%
%ADD31C,0.800000*%
%ADD32C,0.250000*%
%ADD33C,0.500000*%
%ADD34C,1.000000*%
%ADD35C,2.000000*%
%ADD36C,3.000000*%
%ADD37C,1.500000*%
%ADD38C,0.254000*%
G04 APERTURE END LIST*
D10*
G36*
X76540000Y-104848000D02*
G01*
X77040000Y-104848000D01*
X77040000Y-105248000D01*
X76540000Y-105248000D01*
X76540000Y-104848000D01*
G37*
G36*
X76540000Y-104048000D02*
G01*
X77040000Y-104048000D01*
X77040000Y-104448000D01*
X76540000Y-104448000D01*
X76540000Y-104048000D01*
G37*
G36*
X90764000Y-104848000D02*
G01*
X91264000Y-104848000D01*
X91264000Y-105248000D01*
X90764000Y-105248000D01*
X90764000Y-104848000D01*
G37*
G36*
X90764000Y-104048000D02*
G01*
X91264000Y-104048000D01*
X91264000Y-104448000D01*
X90764000Y-104448000D01*
X90764000Y-104048000D01*
G37*
G36*
X78340000Y-107496000D02*
G01*
X77840000Y-107496000D01*
X77840000Y-107096000D01*
X78340000Y-107096000D01*
X78340000Y-107496000D01*
G37*
G36*
X78340000Y-108296000D02*
G01*
X77840000Y-108296000D01*
X77840000Y-107896000D01*
X78340000Y-107896000D01*
X78340000Y-108296000D01*
G37*
G36*
X92564000Y-107496000D02*
G01*
X92064000Y-107496000D01*
X92064000Y-107096000D01*
X92564000Y-107096000D01*
X92564000Y-107496000D01*
G37*
G36*
X92564000Y-108296000D02*
G01*
X92064000Y-108296000D01*
X92064000Y-107896000D01*
X92564000Y-107896000D01*
X92564000Y-108296000D01*
G37*
D11*
X58928000Y-58928000D03*
X58928000Y-56388000D03*
X58928000Y-96008000D03*
X107188000Y-56388000D03*
X58928000Y-93468000D03*
X107188000Y-58928000D03*
X58928000Y-90928000D03*
X107188000Y-61468000D03*
X58928000Y-88388000D03*
X107188000Y-64008000D03*
X58928000Y-85848000D03*
X107188000Y-66548000D03*
X58928000Y-83308000D03*
X107188000Y-69088000D03*
X58928000Y-80768000D03*
X107188000Y-74168000D03*
X58928000Y-78228000D03*
X107188000Y-76708000D03*
X58928000Y-74168000D03*
X107188000Y-79248000D03*
X58928000Y-71628000D03*
X107188000Y-81788000D03*
X58928000Y-69088000D03*
X107188000Y-84328000D03*
X58928000Y-66548000D03*
X107188000Y-86868000D03*
X58928000Y-64008000D03*
X107188000Y-89408000D03*
X58928000Y-61468000D03*
D12*
X107188000Y-91948000D03*
D11*
X58928000Y-98548000D03*
X58928000Y-101088000D03*
D13*
X76140000Y-104648000D03*
D10*
G36*
X76690000Y-105398000D02*
G01*
X76140000Y-105398000D01*
X76140000Y-105397398D01*
X76115466Y-105397398D01*
X76066635Y-105392588D01*
X76018510Y-105383016D01*
X75971555Y-105368772D01*
X75926222Y-105349995D01*
X75882949Y-105326864D01*
X75842150Y-105299604D01*
X75804221Y-105268476D01*
X75769524Y-105233779D01*
X75738396Y-105195850D01*
X75711136Y-105155051D01*
X75688005Y-105111778D01*
X75669228Y-105066445D01*
X75654984Y-105019490D01*
X75645412Y-104971365D01*
X75640602Y-104922534D01*
X75640602Y-104898000D01*
X75640000Y-104898000D01*
X75640000Y-104398000D01*
X75640602Y-104398000D01*
X75640602Y-104373466D01*
X75645412Y-104324635D01*
X75654984Y-104276510D01*
X75669228Y-104229555D01*
X75688005Y-104184222D01*
X75711136Y-104140949D01*
X75738396Y-104100150D01*
X75769524Y-104062221D01*
X75804221Y-104027524D01*
X75842150Y-103996396D01*
X75882949Y-103969136D01*
X75926222Y-103946005D01*
X75971555Y-103927228D01*
X76018510Y-103912984D01*
X76066635Y-103903412D01*
X76115466Y-103898602D01*
X76140000Y-103898602D01*
X76140000Y-103898000D01*
X76690000Y-103898000D01*
X76690000Y-105398000D01*
X76690000Y-105398000D01*
G37*
D14*
X77440000Y-104648000D03*
D13*
X78740000Y-104648000D03*
D10*
G36*
X78740000Y-103898602D02*
G01*
X78764534Y-103898602D01*
X78813365Y-103903412D01*
X78861490Y-103912984D01*
X78908445Y-103927228D01*
X78953778Y-103946005D01*
X78997051Y-103969136D01*
X79037850Y-103996396D01*
X79075779Y-104027524D01*
X79110476Y-104062221D01*
X79141604Y-104100150D01*
X79168864Y-104140949D01*
X79191995Y-104184222D01*
X79210772Y-104229555D01*
X79225016Y-104276510D01*
X79234588Y-104324635D01*
X79239398Y-104373466D01*
X79239398Y-104398000D01*
X79240000Y-104398000D01*
X79240000Y-104898000D01*
X79239398Y-104898000D01*
X79239398Y-104922534D01*
X79234588Y-104971365D01*
X79225016Y-105019490D01*
X79210772Y-105066445D01*
X79191995Y-105111778D01*
X79168864Y-105155051D01*
X79141604Y-105195850D01*
X79110476Y-105233779D01*
X79075779Y-105268476D01*
X79037850Y-105299604D01*
X78997051Y-105326864D01*
X78953778Y-105349995D01*
X78908445Y-105368772D01*
X78861490Y-105383016D01*
X78813365Y-105392588D01*
X78764534Y-105397398D01*
X78740000Y-105397398D01*
X78740000Y-105398000D01*
X78190000Y-105398000D01*
X78190000Y-103898000D01*
X78740000Y-103898000D01*
X78740000Y-103898602D01*
X78740000Y-103898602D01*
G37*
D15*
X69820000Y-112918000D03*
X69820000Y-111618000D03*
X72420000Y-112918000D03*
X71120000Y-112918000D03*
X71120000Y-111618000D03*
X72420000Y-111618000D03*
D16*
X71120000Y-112268000D03*
D17*
X73025000Y-115143000D03*
X71755000Y-115143000D03*
X70485000Y-115143000D03*
X69215000Y-115143000D03*
X69215000Y-109393000D03*
X70485000Y-109393000D03*
X71755000Y-109393000D03*
X73025000Y-109393000D03*
D15*
X83663000Y-112745000D03*
X83663000Y-111445000D03*
X86263000Y-112745000D03*
X84963000Y-112745000D03*
X84963000Y-111445000D03*
X86263000Y-111445000D03*
D16*
X84963000Y-112095000D03*
D17*
X86868000Y-114970000D03*
X85598000Y-114970000D03*
X84328000Y-114970000D03*
X83058000Y-114970000D03*
X83058000Y-109220000D03*
X84328000Y-109220000D03*
X85598000Y-109220000D03*
X86868000Y-109220000D03*
D10*
G36*
X75598004Y-127142204D02*
G01*
X75622273Y-127145804D01*
X75646071Y-127151765D01*
X75669171Y-127160030D01*
X75691349Y-127170520D01*
X75712393Y-127183133D01*
X75732098Y-127197747D01*
X75750277Y-127214223D01*
X75766753Y-127232402D01*
X75781367Y-127252107D01*
X75793980Y-127273151D01*
X75804470Y-127295329D01*
X75812735Y-127318429D01*
X75818696Y-127342227D01*
X75822296Y-127366496D01*
X75823500Y-127391000D01*
X75823500Y-128641000D01*
X75822296Y-128665504D01*
X75818696Y-128689773D01*
X75812735Y-128713571D01*
X75804470Y-128736671D01*
X75793980Y-128758849D01*
X75781367Y-128779893D01*
X75766753Y-128799598D01*
X75750277Y-128817777D01*
X75732098Y-128834253D01*
X75712393Y-128848867D01*
X75691349Y-128861480D01*
X75669171Y-128871970D01*
X75646071Y-128880235D01*
X75622273Y-128886196D01*
X75598004Y-128889796D01*
X75573500Y-128891000D01*
X74648500Y-128891000D01*
X74623996Y-128889796D01*
X74599727Y-128886196D01*
X74575929Y-128880235D01*
X74552829Y-128871970D01*
X74530651Y-128861480D01*
X74509607Y-128848867D01*
X74489902Y-128834253D01*
X74471723Y-128817777D01*
X74455247Y-128799598D01*
X74440633Y-128779893D01*
X74428020Y-128758849D01*
X74417530Y-128736671D01*
X74409265Y-128713571D01*
X74403304Y-128689773D01*
X74399704Y-128665504D01*
X74398500Y-128641000D01*
X74398500Y-127391000D01*
X74399704Y-127366496D01*
X74403304Y-127342227D01*
X74409265Y-127318429D01*
X74417530Y-127295329D01*
X74428020Y-127273151D01*
X74440633Y-127252107D01*
X74455247Y-127232402D01*
X74471723Y-127214223D01*
X74489902Y-127197747D01*
X74509607Y-127183133D01*
X74530651Y-127170520D01*
X74552829Y-127160030D01*
X74575929Y-127151765D01*
X74599727Y-127145804D01*
X74623996Y-127142204D01*
X74648500Y-127141000D01*
X75573500Y-127141000D01*
X75598004Y-127142204D01*
X75598004Y-127142204D01*
G37*
D18*
X75111000Y-128016000D03*
D10*
G36*
X72623004Y-127142204D02*
G01*
X72647273Y-127145804D01*
X72671071Y-127151765D01*
X72694171Y-127160030D01*
X72716349Y-127170520D01*
X72737393Y-127183133D01*
X72757098Y-127197747D01*
X72775277Y-127214223D01*
X72791753Y-127232402D01*
X72806367Y-127252107D01*
X72818980Y-127273151D01*
X72829470Y-127295329D01*
X72837735Y-127318429D01*
X72843696Y-127342227D01*
X72847296Y-127366496D01*
X72848500Y-127391000D01*
X72848500Y-128641000D01*
X72847296Y-128665504D01*
X72843696Y-128689773D01*
X72837735Y-128713571D01*
X72829470Y-128736671D01*
X72818980Y-128758849D01*
X72806367Y-128779893D01*
X72791753Y-128799598D01*
X72775277Y-128817777D01*
X72757098Y-128834253D01*
X72737393Y-128848867D01*
X72716349Y-128861480D01*
X72694171Y-128871970D01*
X72671071Y-128880235D01*
X72647273Y-128886196D01*
X72623004Y-128889796D01*
X72598500Y-128891000D01*
X71673500Y-128891000D01*
X71648996Y-128889796D01*
X71624727Y-128886196D01*
X71600929Y-128880235D01*
X71577829Y-128871970D01*
X71555651Y-128861480D01*
X71534607Y-128848867D01*
X71514902Y-128834253D01*
X71496723Y-128817777D01*
X71480247Y-128799598D01*
X71465633Y-128779893D01*
X71453020Y-128758849D01*
X71442530Y-128736671D01*
X71434265Y-128713571D01*
X71428304Y-128689773D01*
X71424704Y-128665504D01*
X71423500Y-128641000D01*
X71423500Y-127391000D01*
X71424704Y-127366496D01*
X71428304Y-127342227D01*
X71434265Y-127318429D01*
X71442530Y-127295329D01*
X71453020Y-127273151D01*
X71465633Y-127252107D01*
X71480247Y-127232402D01*
X71496723Y-127214223D01*
X71514902Y-127197747D01*
X71534607Y-127183133D01*
X71555651Y-127170520D01*
X71577829Y-127160030D01*
X71600929Y-127151765D01*
X71624727Y-127145804D01*
X71648996Y-127142204D01*
X71673500Y-127141000D01*
X72598500Y-127141000D01*
X72623004Y-127142204D01*
X72623004Y-127142204D01*
G37*
D18*
X72136000Y-128016000D03*
D10*
G36*
X82275004Y-127142204D02*
G01*
X82299273Y-127145804D01*
X82323071Y-127151765D01*
X82346171Y-127160030D01*
X82368349Y-127170520D01*
X82389393Y-127183133D01*
X82409098Y-127197747D01*
X82427277Y-127214223D01*
X82443753Y-127232402D01*
X82458367Y-127252107D01*
X82470980Y-127273151D01*
X82481470Y-127295329D01*
X82489735Y-127318429D01*
X82495696Y-127342227D01*
X82499296Y-127366496D01*
X82500500Y-127391000D01*
X82500500Y-128641000D01*
X82499296Y-128665504D01*
X82495696Y-128689773D01*
X82489735Y-128713571D01*
X82481470Y-128736671D01*
X82470980Y-128758849D01*
X82458367Y-128779893D01*
X82443753Y-128799598D01*
X82427277Y-128817777D01*
X82409098Y-128834253D01*
X82389393Y-128848867D01*
X82368349Y-128861480D01*
X82346171Y-128871970D01*
X82323071Y-128880235D01*
X82299273Y-128886196D01*
X82275004Y-128889796D01*
X82250500Y-128891000D01*
X81325500Y-128891000D01*
X81300996Y-128889796D01*
X81276727Y-128886196D01*
X81252929Y-128880235D01*
X81229829Y-128871970D01*
X81207651Y-128861480D01*
X81186607Y-128848867D01*
X81166902Y-128834253D01*
X81148723Y-128817777D01*
X81132247Y-128799598D01*
X81117633Y-128779893D01*
X81105020Y-128758849D01*
X81094530Y-128736671D01*
X81086265Y-128713571D01*
X81080304Y-128689773D01*
X81076704Y-128665504D01*
X81075500Y-128641000D01*
X81075500Y-127391000D01*
X81076704Y-127366496D01*
X81080304Y-127342227D01*
X81086265Y-127318429D01*
X81094530Y-127295329D01*
X81105020Y-127273151D01*
X81117633Y-127252107D01*
X81132247Y-127232402D01*
X81148723Y-127214223D01*
X81166902Y-127197747D01*
X81186607Y-127183133D01*
X81207651Y-127170520D01*
X81229829Y-127160030D01*
X81252929Y-127151765D01*
X81276727Y-127145804D01*
X81300996Y-127142204D01*
X81325500Y-127141000D01*
X82250500Y-127141000D01*
X82275004Y-127142204D01*
X82275004Y-127142204D01*
G37*
D18*
X81788000Y-128016000D03*
D10*
G36*
X85250004Y-127142204D02*
G01*
X85274273Y-127145804D01*
X85298071Y-127151765D01*
X85321171Y-127160030D01*
X85343349Y-127170520D01*
X85364393Y-127183133D01*
X85384098Y-127197747D01*
X85402277Y-127214223D01*
X85418753Y-127232402D01*
X85433367Y-127252107D01*
X85445980Y-127273151D01*
X85456470Y-127295329D01*
X85464735Y-127318429D01*
X85470696Y-127342227D01*
X85474296Y-127366496D01*
X85475500Y-127391000D01*
X85475500Y-128641000D01*
X85474296Y-128665504D01*
X85470696Y-128689773D01*
X85464735Y-128713571D01*
X85456470Y-128736671D01*
X85445980Y-128758849D01*
X85433367Y-128779893D01*
X85418753Y-128799598D01*
X85402277Y-128817777D01*
X85384098Y-128834253D01*
X85364393Y-128848867D01*
X85343349Y-128861480D01*
X85321171Y-128871970D01*
X85298071Y-128880235D01*
X85274273Y-128886196D01*
X85250004Y-128889796D01*
X85225500Y-128891000D01*
X84300500Y-128891000D01*
X84275996Y-128889796D01*
X84251727Y-128886196D01*
X84227929Y-128880235D01*
X84204829Y-128871970D01*
X84182651Y-128861480D01*
X84161607Y-128848867D01*
X84141902Y-128834253D01*
X84123723Y-128817777D01*
X84107247Y-128799598D01*
X84092633Y-128779893D01*
X84080020Y-128758849D01*
X84069530Y-128736671D01*
X84061265Y-128713571D01*
X84055304Y-128689773D01*
X84051704Y-128665504D01*
X84050500Y-128641000D01*
X84050500Y-127391000D01*
X84051704Y-127366496D01*
X84055304Y-127342227D01*
X84061265Y-127318429D01*
X84069530Y-127295329D01*
X84080020Y-127273151D01*
X84092633Y-127252107D01*
X84107247Y-127232402D01*
X84123723Y-127214223D01*
X84141902Y-127197747D01*
X84161607Y-127183133D01*
X84182651Y-127170520D01*
X84204829Y-127160030D01*
X84227929Y-127151765D01*
X84251727Y-127145804D01*
X84275996Y-127142204D01*
X84300500Y-127141000D01*
X85225500Y-127141000D01*
X85250004Y-127142204D01*
X85250004Y-127142204D01*
G37*
D18*
X84763000Y-128016000D03*
D19*
X74676000Y-123952000D03*
D20*
X69596000Y-123952000D03*
D19*
X86868000Y-123952000D03*
D20*
X81788000Y-123952000D03*
D13*
X90364000Y-104648000D03*
D10*
G36*
X90914000Y-105398000D02*
G01*
X90364000Y-105398000D01*
X90364000Y-105397398D01*
X90339466Y-105397398D01*
X90290635Y-105392588D01*
X90242510Y-105383016D01*
X90195555Y-105368772D01*
X90150222Y-105349995D01*
X90106949Y-105326864D01*
X90066150Y-105299604D01*
X90028221Y-105268476D01*
X89993524Y-105233779D01*
X89962396Y-105195850D01*
X89935136Y-105155051D01*
X89912005Y-105111778D01*
X89893228Y-105066445D01*
X89878984Y-105019490D01*
X89869412Y-104971365D01*
X89864602Y-104922534D01*
X89864602Y-104898000D01*
X89864000Y-104898000D01*
X89864000Y-104398000D01*
X89864602Y-104398000D01*
X89864602Y-104373466D01*
X89869412Y-104324635D01*
X89878984Y-104276510D01*
X89893228Y-104229555D01*
X89912005Y-104184222D01*
X89935136Y-104140949D01*
X89962396Y-104100150D01*
X89993524Y-104062221D01*
X90028221Y-104027524D01*
X90066150Y-103996396D01*
X90106949Y-103969136D01*
X90150222Y-103946005D01*
X90195555Y-103927228D01*
X90242510Y-103912984D01*
X90290635Y-103903412D01*
X90339466Y-103898602D01*
X90364000Y-103898602D01*
X90364000Y-103898000D01*
X90914000Y-103898000D01*
X90914000Y-105398000D01*
X90914000Y-105398000D01*
G37*
D14*
X91664000Y-104648000D03*
D13*
X92964000Y-104648000D03*
D10*
G36*
X92964000Y-103898602D02*
G01*
X92988534Y-103898602D01*
X93037365Y-103903412D01*
X93085490Y-103912984D01*
X93132445Y-103927228D01*
X93177778Y-103946005D01*
X93221051Y-103969136D01*
X93261850Y-103996396D01*
X93299779Y-104027524D01*
X93334476Y-104062221D01*
X93365604Y-104100150D01*
X93392864Y-104140949D01*
X93415995Y-104184222D01*
X93434772Y-104229555D01*
X93449016Y-104276510D01*
X93458588Y-104324635D01*
X93463398Y-104373466D01*
X93463398Y-104398000D01*
X93464000Y-104398000D01*
X93464000Y-104898000D01*
X93463398Y-104898000D01*
X93463398Y-104922534D01*
X93458588Y-104971365D01*
X93449016Y-105019490D01*
X93434772Y-105066445D01*
X93415995Y-105111778D01*
X93392864Y-105155051D01*
X93365604Y-105195850D01*
X93334476Y-105233779D01*
X93299779Y-105268476D01*
X93261850Y-105299604D01*
X93221051Y-105326864D01*
X93177778Y-105349995D01*
X93132445Y-105368772D01*
X93085490Y-105383016D01*
X93037365Y-105392588D01*
X92988534Y-105397398D01*
X92964000Y-105397398D01*
X92964000Y-105398000D01*
X92414000Y-105398000D01*
X92414000Y-103898000D01*
X92964000Y-103898000D01*
X92964000Y-103898602D01*
X92964000Y-103898602D01*
G37*
D13*
X78740000Y-107696000D03*
D10*
G36*
X78190000Y-106946000D02*
G01*
X78740000Y-106946000D01*
X78740000Y-106946602D01*
X78764534Y-106946602D01*
X78813365Y-106951412D01*
X78861490Y-106960984D01*
X78908445Y-106975228D01*
X78953778Y-106994005D01*
X78997051Y-107017136D01*
X79037850Y-107044396D01*
X79075779Y-107075524D01*
X79110476Y-107110221D01*
X79141604Y-107148150D01*
X79168864Y-107188949D01*
X79191995Y-107232222D01*
X79210772Y-107277555D01*
X79225016Y-107324510D01*
X79234588Y-107372635D01*
X79239398Y-107421466D01*
X79239398Y-107446000D01*
X79240000Y-107446000D01*
X79240000Y-107946000D01*
X79239398Y-107946000D01*
X79239398Y-107970534D01*
X79234588Y-108019365D01*
X79225016Y-108067490D01*
X79210772Y-108114445D01*
X79191995Y-108159778D01*
X79168864Y-108203051D01*
X79141604Y-108243850D01*
X79110476Y-108281779D01*
X79075779Y-108316476D01*
X79037850Y-108347604D01*
X78997051Y-108374864D01*
X78953778Y-108397995D01*
X78908445Y-108416772D01*
X78861490Y-108431016D01*
X78813365Y-108440588D01*
X78764534Y-108445398D01*
X78740000Y-108445398D01*
X78740000Y-108446000D01*
X78190000Y-108446000D01*
X78190000Y-106946000D01*
X78190000Y-106946000D01*
G37*
D14*
X77440000Y-107696000D03*
D13*
X76140000Y-107696000D03*
D10*
G36*
X76140000Y-108445398D02*
G01*
X76115466Y-108445398D01*
X76066635Y-108440588D01*
X76018510Y-108431016D01*
X75971555Y-108416772D01*
X75926222Y-108397995D01*
X75882949Y-108374864D01*
X75842150Y-108347604D01*
X75804221Y-108316476D01*
X75769524Y-108281779D01*
X75738396Y-108243850D01*
X75711136Y-108203051D01*
X75688005Y-108159778D01*
X75669228Y-108114445D01*
X75654984Y-108067490D01*
X75645412Y-108019365D01*
X75640602Y-107970534D01*
X75640602Y-107946000D01*
X75640000Y-107946000D01*
X75640000Y-107446000D01*
X75640602Y-107446000D01*
X75640602Y-107421466D01*
X75645412Y-107372635D01*
X75654984Y-107324510D01*
X75669228Y-107277555D01*
X75688005Y-107232222D01*
X75711136Y-107188949D01*
X75738396Y-107148150D01*
X75769524Y-107110221D01*
X75804221Y-107075524D01*
X75842150Y-107044396D01*
X75882949Y-107017136D01*
X75926222Y-106994005D01*
X75971555Y-106975228D01*
X76018510Y-106960984D01*
X76066635Y-106951412D01*
X76115466Y-106946602D01*
X76140000Y-106946602D01*
X76140000Y-106946000D01*
X76690000Y-106946000D01*
X76690000Y-108446000D01*
X76140000Y-108446000D01*
X76140000Y-108445398D01*
X76140000Y-108445398D01*
G37*
D13*
X92964000Y-107696000D03*
D10*
G36*
X92414000Y-106946000D02*
G01*
X92964000Y-106946000D01*
X92964000Y-106946602D01*
X92988534Y-106946602D01*
X93037365Y-106951412D01*
X93085490Y-106960984D01*
X93132445Y-106975228D01*
X93177778Y-106994005D01*
X93221051Y-107017136D01*
X93261850Y-107044396D01*
X93299779Y-107075524D01*
X93334476Y-107110221D01*
X93365604Y-107148150D01*
X93392864Y-107188949D01*
X93415995Y-107232222D01*
X93434772Y-107277555D01*
X93449016Y-107324510D01*
X93458588Y-107372635D01*
X93463398Y-107421466D01*
X93463398Y-107446000D01*
X93464000Y-107446000D01*
X93464000Y-107946000D01*
X93463398Y-107946000D01*
X93463398Y-107970534D01*
X93458588Y-108019365D01*
X93449016Y-108067490D01*
X93434772Y-108114445D01*
X93415995Y-108159778D01*
X93392864Y-108203051D01*
X93365604Y-108243850D01*
X93334476Y-108281779D01*
X93299779Y-108316476D01*
X93261850Y-108347604D01*
X93221051Y-108374864D01*
X93177778Y-108397995D01*
X93132445Y-108416772D01*
X93085490Y-108431016D01*
X93037365Y-108440588D01*
X92988534Y-108445398D01*
X92964000Y-108445398D01*
X92964000Y-108446000D01*
X92414000Y-108446000D01*
X92414000Y-106946000D01*
X92414000Y-106946000D01*
G37*
D14*
X91664000Y-107696000D03*
D13*
X90364000Y-107696000D03*
D10*
G36*
X90364000Y-108445398D02*
G01*
X90339466Y-108445398D01*
X90290635Y-108440588D01*
X90242510Y-108431016D01*
X90195555Y-108416772D01*
X90150222Y-108397995D01*
X90106949Y-108374864D01*
X90066150Y-108347604D01*
X90028221Y-108316476D01*
X89993524Y-108281779D01*
X89962396Y-108243850D01*
X89935136Y-108203051D01*
X89912005Y-108159778D01*
X89893228Y-108114445D01*
X89878984Y-108067490D01*
X89869412Y-108019365D01*
X89864602Y-107970534D01*
X89864602Y-107946000D01*
X89864000Y-107946000D01*
X89864000Y-107446000D01*
X89864602Y-107446000D01*
X89864602Y-107421466D01*
X89869412Y-107372635D01*
X89878984Y-107324510D01*
X89893228Y-107277555D01*
X89912005Y-107232222D01*
X89935136Y-107188949D01*
X89962396Y-107148150D01*
X89993524Y-107110221D01*
X90028221Y-107075524D01*
X90066150Y-107044396D01*
X90106949Y-107017136D01*
X90150222Y-106994005D01*
X90195555Y-106975228D01*
X90242510Y-106960984D01*
X90290635Y-106951412D01*
X90339466Y-106946602D01*
X90364000Y-106946602D01*
X90364000Y-106946000D01*
X90914000Y-106946000D01*
X90914000Y-108446000D01*
X90364000Y-108446000D01*
X90364000Y-108445398D01*
X90364000Y-108445398D01*
G37*
G36*
X94121504Y-92833704D02*
G01*
X94145773Y-92837304D01*
X94169571Y-92843265D01*
X94192671Y-92851530D01*
X94214849Y-92862020D01*
X94235893Y-92874633D01*
X94255598Y-92889247D01*
X94273777Y-92905723D01*
X94290253Y-92923902D01*
X94304867Y-92943607D01*
X94317480Y-92964651D01*
X94327970Y-92986829D01*
X94336235Y-93009929D01*
X94342196Y-93033727D01*
X94345796Y-93057996D01*
X94347000Y-93082500D01*
X94347000Y-94007500D01*
X94345796Y-94032004D01*
X94342196Y-94056273D01*
X94336235Y-94080071D01*
X94327970Y-94103171D01*
X94317480Y-94125349D01*
X94304867Y-94146393D01*
X94290253Y-94166098D01*
X94273777Y-94184277D01*
X94255598Y-94200753D01*
X94235893Y-94215367D01*
X94214849Y-94227980D01*
X94192671Y-94238470D01*
X94169571Y-94246735D01*
X94145773Y-94252696D01*
X94121504Y-94256296D01*
X94097000Y-94257500D01*
X92847000Y-94257500D01*
X92822496Y-94256296D01*
X92798227Y-94252696D01*
X92774429Y-94246735D01*
X92751329Y-94238470D01*
X92729151Y-94227980D01*
X92708107Y-94215367D01*
X92688402Y-94200753D01*
X92670223Y-94184277D01*
X92653747Y-94166098D01*
X92639133Y-94146393D01*
X92626520Y-94125349D01*
X92616030Y-94103171D01*
X92607765Y-94080071D01*
X92601804Y-94056273D01*
X92598204Y-94032004D01*
X92597000Y-94007500D01*
X92597000Y-93082500D01*
X92598204Y-93057996D01*
X92601804Y-93033727D01*
X92607765Y-93009929D01*
X92616030Y-92986829D01*
X92626520Y-92964651D01*
X92639133Y-92943607D01*
X92653747Y-92923902D01*
X92670223Y-92905723D01*
X92688402Y-92889247D01*
X92708107Y-92874633D01*
X92729151Y-92862020D01*
X92751329Y-92851530D01*
X92774429Y-92843265D01*
X92798227Y-92837304D01*
X92822496Y-92833704D01*
X92847000Y-92832500D01*
X94097000Y-92832500D01*
X94121504Y-92833704D01*
X94121504Y-92833704D01*
G37*
D18*
X93472000Y-93545000D03*
D10*
G36*
X94121504Y-95808704D02*
G01*
X94145773Y-95812304D01*
X94169571Y-95818265D01*
X94192671Y-95826530D01*
X94214849Y-95837020D01*
X94235893Y-95849633D01*
X94255598Y-95864247D01*
X94273777Y-95880723D01*
X94290253Y-95898902D01*
X94304867Y-95918607D01*
X94317480Y-95939651D01*
X94327970Y-95961829D01*
X94336235Y-95984929D01*
X94342196Y-96008727D01*
X94345796Y-96032996D01*
X94347000Y-96057500D01*
X94347000Y-96982500D01*
X94345796Y-97007004D01*
X94342196Y-97031273D01*
X94336235Y-97055071D01*
X94327970Y-97078171D01*
X94317480Y-97100349D01*
X94304867Y-97121393D01*
X94290253Y-97141098D01*
X94273777Y-97159277D01*
X94255598Y-97175753D01*
X94235893Y-97190367D01*
X94214849Y-97202980D01*
X94192671Y-97213470D01*
X94169571Y-97221735D01*
X94145773Y-97227696D01*
X94121504Y-97231296D01*
X94097000Y-97232500D01*
X92847000Y-97232500D01*
X92822496Y-97231296D01*
X92798227Y-97227696D01*
X92774429Y-97221735D01*
X92751329Y-97213470D01*
X92729151Y-97202980D01*
X92708107Y-97190367D01*
X92688402Y-97175753D01*
X92670223Y-97159277D01*
X92653747Y-97141098D01*
X92639133Y-97121393D01*
X92626520Y-97100349D01*
X92616030Y-97078171D01*
X92607765Y-97055071D01*
X92601804Y-97031273D01*
X92598204Y-97007004D01*
X92597000Y-96982500D01*
X92597000Y-96057500D01*
X92598204Y-96032996D01*
X92601804Y-96008727D01*
X92607765Y-95984929D01*
X92616030Y-95961829D01*
X92626520Y-95939651D01*
X92639133Y-95918607D01*
X92653747Y-95898902D01*
X92670223Y-95880723D01*
X92688402Y-95864247D01*
X92708107Y-95849633D01*
X92729151Y-95837020D01*
X92751329Y-95826530D01*
X92774429Y-95818265D01*
X92798227Y-95812304D01*
X92822496Y-95808704D01*
X92847000Y-95807500D01*
X94097000Y-95807500D01*
X94121504Y-95808704D01*
X94121504Y-95808704D01*
G37*
D18*
X93472000Y-96520000D03*
D10*
G36*
X70753504Y-92797204D02*
G01*
X70777773Y-92800804D01*
X70801571Y-92806765D01*
X70824671Y-92815030D01*
X70846849Y-92825520D01*
X70867893Y-92838133D01*
X70887598Y-92852747D01*
X70905777Y-92869223D01*
X70922253Y-92887402D01*
X70936867Y-92907107D01*
X70949480Y-92928151D01*
X70959970Y-92950329D01*
X70968235Y-92973429D01*
X70974196Y-92997227D01*
X70977796Y-93021496D01*
X70979000Y-93046000D01*
X70979000Y-93971000D01*
X70977796Y-93995504D01*
X70974196Y-94019773D01*
X70968235Y-94043571D01*
X70959970Y-94066671D01*
X70949480Y-94088849D01*
X70936867Y-94109893D01*
X70922253Y-94129598D01*
X70905777Y-94147777D01*
X70887598Y-94164253D01*
X70867893Y-94178867D01*
X70846849Y-94191480D01*
X70824671Y-94201970D01*
X70801571Y-94210235D01*
X70777773Y-94216196D01*
X70753504Y-94219796D01*
X70729000Y-94221000D01*
X69479000Y-94221000D01*
X69454496Y-94219796D01*
X69430227Y-94216196D01*
X69406429Y-94210235D01*
X69383329Y-94201970D01*
X69361151Y-94191480D01*
X69340107Y-94178867D01*
X69320402Y-94164253D01*
X69302223Y-94147777D01*
X69285747Y-94129598D01*
X69271133Y-94109893D01*
X69258520Y-94088849D01*
X69248030Y-94066671D01*
X69239765Y-94043571D01*
X69233804Y-94019773D01*
X69230204Y-93995504D01*
X69229000Y-93971000D01*
X69229000Y-93046000D01*
X69230204Y-93021496D01*
X69233804Y-92997227D01*
X69239765Y-92973429D01*
X69248030Y-92950329D01*
X69258520Y-92928151D01*
X69271133Y-92907107D01*
X69285747Y-92887402D01*
X69302223Y-92869223D01*
X69320402Y-92852747D01*
X69340107Y-92838133D01*
X69361151Y-92825520D01*
X69383329Y-92815030D01*
X69406429Y-92806765D01*
X69430227Y-92800804D01*
X69454496Y-92797204D01*
X69479000Y-92796000D01*
X70729000Y-92796000D01*
X70753504Y-92797204D01*
X70753504Y-92797204D01*
G37*
D18*
X70104000Y-93508500D03*
D10*
G36*
X70753504Y-95772204D02*
G01*
X70777773Y-95775804D01*
X70801571Y-95781765D01*
X70824671Y-95790030D01*
X70846849Y-95800520D01*
X70867893Y-95813133D01*
X70887598Y-95827747D01*
X70905777Y-95844223D01*
X70922253Y-95862402D01*
X70936867Y-95882107D01*
X70949480Y-95903151D01*
X70959970Y-95925329D01*
X70968235Y-95948429D01*
X70974196Y-95972227D01*
X70977796Y-95996496D01*
X70979000Y-96021000D01*
X70979000Y-96946000D01*
X70977796Y-96970504D01*
X70974196Y-96994773D01*
X70968235Y-97018571D01*
X70959970Y-97041671D01*
X70949480Y-97063849D01*
X70936867Y-97084893D01*
X70922253Y-97104598D01*
X70905777Y-97122777D01*
X70887598Y-97139253D01*
X70867893Y-97153867D01*
X70846849Y-97166480D01*
X70824671Y-97176970D01*
X70801571Y-97185235D01*
X70777773Y-97191196D01*
X70753504Y-97194796D01*
X70729000Y-97196000D01*
X69479000Y-97196000D01*
X69454496Y-97194796D01*
X69430227Y-97191196D01*
X69406429Y-97185235D01*
X69383329Y-97176970D01*
X69361151Y-97166480D01*
X69340107Y-97153867D01*
X69320402Y-97139253D01*
X69302223Y-97122777D01*
X69285747Y-97104598D01*
X69271133Y-97084893D01*
X69258520Y-97063849D01*
X69248030Y-97041671D01*
X69239765Y-97018571D01*
X69233804Y-96994773D01*
X69230204Y-96970504D01*
X69229000Y-96946000D01*
X69229000Y-96021000D01*
X69230204Y-95996496D01*
X69233804Y-95972227D01*
X69239765Y-95948429D01*
X69248030Y-95925329D01*
X69258520Y-95903151D01*
X69271133Y-95882107D01*
X69285747Y-95862402D01*
X69302223Y-95844223D01*
X69320402Y-95827747D01*
X69340107Y-95813133D01*
X69361151Y-95800520D01*
X69383329Y-95790030D01*
X69406429Y-95781765D01*
X69430227Y-95775804D01*
X69454496Y-95772204D01*
X69479000Y-95771000D01*
X70729000Y-95771000D01*
X70753504Y-95772204D01*
X70753504Y-95772204D01*
G37*
D18*
X70104000Y-96483500D03*
D21*
X77724000Y-94020000D03*
D12*
X77724000Y-96520000D03*
D21*
X86360000Y-94020000D03*
D12*
X86360000Y-96520000D03*
D22*
X143980000Y-99210000D03*
X146520000Y-99210000D03*
X149060000Y-99210000D03*
X151600000Y-99210000D03*
X154140000Y-99210000D03*
X156680000Y-99210000D03*
X159220000Y-99210000D03*
X161760000Y-99210000D03*
X164300000Y-99210000D03*
X166840000Y-99210000D03*
X169380000Y-99210000D03*
X171920000Y-99210000D03*
X174460000Y-99210000D03*
X177000000Y-99210000D03*
X179540000Y-99210000D03*
X182080000Y-99210000D03*
X184620000Y-99210000D03*
X187160000Y-99210000D03*
X189700000Y-99210000D03*
X192240000Y-99210000D03*
X192240000Y-114450000D03*
X189700000Y-114450000D03*
X187160000Y-114450000D03*
X184620000Y-114450000D03*
X182080000Y-114450000D03*
X179540000Y-114450000D03*
X177000000Y-114450000D03*
X174460000Y-114450000D03*
X171920000Y-114450000D03*
X169380000Y-114450000D03*
X166840000Y-114450000D03*
X164300000Y-114450000D03*
X161760000Y-114450000D03*
X159220000Y-114450000D03*
X156680000Y-114450000D03*
X154140000Y-114450000D03*
X151600000Y-114450000D03*
X149060000Y-114450000D03*
X146520000Y-114450000D03*
X143980000Y-114450000D03*
X147790000Y-110640000D03*
X147790000Y-108100000D03*
X147790000Y-105560000D03*
X147790000Y-103020000D03*
D23*
X143256000Y-74676000D03*
X143256000Y-72136000D03*
X161036000Y-74676000D03*
X161036000Y-72136000D03*
X166116000Y-74676000D03*
X166116000Y-72136000D03*
X155956000Y-74676000D03*
X155956000Y-72136000D03*
X183896000Y-74676000D03*
X183896000Y-72136000D03*
X153416000Y-74676000D03*
X153416000Y-72136000D03*
X171196000Y-74676000D03*
X171196000Y-72136000D03*
X148336000Y-74676000D03*
X148336000Y-72136000D03*
X150876000Y-74676000D03*
X150876000Y-72136000D03*
X145796000Y-74676000D03*
X145796000Y-72136000D03*
X168656000Y-74676000D03*
X168656000Y-72136000D03*
X181356000Y-74676000D03*
X181356000Y-72136000D03*
X176276000Y-74676000D03*
X176276000Y-72136000D03*
X158496000Y-74676000D03*
X158496000Y-72136000D03*
X178816000Y-74676000D03*
X178816000Y-72136000D03*
X163576000Y-74676000D03*
X163576000Y-72136000D03*
D24*
X191516000Y-72136000D03*
D23*
X191516000Y-74676000D03*
X186436000Y-72136000D03*
X188976000Y-74676000D03*
X173736000Y-74676000D03*
X173736000Y-72136000D03*
X188976000Y-72136000D03*
X186436000Y-74676000D03*
D10*
G36*
X144629504Y-126411204D02*
G01*
X144653773Y-126414804D01*
X144677571Y-126420765D01*
X144700671Y-126429030D01*
X144722849Y-126439520D01*
X144743893Y-126452133D01*
X144763598Y-126466747D01*
X144781777Y-126483223D01*
X144798253Y-126501402D01*
X144812867Y-126521107D01*
X144825480Y-126542151D01*
X144835970Y-126564329D01*
X144844235Y-126587429D01*
X144850196Y-126611227D01*
X144853796Y-126635496D01*
X144855000Y-126660000D01*
X144855000Y-127585000D01*
X144853796Y-127609504D01*
X144850196Y-127633773D01*
X144844235Y-127657571D01*
X144835970Y-127680671D01*
X144825480Y-127702849D01*
X144812867Y-127723893D01*
X144798253Y-127743598D01*
X144781777Y-127761777D01*
X144763598Y-127778253D01*
X144743893Y-127792867D01*
X144722849Y-127805480D01*
X144700671Y-127815970D01*
X144677571Y-127824235D01*
X144653773Y-127830196D01*
X144629504Y-127833796D01*
X144605000Y-127835000D01*
X143355000Y-127835000D01*
X143330496Y-127833796D01*
X143306227Y-127830196D01*
X143282429Y-127824235D01*
X143259329Y-127815970D01*
X143237151Y-127805480D01*
X143216107Y-127792867D01*
X143196402Y-127778253D01*
X143178223Y-127761777D01*
X143161747Y-127743598D01*
X143147133Y-127723893D01*
X143134520Y-127702849D01*
X143124030Y-127680671D01*
X143115765Y-127657571D01*
X143109804Y-127633773D01*
X143106204Y-127609504D01*
X143105000Y-127585000D01*
X143105000Y-126660000D01*
X143106204Y-126635496D01*
X143109804Y-126611227D01*
X143115765Y-126587429D01*
X143124030Y-126564329D01*
X143134520Y-126542151D01*
X143147133Y-126521107D01*
X143161747Y-126501402D01*
X143178223Y-126483223D01*
X143196402Y-126466747D01*
X143216107Y-126452133D01*
X143237151Y-126439520D01*
X143259329Y-126429030D01*
X143282429Y-126420765D01*
X143306227Y-126414804D01*
X143330496Y-126411204D01*
X143355000Y-126410000D01*
X144605000Y-126410000D01*
X144629504Y-126411204D01*
X144629504Y-126411204D01*
G37*
D18*
X143980000Y-127122500D03*
D10*
G36*
X144629504Y-123436204D02*
G01*
X144653773Y-123439804D01*
X144677571Y-123445765D01*
X144700671Y-123454030D01*
X144722849Y-123464520D01*
X144743893Y-123477133D01*
X144763598Y-123491747D01*
X144781777Y-123508223D01*
X144798253Y-123526402D01*
X144812867Y-123546107D01*
X144825480Y-123567151D01*
X144835970Y-123589329D01*
X144844235Y-123612429D01*
X144850196Y-123636227D01*
X144853796Y-123660496D01*
X144855000Y-123685000D01*
X144855000Y-124610000D01*
X144853796Y-124634504D01*
X144850196Y-124658773D01*
X144844235Y-124682571D01*
X144835970Y-124705671D01*
X144825480Y-124727849D01*
X144812867Y-124748893D01*
X144798253Y-124768598D01*
X144781777Y-124786777D01*
X144763598Y-124803253D01*
X144743893Y-124817867D01*
X144722849Y-124830480D01*
X144700671Y-124840970D01*
X144677571Y-124849235D01*
X144653773Y-124855196D01*
X144629504Y-124858796D01*
X144605000Y-124860000D01*
X143355000Y-124860000D01*
X143330496Y-124858796D01*
X143306227Y-124855196D01*
X143282429Y-124849235D01*
X143259329Y-124840970D01*
X143237151Y-124830480D01*
X143216107Y-124817867D01*
X143196402Y-124803253D01*
X143178223Y-124786777D01*
X143161747Y-124768598D01*
X143147133Y-124748893D01*
X143134520Y-124727849D01*
X143124030Y-124705671D01*
X143115765Y-124682571D01*
X143109804Y-124658773D01*
X143106204Y-124634504D01*
X143105000Y-124610000D01*
X143105000Y-123685000D01*
X143106204Y-123660496D01*
X143109804Y-123636227D01*
X143115765Y-123612429D01*
X143124030Y-123589329D01*
X143134520Y-123567151D01*
X143147133Y-123546107D01*
X143161747Y-123526402D01*
X143178223Y-123508223D01*
X143196402Y-123491747D01*
X143216107Y-123477133D01*
X143237151Y-123464520D01*
X143259329Y-123454030D01*
X143282429Y-123445765D01*
X143306227Y-123439804D01*
X143330496Y-123436204D01*
X143355000Y-123435000D01*
X144605000Y-123435000D01*
X144629504Y-123436204D01*
X144629504Y-123436204D01*
G37*
D18*
X143980000Y-124147500D03*
D10*
G36*
X140819504Y-123436204D02*
G01*
X140843773Y-123439804D01*
X140867571Y-123445765D01*
X140890671Y-123454030D01*
X140912849Y-123464520D01*
X140933893Y-123477133D01*
X140953598Y-123491747D01*
X140971777Y-123508223D01*
X140988253Y-123526402D01*
X141002867Y-123546107D01*
X141015480Y-123567151D01*
X141025970Y-123589329D01*
X141034235Y-123612429D01*
X141040196Y-123636227D01*
X141043796Y-123660496D01*
X141045000Y-123685000D01*
X141045000Y-124610000D01*
X141043796Y-124634504D01*
X141040196Y-124658773D01*
X141034235Y-124682571D01*
X141025970Y-124705671D01*
X141015480Y-124727849D01*
X141002867Y-124748893D01*
X140988253Y-124768598D01*
X140971777Y-124786777D01*
X140953598Y-124803253D01*
X140933893Y-124817867D01*
X140912849Y-124830480D01*
X140890671Y-124840970D01*
X140867571Y-124849235D01*
X140843773Y-124855196D01*
X140819504Y-124858796D01*
X140795000Y-124860000D01*
X139545000Y-124860000D01*
X139520496Y-124858796D01*
X139496227Y-124855196D01*
X139472429Y-124849235D01*
X139449329Y-124840970D01*
X139427151Y-124830480D01*
X139406107Y-124817867D01*
X139386402Y-124803253D01*
X139368223Y-124786777D01*
X139351747Y-124768598D01*
X139337133Y-124748893D01*
X139324520Y-124727849D01*
X139314030Y-124705671D01*
X139305765Y-124682571D01*
X139299804Y-124658773D01*
X139296204Y-124634504D01*
X139295000Y-124610000D01*
X139295000Y-123685000D01*
X139296204Y-123660496D01*
X139299804Y-123636227D01*
X139305765Y-123612429D01*
X139314030Y-123589329D01*
X139324520Y-123567151D01*
X139337133Y-123546107D01*
X139351747Y-123526402D01*
X139368223Y-123508223D01*
X139386402Y-123491747D01*
X139406107Y-123477133D01*
X139427151Y-123464520D01*
X139449329Y-123454030D01*
X139472429Y-123445765D01*
X139496227Y-123439804D01*
X139520496Y-123436204D01*
X139545000Y-123435000D01*
X140795000Y-123435000D01*
X140819504Y-123436204D01*
X140819504Y-123436204D01*
G37*
D18*
X140170000Y-124147500D03*
D10*
G36*
X140819504Y-126411204D02*
G01*
X140843773Y-126414804D01*
X140867571Y-126420765D01*
X140890671Y-126429030D01*
X140912849Y-126439520D01*
X140933893Y-126452133D01*
X140953598Y-126466747D01*
X140971777Y-126483223D01*
X140988253Y-126501402D01*
X141002867Y-126521107D01*
X141015480Y-126542151D01*
X141025970Y-126564329D01*
X141034235Y-126587429D01*
X141040196Y-126611227D01*
X141043796Y-126635496D01*
X141045000Y-126660000D01*
X141045000Y-127585000D01*
X141043796Y-127609504D01*
X141040196Y-127633773D01*
X141034235Y-127657571D01*
X141025970Y-127680671D01*
X141015480Y-127702849D01*
X141002867Y-127723893D01*
X140988253Y-127743598D01*
X140971777Y-127761777D01*
X140953598Y-127778253D01*
X140933893Y-127792867D01*
X140912849Y-127805480D01*
X140890671Y-127815970D01*
X140867571Y-127824235D01*
X140843773Y-127830196D01*
X140819504Y-127833796D01*
X140795000Y-127835000D01*
X139545000Y-127835000D01*
X139520496Y-127833796D01*
X139496227Y-127830196D01*
X139472429Y-127824235D01*
X139449329Y-127815970D01*
X139427151Y-127805480D01*
X139406107Y-127792867D01*
X139386402Y-127778253D01*
X139368223Y-127761777D01*
X139351747Y-127743598D01*
X139337133Y-127723893D01*
X139324520Y-127702849D01*
X139314030Y-127680671D01*
X139305765Y-127657571D01*
X139299804Y-127633773D01*
X139296204Y-127609504D01*
X139295000Y-127585000D01*
X139295000Y-126660000D01*
X139296204Y-126635496D01*
X139299804Y-126611227D01*
X139305765Y-126587429D01*
X139314030Y-126564329D01*
X139324520Y-126542151D01*
X139337133Y-126521107D01*
X139351747Y-126501402D01*
X139368223Y-126483223D01*
X139386402Y-126466747D01*
X139406107Y-126452133D01*
X139427151Y-126439520D01*
X139449329Y-126429030D01*
X139472429Y-126420765D01*
X139496227Y-126414804D01*
X139520496Y-126411204D01*
X139545000Y-126410000D01*
X140795000Y-126410000D01*
X140819504Y-126411204D01*
X140819504Y-126411204D01*
G37*
D18*
X140170000Y-127122500D03*
D23*
X210312000Y-80772000D03*
X210312000Y-83312000D03*
X207772000Y-80772000D03*
D24*
X207772000Y-83312000D03*
D25*
X130010000Y-99210000D03*
D26*
X126200000Y-99210000D03*
D10*
G36*
X117579504Y-72936204D02*
G01*
X117603773Y-72939804D01*
X117627571Y-72945765D01*
X117650671Y-72954030D01*
X117672849Y-72964520D01*
X117693893Y-72977133D01*
X117713598Y-72991747D01*
X117731777Y-73008223D01*
X117748253Y-73026402D01*
X117762867Y-73046107D01*
X117775480Y-73067151D01*
X117785970Y-73089329D01*
X117794235Y-73112429D01*
X117800196Y-73136227D01*
X117803796Y-73160496D01*
X117805000Y-73185000D01*
X117805000Y-74435000D01*
X117803796Y-74459504D01*
X117800196Y-74483773D01*
X117794235Y-74507571D01*
X117785970Y-74530671D01*
X117775480Y-74552849D01*
X117762867Y-74573893D01*
X117748253Y-74593598D01*
X117731777Y-74611777D01*
X117713598Y-74628253D01*
X117693893Y-74642867D01*
X117672849Y-74655480D01*
X117650671Y-74665970D01*
X117627571Y-74674235D01*
X117603773Y-74680196D01*
X117579504Y-74683796D01*
X117555000Y-74685000D01*
X116630000Y-74685000D01*
X116605496Y-74683796D01*
X116581227Y-74680196D01*
X116557429Y-74674235D01*
X116534329Y-74665970D01*
X116512151Y-74655480D01*
X116491107Y-74642867D01*
X116471402Y-74628253D01*
X116453223Y-74611777D01*
X116436747Y-74593598D01*
X116422133Y-74573893D01*
X116409520Y-74552849D01*
X116399030Y-74530671D01*
X116390765Y-74507571D01*
X116384804Y-74483773D01*
X116381204Y-74459504D01*
X116380000Y-74435000D01*
X116380000Y-73185000D01*
X116381204Y-73160496D01*
X116384804Y-73136227D01*
X116390765Y-73112429D01*
X116399030Y-73089329D01*
X116409520Y-73067151D01*
X116422133Y-73046107D01*
X116436747Y-73026402D01*
X116453223Y-73008223D01*
X116471402Y-72991747D01*
X116491107Y-72977133D01*
X116512151Y-72964520D01*
X116534329Y-72954030D01*
X116557429Y-72945765D01*
X116581227Y-72939804D01*
X116605496Y-72936204D01*
X116630000Y-72935000D01*
X117555000Y-72935000D01*
X117579504Y-72936204D01*
X117579504Y-72936204D01*
G37*
D18*
X117092500Y-73810000D03*
D10*
G36*
X120554504Y-72936204D02*
G01*
X120578773Y-72939804D01*
X120602571Y-72945765D01*
X120625671Y-72954030D01*
X120647849Y-72964520D01*
X120668893Y-72977133D01*
X120688598Y-72991747D01*
X120706777Y-73008223D01*
X120723253Y-73026402D01*
X120737867Y-73046107D01*
X120750480Y-73067151D01*
X120760970Y-73089329D01*
X120769235Y-73112429D01*
X120775196Y-73136227D01*
X120778796Y-73160496D01*
X120780000Y-73185000D01*
X120780000Y-74435000D01*
X120778796Y-74459504D01*
X120775196Y-74483773D01*
X120769235Y-74507571D01*
X120760970Y-74530671D01*
X120750480Y-74552849D01*
X120737867Y-74573893D01*
X120723253Y-74593598D01*
X120706777Y-74611777D01*
X120688598Y-74628253D01*
X120668893Y-74642867D01*
X120647849Y-74655480D01*
X120625671Y-74665970D01*
X120602571Y-74674235D01*
X120578773Y-74680196D01*
X120554504Y-74683796D01*
X120530000Y-74685000D01*
X119605000Y-74685000D01*
X119580496Y-74683796D01*
X119556227Y-74680196D01*
X119532429Y-74674235D01*
X119509329Y-74665970D01*
X119487151Y-74655480D01*
X119466107Y-74642867D01*
X119446402Y-74628253D01*
X119428223Y-74611777D01*
X119411747Y-74593598D01*
X119397133Y-74573893D01*
X119384520Y-74552849D01*
X119374030Y-74530671D01*
X119365765Y-74507571D01*
X119359804Y-74483773D01*
X119356204Y-74459504D01*
X119355000Y-74435000D01*
X119355000Y-73185000D01*
X119356204Y-73160496D01*
X119359804Y-73136227D01*
X119365765Y-73112429D01*
X119374030Y-73089329D01*
X119384520Y-73067151D01*
X119397133Y-73046107D01*
X119411747Y-73026402D01*
X119428223Y-73008223D01*
X119446402Y-72991747D01*
X119466107Y-72977133D01*
X119487151Y-72964520D01*
X119509329Y-72954030D01*
X119532429Y-72945765D01*
X119556227Y-72939804D01*
X119580496Y-72936204D01*
X119605000Y-72935000D01*
X120530000Y-72935000D01*
X120554504Y-72936204D01*
X120554504Y-72936204D01*
G37*
D18*
X120067500Y-73810000D03*
D10*
G36*
X133364504Y-75271204D02*
G01*
X133388773Y-75274804D01*
X133412571Y-75280765D01*
X133435671Y-75289030D01*
X133457849Y-75299520D01*
X133478893Y-75312133D01*
X133498598Y-75326747D01*
X133516777Y-75343223D01*
X133533253Y-75361402D01*
X133547867Y-75381107D01*
X133560480Y-75402151D01*
X133570970Y-75424329D01*
X133579235Y-75447429D01*
X133585196Y-75471227D01*
X133588796Y-75495496D01*
X133590000Y-75520000D01*
X133590000Y-76445000D01*
X133588796Y-76469504D01*
X133585196Y-76493773D01*
X133579235Y-76517571D01*
X133570970Y-76540671D01*
X133560480Y-76562849D01*
X133547867Y-76583893D01*
X133533253Y-76603598D01*
X133516777Y-76621777D01*
X133498598Y-76638253D01*
X133478893Y-76652867D01*
X133457849Y-76665480D01*
X133435671Y-76675970D01*
X133412571Y-76684235D01*
X133388773Y-76690196D01*
X133364504Y-76693796D01*
X133340000Y-76695000D01*
X132090000Y-76695000D01*
X132065496Y-76693796D01*
X132041227Y-76690196D01*
X132017429Y-76684235D01*
X131994329Y-76675970D01*
X131972151Y-76665480D01*
X131951107Y-76652867D01*
X131931402Y-76638253D01*
X131913223Y-76621777D01*
X131896747Y-76603598D01*
X131882133Y-76583893D01*
X131869520Y-76562849D01*
X131859030Y-76540671D01*
X131850765Y-76517571D01*
X131844804Y-76493773D01*
X131841204Y-76469504D01*
X131840000Y-76445000D01*
X131840000Y-75520000D01*
X131841204Y-75495496D01*
X131844804Y-75471227D01*
X131850765Y-75447429D01*
X131859030Y-75424329D01*
X131869520Y-75402151D01*
X131882133Y-75381107D01*
X131896747Y-75361402D01*
X131913223Y-75343223D01*
X131931402Y-75326747D01*
X131951107Y-75312133D01*
X131972151Y-75299520D01*
X131994329Y-75289030D01*
X132017429Y-75280765D01*
X132041227Y-75274804D01*
X132065496Y-75271204D01*
X132090000Y-75270000D01*
X133340000Y-75270000D01*
X133364504Y-75271204D01*
X133364504Y-75271204D01*
G37*
D18*
X132715000Y-75982500D03*
D10*
G36*
X133364504Y-78246204D02*
G01*
X133388773Y-78249804D01*
X133412571Y-78255765D01*
X133435671Y-78264030D01*
X133457849Y-78274520D01*
X133478893Y-78287133D01*
X133498598Y-78301747D01*
X133516777Y-78318223D01*
X133533253Y-78336402D01*
X133547867Y-78356107D01*
X133560480Y-78377151D01*
X133570970Y-78399329D01*
X133579235Y-78422429D01*
X133585196Y-78446227D01*
X133588796Y-78470496D01*
X133590000Y-78495000D01*
X133590000Y-79420000D01*
X133588796Y-79444504D01*
X133585196Y-79468773D01*
X133579235Y-79492571D01*
X133570970Y-79515671D01*
X133560480Y-79537849D01*
X133547867Y-79558893D01*
X133533253Y-79578598D01*
X133516777Y-79596777D01*
X133498598Y-79613253D01*
X133478893Y-79627867D01*
X133457849Y-79640480D01*
X133435671Y-79650970D01*
X133412571Y-79659235D01*
X133388773Y-79665196D01*
X133364504Y-79668796D01*
X133340000Y-79670000D01*
X132090000Y-79670000D01*
X132065496Y-79668796D01*
X132041227Y-79665196D01*
X132017429Y-79659235D01*
X131994329Y-79650970D01*
X131972151Y-79640480D01*
X131951107Y-79627867D01*
X131931402Y-79613253D01*
X131913223Y-79596777D01*
X131896747Y-79578598D01*
X131882133Y-79558893D01*
X131869520Y-79537849D01*
X131859030Y-79515671D01*
X131850765Y-79492571D01*
X131844804Y-79468773D01*
X131841204Y-79444504D01*
X131840000Y-79420000D01*
X131840000Y-78495000D01*
X131841204Y-78470496D01*
X131844804Y-78446227D01*
X131850765Y-78422429D01*
X131859030Y-78399329D01*
X131869520Y-78377151D01*
X131882133Y-78356107D01*
X131896747Y-78336402D01*
X131913223Y-78318223D01*
X131931402Y-78301747D01*
X131951107Y-78287133D01*
X131972151Y-78274520D01*
X131994329Y-78264030D01*
X132017429Y-78255765D01*
X132041227Y-78249804D01*
X132065496Y-78246204D01*
X132090000Y-78245000D01*
X133340000Y-78245000D01*
X133364504Y-78246204D01*
X133364504Y-78246204D01*
G37*
D18*
X132715000Y-78957500D03*
D10*
G36*
X117109504Y-55006204D02*
G01*
X117133773Y-55009804D01*
X117157571Y-55015765D01*
X117180671Y-55024030D01*
X117202849Y-55034520D01*
X117223893Y-55047133D01*
X117243598Y-55061747D01*
X117261777Y-55078223D01*
X117278253Y-55096402D01*
X117292867Y-55116107D01*
X117305480Y-55137151D01*
X117315970Y-55159329D01*
X117324235Y-55182429D01*
X117330196Y-55206227D01*
X117333796Y-55230496D01*
X117335000Y-55255000D01*
X117335000Y-56505000D01*
X117333796Y-56529504D01*
X117330196Y-56553773D01*
X117324235Y-56577571D01*
X117315970Y-56600671D01*
X117305480Y-56622849D01*
X117292867Y-56643893D01*
X117278253Y-56663598D01*
X117261777Y-56681777D01*
X117243598Y-56698253D01*
X117223893Y-56712867D01*
X117202849Y-56725480D01*
X117180671Y-56735970D01*
X117157571Y-56744235D01*
X117133773Y-56750196D01*
X117109504Y-56753796D01*
X117085000Y-56755000D01*
X116160000Y-56755000D01*
X116135496Y-56753796D01*
X116111227Y-56750196D01*
X116087429Y-56744235D01*
X116064329Y-56735970D01*
X116042151Y-56725480D01*
X116021107Y-56712867D01*
X116001402Y-56698253D01*
X115983223Y-56681777D01*
X115966747Y-56663598D01*
X115952133Y-56643893D01*
X115939520Y-56622849D01*
X115929030Y-56600671D01*
X115920765Y-56577571D01*
X115914804Y-56553773D01*
X115911204Y-56529504D01*
X115910000Y-56505000D01*
X115910000Y-55255000D01*
X115911204Y-55230496D01*
X115914804Y-55206227D01*
X115920765Y-55182429D01*
X115929030Y-55159329D01*
X115939520Y-55137151D01*
X115952133Y-55116107D01*
X115966747Y-55096402D01*
X115983223Y-55078223D01*
X116001402Y-55061747D01*
X116021107Y-55047133D01*
X116042151Y-55034520D01*
X116064329Y-55024030D01*
X116087429Y-55015765D01*
X116111227Y-55009804D01*
X116135496Y-55006204D01*
X116160000Y-55005000D01*
X117085000Y-55005000D01*
X117109504Y-55006204D01*
X117109504Y-55006204D01*
G37*
D18*
X116622500Y-55880000D03*
D10*
G36*
X120084504Y-55006204D02*
G01*
X120108773Y-55009804D01*
X120132571Y-55015765D01*
X120155671Y-55024030D01*
X120177849Y-55034520D01*
X120198893Y-55047133D01*
X120218598Y-55061747D01*
X120236777Y-55078223D01*
X120253253Y-55096402D01*
X120267867Y-55116107D01*
X120280480Y-55137151D01*
X120290970Y-55159329D01*
X120299235Y-55182429D01*
X120305196Y-55206227D01*
X120308796Y-55230496D01*
X120310000Y-55255000D01*
X120310000Y-56505000D01*
X120308796Y-56529504D01*
X120305196Y-56553773D01*
X120299235Y-56577571D01*
X120290970Y-56600671D01*
X120280480Y-56622849D01*
X120267867Y-56643893D01*
X120253253Y-56663598D01*
X120236777Y-56681777D01*
X120218598Y-56698253D01*
X120198893Y-56712867D01*
X120177849Y-56725480D01*
X120155671Y-56735970D01*
X120132571Y-56744235D01*
X120108773Y-56750196D01*
X120084504Y-56753796D01*
X120060000Y-56755000D01*
X119135000Y-56755000D01*
X119110496Y-56753796D01*
X119086227Y-56750196D01*
X119062429Y-56744235D01*
X119039329Y-56735970D01*
X119017151Y-56725480D01*
X118996107Y-56712867D01*
X118976402Y-56698253D01*
X118958223Y-56681777D01*
X118941747Y-56663598D01*
X118927133Y-56643893D01*
X118914520Y-56622849D01*
X118904030Y-56600671D01*
X118895765Y-56577571D01*
X118889804Y-56553773D01*
X118886204Y-56529504D01*
X118885000Y-56505000D01*
X118885000Y-55255000D01*
X118886204Y-55230496D01*
X118889804Y-55206227D01*
X118895765Y-55182429D01*
X118904030Y-55159329D01*
X118914520Y-55137151D01*
X118927133Y-55116107D01*
X118941747Y-55096402D01*
X118958223Y-55078223D01*
X118976402Y-55061747D01*
X118996107Y-55047133D01*
X119017151Y-55034520D01*
X119039329Y-55024030D01*
X119062429Y-55015765D01*
X119086227Y-55009804D01*
X119110496Y-55006204D01*
X119135000Y-55005000D01*
X120060000Y-55005000D01*
X120084504Y-55006204D01*
X120084504Y-55006204D01*
G37*
D18*
X119597500Y-55880000D03*
D10*
G36*
X120537504Y-101396704D02*
G01*
X120561773Y-101400304D01*
X120585571Y-101406265D01*
X120608671Y-101414530D01*
X120630849Y-101425020D01*
X120651893Y-101437633D01*
X120671598Y-101452247D01*
X120689777Y-101468723D01*
X120706253Y-101486902D01*
X120720867Y-101506607D01*
X120733480Y-101527651D01*
X120743970Y-101549829D01*
X120752235Y-101572929D01*
X120758196Y-101596727D01*
X120761796Y-101620996D01*
X120763000Y-101645500D01*
X120763000Y-102570500D01*
X120761796Y-102595004D01*
X120758196Y-102619273D01*
X120752235Y-102643071D01*
X120743970Y-102666171D01*
X120733480Y-102688349D01*
X120720867Y-102709393D01*
X120706253Y-102729098D01*
X120689777Y-102747277D01*
X120671598Y-102763753D01*
X120651893Y-102778367D01*
X120630849Y-102790980D01*
X120608671Y-102801470D01*
X120585571Y-102809735D01*
X120561773Y-102815696D01*
X120537504Y-102819296D01*
X120513000Y-102820500D01*
X119263000Y-102820500D01*
X119238496Y-102819296D01*
X119214227Y-102815696D01*
X119190429Y-102809735D01*
X119167329Y-102801470D01*
X119145151Y-102790980D01*
X119124107Y-102778367D01*
X119104402Y-102763753D01*
X119086223Y-102747277D01*
X119069747Y-102729098D01*
X119055133Y-102709393D01*
X119042520Y-102688349D01*
X119032030Y-102666171D01*
X119023765Y-102643071D01*
X119017804Y-102619273D01*
X119014204Y-102595004D01*
X119013000Y-102570500D01*
X119013000Y-101645500D01*
X119014204Y-101620996D01*
X119017804Y-101596727D01*
X119023765Y-101572929D01*
X119032030Y-101549829D01*
X119042520Y-101527651D01*
X119055133Y-101506607D01*
X119069747Y-101486902D01*
X119086223Y-101468723D01*
X119104402Y-101452247D01*
X119124107Y-101437633D01*
X119145151Y-101425020D01*
X119167329Y-101414530D01*
X119190429Y-101406265D01*
X119214227Y-101400304D01*
X119238496Y-101396704D01*
X119263000Y-101395500D01*
X120513000Y-101395500D01*
X120537504Y-101396704D01*
X120537504Y-101396704D01*
G37*
D18*
X119888000Y-102108000D03*
D10*
G36*
X120537504Y-98421704D02*
G01*
X120561773Y-98425304D01*
X120585571Y-98431265D01*
X120608671Y-98439530D01*
X120630849Y-98450020D01*
X120651893Y-98462633D01*
X120671598Y-98477247D01*
X120689777Y-98493723D01*
X120706253Y-98511902D01*
X120720867Y-98531607D01*
X120733480Y-98552651D01*
X120743970Y-98574829D01*
X120752235Y-98597929D01*
X120758196Y-98621727D01*
X120761796Y-98645996D01*
X120763000Y-98670500D01*
X120763000Y-99595500D01*
X120761796Y-99620004D01*
X120758196Y-99644273D01*
X120752235Y-99668071D01*
X120743970Y-99691171D01*
X120733480Y-99713349D01*
X120720867Y-99734393D01*
X120706253Y-99754098D01*
X120689777Y-99772277D01*
X120671598Y-99788753D01*
X120651893Y-99803367D01*
X120630849Y-99815980D01*
X120608671Y-99826470D01*
X120585571Y-99834735D01*
X120561773Y-99840696D01*
X120537504Y-99844296D01*
X120513000Y-99845500D01*
X119263000Y-99845500D01*
X119238496Y-99844296D01*
X119214227Y-99840696D01*
X119190429Y-99834735D01*
X119167329Y-99826470D01*
X119145151Y-99815980D01*
X119124107Y-99803367D01*
X119104402Y-99788753D01*
X119086223Y-99772277D01*
X119069747Y-99754098D01*
X119055133Y-99734393D01*
X119042520Y-99713349D01*
X119032030Y-99691171D01*
X119023765Y-99668071D01*
X119017804Y-99644273D01*
X119014204Y-99620004D01*
X119013000Y-99595500D01*
X119013000Y-98670500D01*
X119014204Y-98645996D01*
X119017804Y-98621727D01*
X119023765Y-98597929D01*
X119032030Y-98574829D01*
X119042520Y-98552651D01*
X119055133Y-98531607D01*
X119069747Y-98511902D01*
X119086223Y-98493723D01*
X119104402Y-98477247D01*
X119124107Y-98462633D01*
X119145151Y-98450020D01*
X119167329Y-98439530D01*
X119190429Y-98431265D01*
X119214227Y-98425304D01*
X119238496Y-98421704D01*
X119263000Y-98420500D01*
X120513000Y-98420500D01*
X120537504Y-98421704D01*
X120537504Y-98421704D01*
G37*
D18*
X119888000Y-99133000D03*
D10*
G36*
X145709504Y-131356204D02*
G01*
X145733773Y-131359804D01*
X145757571Y-131365765D01*
X145780671Y-131374030D01*
X145802849Y-131384520D01*
X145823893Y-131397133D01*
X145843598Y-131411747D01*
X145861777Y-131428223D01*
X145878253Y-131446402D01*
X145892867Y-131466107D01*
X145905480Y-131487151D01*
X145915970Y-131509329D01*
X145924235Y-131532429D01*
X145930196Y-131556227D01*
X145933796Y-131580496D01*
X145935000Y-131605000D01*
X145935000Y-132855000D01*
X145933796Y-132879504D01*
X145930196Y-132903773D01*
X145924235Y-132927571D01*
X145915970Y-132950671D01*
X145905480Y-132972849D01*
X145892867Y-132993893D01*
X145878253Y-133013598D01*
X145861777Y-133031777D01*
X145843598Y-133048253D01*
X145823893Y-133062867D01*
X145802849Y-133075480D01*
X145780671Y-133085970D01*
X145757571Y-133094235D01*
X145733773Y-133100196D01*
X145709504Y-133103796D01*
X145685000Y-133105000D01*
X144760000Y-133105000D01*
X144735496Y-133103796D01*
X144711227Y-133100196D01*
X144687429Y-133094235D01*
X144664329Y-133085970D01*
X144642151Y-133075480D01*
X144621107Y-133062867D01*
X144601402Y-133048253D01*
X144583223Y-133031777D01*
X144566747Y-133013598D01*
X144552133Y-132993893D01*
X144539520Y-132972849D01*
X144529030Y-132950671D01*
X144520765Y-132927571D01*
X144514804Y-132903773D01*
X144511204Y-132879504D01*
X144510000Y-132855000D01*
X144510000Y-131605000D01*
X144511204Y-131580496D01*
X144514804Y-131556227D01*
X144520765Y-131532429D01*
X144529030Y-131509329D01*
X144539520Y-131487151D01*
X144552133Y-131466107D01*
X144566747Y-131446402D01*
X144583223Y-131428223D01*
X144601402Y-131411747D01*
X144621107Y-131397133D01*
X144642151Y-131384520D01*
X144664329Y-131374030D01*
X144687429Y-131365765D01*
X144711227Y-131359804D01*
X144735496Y-131356204D01*
X144760000Y-131355000D01*
X145685000Y-131355000D01*
X145709504Y-131356204D01*
X145709504Y-131356204D01*
G37*
D18*
X145222500Y-132230000D03*
D10*
G36*
X142734504Y-131356204D02*
G01*
X142758773Y-131359804D01*
X142782571Y-131365765D01*
X142805671Y-131374030D01*
X142827849Y-131384520D01*
X142848893Y-131397133D01*
X142868598Y-131411747D01*
X142886777Y-131428223D01*
X142903253Y-131446402D01*
X142917867Y-131466107D01*
X142930480Y-131487151D01*
X142940970Y-131509329D01*
X142949235Y-131532429D01*
X142955196Y-131556227D01*
X142958796Y-131580496D01*
X142960000Y-131605000D01*
X142960000Y-132855000D01*
X142958796Y-132879504D01*
X142955196Y-132903773D01*
X142949235Y-132927571D01*
X142940970Y-132950671D01*
X142930480Y-132972849D01*
X142917867Y-132993893D01*
X142903253Y-133013598D01*
X142886777Y-133031777D01*
X142868598Y-133048253D01*
X142848893Y-133062867D01*
X142827849Y-133075480D01*
X142805671Y-133085970D01*
X142782571Y-133094235D01*
X142758773Y-133100196D01*
X142734504Y-133103796D01*
X142710000Y-133105000D01*
X141785000Y-133105000D01*
X141760496Y-133103796D01*
X141736227Y-133100196D01*
X141712429Y-133094235D01*
X141689329Y-133085970D01*
X141667151Y-133075480D01*
X141646107Y-133062867D01*
X141626402Y-133048253D01*
X141608223Y-133031777D01*
X141591747Y-133013598D01*
X141577133Y-132993893D01*
X141564520Y-132972849D01*
X141554030Y-132950671D01*
X141545765Y-132927571D01*
X141539804Y-132903773D01*
X141536204Y-132879504D01*
X141535000Y-132855000D01*
X141535000Y-131605000D01*
X141536204Y-131580496D01*
X141539804Y-131556227D01*
X141545765Y-131532429D01*
X141554030Y-131509329D01*
X141564520Y-131487151D01*
X141577133Y-131466107D01*
X141591747Y-131446402D01*
X141608223Y-131428223D01*
X141626402Y-131411747D01*
X141646107Y-131397133D01*
X141667151Y-131384520D01*
X141689329Y-131374030D01*
X141712429Y-131365765D01*
X141736227Y-131359804D01*
X141760496Y-131356204D01*
X141785000Y-131355000D01*
X142710000Y-131355000D01*
X142734504Y-131356204D01*
X142734504Y-131356204D01*
G37*
D18*
X142247500Y-132230000D03*
D10*
G36*
X148439504Y-126411204D02*
G01*
X148463773Y-126414804D01*
X148487571Y-126420765D01*
X148510671Y-126429030D01*
X148532849Y-126439520D01*
X148553893Y-126452133D01*
X148573598Y-126466747D01*
X148591777Y-126483223D01*
X148608253Y-126501402D01*
X148622867Y-126521107D01*
X148635480Y-126542151D01*
X148645970Y-126564329D01*
X148654235Y-126587429D01*
X148660196Y-126611227D01*
X148663796Y-126635496D01*
X148665000Y-126660000D01*
X148665000Y-127585000D01*
X148663796Y-127609504D01*
X148660196Y-127633773D01*
X148654235Y-127657571D01*
X148645970Y-127680671D01*
X148635480Y-127702849D01*
X148622867Y-127723893D01*
X148608253Y-127743598D01*
X148591777Y-127761777D01*
X148573598Y-127778253D01*
X148553893Y-127792867D01*
X148532849Y-127805480D01*
X148510671Y-127815970D01*
X148487571Y-127824235D01*
X148463773Y-127830196D01*
X148439504Y-127833796D01*
X148415000Y-127835000D01*
X147165000Y-127835000D01*
X147140496Y-127833796D01*
X147116227Y-127830196D01*
X147092429Y-127824235D01*
X147069329Y-127815970D01*
X147047151Y-127805480D01*
X147026107Y-127792867D01*
X147006402Y-127778253D01*
X146988223Y-127761777D01*
X146971747Y-127743598D01*
X146957133Y-127723893D01*
X146944520Y-127702849D01*
X146934030Y-127680671D01*
X146925765Y-127657571D01*
X146919804Y-127633773D01*
X146916204Y-127609504D01*
X146915000Y-127585000D01*
X146915000Y-126660000D01*
X146916204Y-126635496D01*
X146919804Y-126611227D01*
X146925765Y-126587429D01*
X146934030Y-126564329D01*
X146944520Y-126542151D01*
X146957133Y-126521107D01*
X146971747Y-126501402D01*
X146988223Y-126483223D01*
X147006402Y-126466747D01*
X147026107Y-126452133D01*
X147047151Y-126439520D01*
X147069329Y-126429030D01*
X147092429Y-126420765D01*
X147116227Y-126414804D01*
X147140496Y-126411204D01*
X147165000Y-126410000D01*
X148415000Y-126410000D01*
X148439504Y-126411204D01*
X148439504Y-126411204D01*
G37*
D18*
X147790000Y-127122500D03*
D10*
G36*
X148439504Y-123436204D02*
G01*
X148463773Y-123439804D01*
X148487571Y-123445765D01*
X148510671Y-123454030D01*
X148532849Y-123464520D01*
X148553893Y-123477133D01*
X148573598Y-123491747D01*
X148591777Y-123508223D01*
X148608253Y-123526402D01*
X148622867Y-123546107D01*
X148635480Y-123567151D01*
X148645970Y-123589329D01*
X148654235Y-123612429D01*
X148660196Y-123636227D01*
X148663796Y-123660496D01*
X148665000Y-123685000D01*
X148665000Y-124610000D01*
X148663796Y-124634504D01*
X148660196Y-124658773D01*
X148654235Y-124682571D01*
X148645970Y-124705671D01*
X148635480Y-124727849D01*
X148622867Y-124748893D01*
X148608253Y-124768598D01*
X148591777Y-124786777D01*
X148573598Y-124803253D01*
X148553893Y-124817867D01*
X148532849Y-124830480D01*
X148510671Y-124840970D01*
X148487571Y-124849235D01*
X148463773Y-124855196D01*
X148439504Y-124858796D01*
X148415000Y-124860000D01*
X147165000Y-124860000D01*
X147140496Y-124858796D01*
X147116227Y-124855196D01*
X147092429Y-124849235D01*
X147069329Y-124840970D01*
X147047151Y-124830480D01*
X147026107Y-124817867D01*
X147006402Y-124803253D01*
X146988223Y-124786777D01*
X146971747Y-124768598D01*
X146957133Y-124748893D01*
X146944520Y-124727849D01*
X146934030Y-124705671D01*
X146925765Y-124682571D01*
X146919804Y-124658773D01*
X146916204Y-124634504D01*
X146915000Y-124610000D01*
X146915000Y-123685000D01*
X146916204Y-123660496D01*
X146919804Y-123636227D01*
X146925765Y-123612429D01*
X146934030Y-123589329D01*
X146944520Y-123567151D01*
X146957133Y-123546107D01*
X146971747Y-123526402D01*
X146988223Y-123508223D01*
X147006402Y-123491747D01*
X147026107Y-123477133D01*
X147047151Y-123464520D01*
X147069329Y-123454030D01*
X147092429Y-123445765D01*
X147116227Y-123439804D01*
X147140496Y-123436204D01*
X147165000Y-123435000D01*
X148415000Y-123435000D01*
X148439504Y-123436204D01*
X148439504Y-123436204D01*
G37*
D18*
X147790000Y-124147500D03*
D27*
X130530000Y-109135000D03*
D28*
X121380000Y-111675000D03*
X121380000Y-109135000D03*
X121380000Y-106595000D03*
D21*
X117350000Y-63650000D03*
D12*
X119850000Y-63650000D03*
D21*
X114810000Y-94130000D03*
D12*
X117310000Y-94130000D03*
D21*
X143970000Y-139850000D03*
D12*
X140170000Y-139850000D03*
D23*
X178600000Y-49380000D03*
X178600000Y-51920000D03*
X176060000Y-49380000D03*
X176060000Y-51920000D03*
X173520000Y-49380000D03*
X173520000Y-51920000D03*
X170980000Y-49380000D03*
X170980000Y-51920000D03*
X168440000Y-49380000D03*
X168440000Y-51920000D03*
X165900000Y-49380000D03*
X165900000Y-51920000D03*
X163360000Y-49380000D03*
X163360000Y-51920000D03*
X160820000Y-49380000D03*
X160820000Y-51920000D03*
X158280000Y-49380000D03*
X158280000Y-51920000D03*
X155740000Y-49380000D03*
D24*
X155740000Y-51920000D03*
D23*
X178600000Y-54460000D03*
X178600000Y-57000000D03*
X176060000Y-54460000D03*
X176060000Y-57000000D03*
X173520000Y-54460000D03*
X173520000Y-57000000D03*
X170980000Y-54460000D03*
X170980000Y-57000000D03*
X168440000Y-54460000D03*
X168440000Y-57000000D03*
X165900000Y-54460000D03*
X165900000Y-57000000D03*
X163360000Y-54460000D03*
X163360000Y-57000000D03*
X160820000Y-54460000D03*
X160820000Y-57000000D03*
X158280000Y-54460000D03*
X158280000Y-57000000D03*
X155740000Y-54460000D03*
D24*
X155740000Y-57000000D03*
D23*
X178600000Y-59540000D03*
X178600000Y-62080000D03*
X176060000Y-59540000D03*
X176060000Y-62080000D03*
X173520000Y-59540000D03*
X173520000Y-62080000D03*
X170980000Y-59540000D03*
X170980000Y-62080000D03*
X168440000Y-59540000D03*
X168440000Y-62080000D03*
X165900000Y-59540000D03*
X165900000Y-62080000D03*
X163360000Y-59540000D03*
X163360000Y-62080000D03*
X160820000Y-59540000D03*
X160820000Y-62080000D03*
X158280000Y-59540000D03*
X158280000Y-62080000D03*
X155740000Y-59540000D03*
D24*
X155740000Y-62080000D03*
D25*
X126200000Y-87780000D03*
D26*
X130010000Y-87780000D03*
D19*
X107150000Y-122070000D03*
D20*
X102070000Y-122070000D03*
D29*
X108420000Y-128420000D03*
D30*
X100800000Y-128420000D03*
D23*
X211290000Y-96670000D03*
X208750000Y-96670000D03*
D24*
X206210000Y-96670000D03*
D23*
X211290000Y-90320000D03*
X208750000Y-90320000D03*
D24*
X206210000Y-90320000D03*
D23*
X163030000Y-137310000D03*
X163030000Y-139850000D03*
X160490000Y-137310000D03*
X160490000Y-139850000D03*
X157950000Y-137310000D03*
X157950000Y-139850000D03*
X155410000Y-137310000D03*
X155410000Y-139850000D03*
X152870000Y-137310000D03*
D24*
X152870000Y-139850000D03*
D25*
X130010000Y-94130000D03*
D26*
X126200000Y-94130000D03*
D25*
X130010000Y-141120000D03*
D26*
X126200000Y-141120000D03*
D29*
X108420000Y-136040000D03*
D30*
X100800000Y-136040000D03*
D23*
X198590000Y-137310000D03*
X198590000Y-139850000D03*
X196050000Y-137310000D03*
X196050000Y-139850000D03*
X193510000Y-137310000D03*
D24*
X193510000Y-139850000D03*
D23*
X180810000Y-137310000D03*
X180810000Y-139850000D03*
X178270000Y-137310000D03*
X178270000Y-139850000D03*
X175730000Y-137310000D03*
D24*
X175730000Y-139850000D03*
D23*
X192240000Y-119530000D03*
X189700000Y-119530000D03*
X187160000Y-119530000D03*
X184620000Y-119530000D03*
X182080000Y-119530000D03*
X179540000Y-119530000D03*
X177000000Y-119530000D03*
X174460000Y-119530000D03*
X171920000Y-119530000D03*
X169380000Y-119530000D03*
X166840000Y-119530000D03*
X164300000Y-119530000D03*
X161760000Y-119530000D03*
X159220000Y-119530000D03*
X156680000Y-119530000D03*
X154140000Y-119530000D03*
X151600000Y-119530000D03*
X149060000Y-119530000D03*
X146520000Y-119530000D03*
D24*
X143980000Y-119530000D03*
D23*
X192240000Y-91590000D03*
X189700000Y-91590000D03*
X187160000Y-91590000D03*
X184620000Y-91590000D03*
X182080000Y-91590000D03*
X179540000Y-91590000D03*
X177000000Y-91590000D03*
X174460000Y-91590000D03*
X171920000Y-91590000D03*
X169380000Y-91590000D03*
X166840000Y-91590000D03*
X164300000Y-91590000D03*
X161760000Y-91590000D03*
X159220000Y-91590000D03*
X156680000Y-91590000D03*
X154140000Y-91590000D03*
X151600000Y-91590000D03*
X149060000Y-91590000D03*
X146520000Y-91590000D03*
D24*
X143980000Y-91590000D03*
D23*
X143256000Y-67056000D03*
X145796000Y-67056000D03*
X148336000Y-67056000D03*
X150876000Y-67056000D03*
X153416000Y-67056000D03*
X155956000Y-67056000D03*
X158496000Y-67056000D03*
X161036000Y-67056000D03*
X163576000Y-67056000D03*
X166116000Y-67056000D03*
X168656000Y-67056000D03*
X171196000Y-67056000D03*
X173736000Y-67056000D03*
X176276000Y-67056000D03*
X178816000Y-67056000D03*
X181356000Y-67056000D03*
X183896000Y-67056000D03*
X186436000Y-67056000D03*
X188976000Y-67056000D03*
D24*
X191516000Y-67056000D03*
D23*
X143256000Y-80264000D03*
X145796000Y-80264000D03*
X148336000Y-80264000D03*
X150876000Y-80264000D03*
X153416000Y-80264000D03*
X155956000Y-80264000D03*
X158496000Y-80264000D03*
X161036000Y-80264000D03*
X163576000Y-80264000D03*
X166116000Y-80264000D03*
X168656000Y-80264000D03*
X171196000Y-80264000D03*
X173736000Y-80264000D03*
X176276000Y-80264000D03*
X178816000Y-80264000D03*
X181356000Y-80264000D03*
X183896000Y-80264000D03*
X186436000Y-80264000D03*
X188976000Y-80264000D03*
D24*
X191516000Y-80264000D03*
D31*
X81280000Y-128524000D03*
X75692000Y-128524000D03*
X70612000Y-92964000D03*
X132715000Y-73025000D03*
X121285000Y-104775000D03*
X118872000Y-106680000D03*
X123952000Y-106680000D03*
X146520000Y-94780000D03*
X93472000Y-93545000D03*
X86360000Y-86360000D03*
X114300000Y-73660008D03*
X65024000Y-93472000D03*
X86868000Y-109220000D03*
X73025000Y-109393000D03*
X78232000Y-112268000D03*
X79248000Y-112268000D03*
X80264000Y-112268000D03*
X81280000Y-112268000D03*
X74168000Y-112268000D03*
X75184000Y-112268000D03*
X76200000Y-112268000D03*
X77216000Y-112268000D03*
X72136000Y-96520000D03*
X91440000Y-97536000D03*
X79248000Y-116840000D03*
X80772000Y-116840000D03*
X79248000Y-115824000D03*
X80772000Y-115824000D03*
X65786000Y-115570000D03*
X68072000Y-117348000D03*
X67056000Y-117348000D03*
X68072000Y-115824000D03*
X155575000Y-95250000D03*
X99060000Y-106172000D03*
X101092000Y-106172000D03*
X154305000Y-104140000D03*
X180810000Y-108100000D03*
X78740000Y-103632000D03*
X78740000Y-101092000D03*
X96012000Y-96520000D03*
X72136000Y-89708000D03*
X91186000Y-102870000D03*
X75692597Y-101415641D03*
D32*
X117350000Y-73552500D02*
X117092500Y-73810000D01*
X143970000Y-139850000D02*
X145265000Y-139850000D01*
X145222500Y-139807500D02*
X145222500Y-132230000D01*
X145265000Y-139850000D02*
X145222500Y-139807500D01*
X145222500Y-128365000D02*
X143980000Y-127122500D01*
X145222500Y-132230000D02*
X145222500Y-128365000D01*
X145222500Y-129690000D02*
X147790000Y-127122500D01*
X145222500Y-132230000D02*
X145222500Y-129690000D01*
X175730000Y-137310000D02*
X179055000Y-133985000D01*
X190185000Y-133985000D02*
X193510000Y-137310000D01*
X179055000Y-133985000D02*
X190185000Y-133985000D01*
X117350000Y-56607500D02*
X116622500Y-55880000D01*
D33*
X117350000Y-63650000D02*
X117350000Y-56607500D01*
D34*
X146520000Y-91590000D02*
X146520000Y-94780000D01*
X146520000Y-94780000D02*
X146520000Y-99210000D01*
D32*
X132715000Y-73025000D02*
X132715000Y-75982500D01*
D34*
X119888000Y-103378000D02*
X121285000Y-104775000D01*
X119888000Y-102108000D02*
X119888000Y-103378000D01*
X121285000Y-106500000D02*
X121380000Y-106595000D01*
X121285000Y-104775000D02*
X121285000Y-106500000D01*
D32*
X186436000Y-74676000D02*
X186436000Y-80264000D01*
X176276000Y-74676000D02*
X176276000Y-80264000D01*
X168656000Y-74676000D02*
X168656000Y-80264000D01*
X155956000Y-74676000D02*
X155956000Y-80264000D01*
X150876000Y-75878081D02*
X150876000Y-80264000D01*
X150876000Y-74676000D02*
X150876000Y-75878081D01*
D34*
X146520000Y-94780000D02*
X146520000Y-94780000D01*
X107315000Y-76835000D02*
X107315000Y-77089000D01*
D35*
X107315000Y-77089000D02*
X107315000Y-79375000D01*
D32*
X59436000Y-93468000D02*
X70063500Y-93468000D01*
X70063500Y-93468000D02*
X70104000Y-93508500D01*
D35*
X77724000Y-94020000D02*
X86360000Y-94020000D01*
X92997000Y-94020000D02*
X93472000Y-93545000D01*
X86360000Y-94020000D02*
X92997000Y-94020000D01*
X93472000Y-93545000D02*
X93472000Y-93545000D01*
X86360000Y-94020000D02*
X86360000Y-86360000D01*
D32*
X114449992Y-73810000D02*
X114300000Y-73660008D01*
X117092500Y-73810000D02*
X114449992Y-73810000D01*
D35*
X103124000Y-91644002D02*
X103124000Y-81280000D01*
X114810000Y-94130000D02*
X105609998Y-94130000D01*
X105609998Y-94130000D02*
X103124000Y-91644002D01*
D32*
X106056630Y-79248000D02*
X107188000Y-79248000D01*
D35*
X104648000Y-79248000D02*
X106056630Y-79248000D01*
X103124000Y-80772000D02*
X104648000Y-79248000D01*
D32*
X103124000Y-81280000D02*
X103124000Y-80772000D01*
X71500000Y-112268000D02*
X71120000Y-112268000D01*
X73025000Y-110743000D02*
X71500000Y-112268000D01*
X73025000Y-109393000D02*
X73025000Y-109393000D01*
X84963000Y-111975000D02*
X84963000Y-112095000D01*
X86868000Y-110070000D02*
X84963000Y-111975000D01*
X86868000Y-109220000D02*
X86868000Y-109220000D01*
X84659000Y-112095000D02*
X84963000Y-112095000D01*
X84486000Y-112268000D02*
X84659000Y-112095000D01*
D35*
X71120000Y-112268000D02*
X74168000Y-112268000D01*
D32*
X58928000Y-93468000D02*
X65020000Y-93468000D01*
X65020000Y-93468000D02*
X65024000Y-93472000D01*
X86868000Y-109220000D02*
X86868000Y-110070000D01*
X73025000Y-109393000D02*
X73025000Y-110743000D01*
D35*
X78232000Y-112268000D02*
X79248000Y-112268000D01*
X79248000Y-112268000D02*
X80264000Y-112268000D01*
X80264000Y-112268000D02*
X81280000Y-112268000D01*
X81280000Y-112268000D02*
X84486000Y-112268000D01*
X74168000Y-112268000D02*
X75184000Y-112268000D01*
X75184000Y-112268000D02*
X76200000Y-112268000D01*
X76200000Y-112268000D02*
X77216000Y-112268000D01*
X77216000Y-112268000D02*
X78232000Y-112268000D01*
D34*
X117310000Y-96670000D02*
X117310000Y-94130000D01*
X119850000Y-99210000D02*
X117310000Y-96670000D01*
X126200000Y-99210000D02*
X123660000Y-99210000D01*
X123660000Y-99210000D02*
X119850000Y-99210000D01*
D35*
X149060000Y-91590000D02*
X149060000Y-99210000D01*
D36*
X126200000Y-85472500D02*
X132715000Y-78957500D01*
D34*
X126200000Y-87780000D02*
X126200000Y-85472500D01*
D36*
X132715000Y-78957500D02*
X132715000Y-79883000D01*
X132715000Y-79883000D02*
X136906000Y-84074000D01*
X136906000Y-84074000D02*
X140716000Y-87884000D01*
D35*
X191516000Y-74676000D02*
X188976000Y-74676000D01*
X188976000Y-74676000D02*
X188976000Y-80264000D01*
X188976000Y-80264000D02*
X191516000Y-80264000D01*
X140716000Y-87884000D02*
X148336000Y-87884000D01*
X149060000Y-88608000D02*
X149060000Y-91590000D01*
X148336000Y-87884000D02*
X149060000Y-88608000D01*
D32*
X143980000Y-90490000D02*
X143980000Y-91590000D01*
D33*
X119850000Y-55395000D02*
X119850000Y-63650000D01*
X119850000Y-63650000D02*
X119850000Y-69365000D01*
X120067500Y-69582500D02*
X120067500Y-73810000D01*
X119850000Y-69365000D02*
X120067500Y-69582500D01*
X119850000Y-63650000D02*
X121150000Y-63650000D01*
X142630000Y-91590000D02*
X143980000Y-91590000D01*
X138140129Y-96079871D02*
X142630000Y-91590000D01*
X124340129Y-96079871D02*
X138140129Y-96079871D01*
X120838847Y-74581347D02*
X120838847Y-92578589D01*
X120067500Y-73810000D02*
X120838847Y-74581347D01*
D35*
X143980000Y-91590000D02*
X143980000Y-99210000D01*
D32*
X143980000Y-99210000D02*
X143980000Y-101750000D01*
X143980000Y-101750000D02*
X145250000Y-103020000D01*
X145250000Y-103020000D02*
X147790000Y-103020000D01*
D33*
X112715258Y-84455000D02*
X121127629Y-92867371D01*
X107315000Y-84455000D02*
X112715258Y-84455000D01*
X120838847Y-92578589D02*
X121127629Y-92867371D01*
X121127629Y-92867371D02*
X124340129Y-96079871D01*
X187160000Y-116675000D02*
X187160000Y-114450000D01*
X187325000Y-116840000D02*
X187160000Y-116675000D01*
X187160000Y-114450000D02*
X187160000Y-119530000D01*
X120368847Y-56651347D02*
X143500653Y-56651347D01*
X119597500Y-55880000D02*
X120368847Y-56651347D01*
X150772000Y-49380000D02*
X178600000Y-49380000D01*
X143500653Y-56651347D02*
X150772000Y-49380000D01*
D32*
X149974989Y-136153991D02*
X152305999Y-138485001D01*
X161665001Y-137874001D02*
X161054001Y-138485001D01*
X161665001Y-136935997D02*
X161665001Y-137874001D01*
X166840000Y-119530000D02*
X166840000Y-131760998D01*
X166840000Y-131760998D02*
X161665001Y-136935997D01*
X147790000Y-124147500D02*
X149547500Y-124147500D01*
X149974989Y-124574989D02*
X149974989Y-127749989D01*
X149547500Y-124147500D02*
X149974989Y-124574989D01*
X149974989Y-127144989D02*
X149974989Y-127749989D01*
X149974989Y-127749989D02*
X149974989Y-136153991D01*
X140170000Y-124147500D02*
X147790000Y-124147500D01*
X152305999Y-138485001D02*
X161054001Y-138485001D01*
X124450130Y-141120000D02*
X126200000Y-141120000D01*
D36*
X102070000Y-134770000D02*
X100800000Y-136040000D01*
X102070000Y-122070000D02*
X102070000Y-134770000D01*
X105880000Y-141120000D02*
X126200000Y-141120000D01*
X100800000Y-136040000D02*
X105880000Y-141120000D01*
X102070000Y-117319940D02*
X107479940Y-111910000D01*
X102070000Y-122070000D02*
X102070000Y-117319940D01*
X107479940Y-111910000D02*
X121120000Y-111910000D01*
X140170000Y-134307500D02*
X140170000Y-139850000D01*
X142247500Y-132230000D02*
X140170000Y-134307500D01*
X126200000Y-136620130D02*
X126200000Y-141120000D01*
X129320130Y-133500000D02*
X126200000Y-136620130D01*
X140170000Y-133500000D02*
X129320130Y-133500000D01*
D33*
X142247500Y-132230000D02*
X142247500Y-129262510D01*
X142247500Y-129262510D02*
X140170000Y-127185010D01*
D36*
X94800260Y-128420000D02*
X90124260Y-133096000D01*
X100800000Y-128420000D02*
X94800260Y-128420000D01*
X65024000Y-133096000D02*
X63500000Y-131572000D01*
X63500000Y-131572000D02*
X63500000Y-117856000D01*
X63500000Y-117856000D02*
X65786000Y-115570000D01*
D35*
X78740000Y-133096000D02*
X78537939Y-132893939D01*
D36*
X90124260Y-133096000D02*
X78740000Y-133096000D01*
X78740000Y-133096000D02*
X65024000Y-133096000D01*
D37*
X92456000Y-96520000D02*
X91440000Y-97536000D01*
X93472000Y-96520000D02*
X92456000Y-96520000D01*
D35*
X70104000Y-96483500D02*
X72099500Y-96483500D01*
D36*
X66040000Y-100547500D02*
X70104000Y-96483500D01*
X66040000Y-115316000D02*
X66040000Y-100547500D01*
X65786000Y-115570000D02*
X66040000Y-115316000D01*
D32*
X187160000Y-91590000D02*
X187160000Y-99210000D01*
X156680000Y-114450000D02*
X156680000Y-119530000D01*
X155575000Y-113345000D02*
X156680000Y-114450000D01*
X155575000Y-96520000D02*
X155575000Y-113345000D01*
X155575000Y-96520000D02*
X155575000Y-95250000D01*
X164300000Y-119530000D02*
X164300000Y-114450000D01*
X99060000Y-74930000D02*
X107315000Y-66675000D01*
X99060000Y-106172000D02*
X99060000Y-74930000D01*
X161760000Y-119530000D02*
X161760000Y-114450000D01*
X101092000Y-75438000D02*
X107315000Y-69215000D01*
X101092000Y-106172000D02*
X101092000Y-75438000D01*
X189700000Y-91590000D02*
X189700000Y-99210000D01*
X184620000Y-99210000D02*
X184620000Y-91590000D01*
X154140000Y-119530000D02*
X154140000Y-114450000D01*
X154140000Y-104305000D02*
X154305000Y-104140000D01*
X154140000Y-114450000D02*
X154140000Y-104305000D01*
X74168000Y-79248000D02*
X59055000Y-64135000D01*
X159220000Y-99210000D02*
X159220000Y-91590000D01*
X156680000Y-99210000D02*
X156680000Y-91590000D01*
X171920000Y-114450000D02*
X171920000Y-119530000D01*
X171920000Y-120732081D02*
X171920000Y-119530000D01*
X184620000Y-114450000D02*
X184620000Y-119530000D01*
X166840000Y-137310000D02*
X163030000Y-137310000D01*
X184620000Y-119530000D02*
X166840000Y-137310000D01*
X178816000Y-75878081D02*
X178816000Y-80264000D01*
X178816000Y-74676000D02*
X178816000Y-75878081D01*
X180410001Y-107700001D02*
X180810000Y-108100000D01*
X173228000Y-100518000D02*
X180410001Y-107700001D01*
X173228000Y-85852000D02*
X173228000Y-100518000D01*
X178816000Y-80264000D02*
X173228000Y-85852000D01*
X186436000Y-67056000D02*
X186436000Y-72136000D01*
X206210000Y-90320000D02*
X206210000Y-96670000D01*
X159220000Y-114450000D02*
X159220000Y-119530000D01*
X173736000Y-74676000D02*
X173736000Y-80264000D01*
X159220000Y-113372370D02*
X162560000Y-110032370D01*
X159220000Y-114450000D02*
X159220000Y-113372370D01*
X205110000Y-96670000D02*
X206210000Y-96670000D01*
X191747630Y-110032370D02*
X205110000Y-96670000D01*
X162560000Y-110032370D02*
X191747630Y-110032370D01*
D35*
X130010000Y-87780000D02*
X130010000Y-94130000D01*
D32*
X166840000Y-99210000D02*
X166840000Y-91590000D01*
X157950000Y-108100000D02*
X166840000Y-99210000D01*
X157950000Y-137310000D02*
X157950000Y-108100000D01*
X155410000Y-136107919D02*
X155410000Y-137310000D01*
X152775001Y-113085001D02*
X152775001Y-131820001D01*
X147790000Y-108100000D02*
X152775001Y-113085001D01*
X155410000Y-134455000D02*
X155410000Y-137310000D01*
X152775001Y-131820001D02*
X155410000Y-134455000D01*
X152020001Y-136460001D02*
X152870000Y-137310000D01*
X150424999Y-134864999D02*
X152020001Y-136460001D01*
X150424999Y-111666237D02*
X150424999Y-134864999D01*
X147945763Y-109187001D02*
X150424999Y-111666237D01*
X147268239Y-109187001D02*
X147945763Y-109187001D01*
X146702999Y-108621761D02*
X147268239Y-109187001D01*
X146702999Y-106647001D02*
X146702999Y-108621761D01*
X147790000Y-105560000D02*
X146702999Y-106647001D01*
X145796000Y-68258081D02*
X145796000Y-72136000D01*
X145796000Y-67056000D02*
X145796000Y-68258081D01*
X148336000Y-67056000D02*
X148336000Y-72136000D01*
X150876000Y-67056000D02*
X150876000Y-72136000D01*
X153416000Y-67056000D02*
X153416000Y-72136000D01*
X155956000Y-67056000D02*
X155956000Y-72136000D01*
X158496000Y-67056000D02*
X158496000Y-72136000D01*
X163576000Y-67056000D02*
X163576000Y-72136000D01*
X166116000Y-67056000D02*
X166116000Y-72136000D01*
X168656000Y-67056000D02*
X168656000Y-72136000D01*
X171196000Y-67056000D02*
X171196000Y-72136000D01*
X191516000Y-68156000D02*
X191516000Y-72136000D01*
X191516000Y-67056000D02*
X191516000Y-68156000D01*
X171196000Y-67056000D02*
X173228000Y-65024000D01*
X191516000Y-65956000D02*
X191516000Y-67056000D01*
X190584000Y-65024000D02*
X191516000Y-65956000D01*
X173228000Y-65024000D02*
X190584000Y-65024000D01*
X173736000Y-67056000D02*
X173736000Y-72136000D01*
X176276000Y-67056000D02*
X176276000Y-72136000D01*
X178816000Y-68258081D02*
X178816000Y-72136000D01*
X178816000Y-67056000D02*
X178816000Y-68258081D01*
X183896000Y-67056000D02*
X183896000Y-72136000D01*
X188976000Y-67056000D02*
X188976000Y-72136000D01*
X182080000Y-114450000D02*
X182080000Y-119530000D01*
X179540000Y-114450000D02*
X179540000Y-119530000D01*
X177000000Y-114450000D02*
X177000000Y-119530000D01*
X174460000Y-114450000D02*
X174460000Y-119530000D01*
X151600000Y-114450000D02*
X151600000Y-119530000D01*
X149060000Y-114450000D02*
X149060000Y-119530000D01*
X146520000Y-114450000D02*
X146520000Y-119530000D01*
X143980000Y-114450000D02*
X143980000Y-119530000D01*
X143256000Y-75878081D02*
X143256000Y-80264000D01*
X143256000Y-74676000D02*
X143256000Y-75878081D01*
X161036000Y-74676000D02*
X161036000Y-80264000D01*
X166116000Y-75878081D02*
X166116000Y-80264000D01*
X166116000Y-74676000D02*
X166116000Y-75878081D01*
X153416000Y-74676000D02*
X153416000Y-80264000D01*
X171196000Y-75878081D02*
X171196000Y-80264000D01*
X171196000Y-74676000D02*
X171196000Y-75878081D01*
X148336000Y-74676000D02*
X148336000Y-80264000D01*
X145796000Y-74676000D02*
X145796000Y-80264000D01*
X158496000Y-74676000D02*
X158496000Y-80264000D01*
X163576000Y-74676000D02*
X163576000Y-80264000D01*
X182080000Y-99210000D02*
X182080000Y-91590000D01*
X174460000Y-99210000D02*
X174460000Y-91590000D01*
X171920000Y-99210000D02*
X171920000Y-91590000D01*
X169380000Y-99210000D02*
X169380000Y-91590000D01*
X164300000Y-99210000D02*
X164300000Y-91590000D01*
X161760000Y-99210000D02*
X161760000Y-91590000D01*
X154140000Y-99210000D02*
X154140000Y-91590000D01*
X151600000Y-99210000D02*
X151600000Y-91590000D01*
X183896000Y-74676000D02*
X183896000Y-80264000D01*
X183896000Y-81466081D02*
X183896000Y-80264000D01*
X185221010Y-81589010D02*
X196794990Y-81589010D01*
X183896000Y-80264000D02*
X185221010Y-81589010D01*
X197612000Y-80772000D02*
X207772000Y-80772000D01*
X196794990Y-81589010D02*
X197612000Y-80772000D01*
X181356000Y-74676000D02*
X181356000Y-80264000D01*
X209462001Y-81621999D02*
X210312000Y-80772000D01*
X209044980Y-82039020D02*
X209462001Y-81621999D01*
X183131020Y-82039020D02*
X209044980Y-82039020D01*
X181356000Y-80264000D02*
X183131020Y-82039020D01*
X179540000Y-99210000D02*
X179540000Y-91590000D01*
X209462001Y-84161999D02*
X210312000Y-83312000D01*
X209136999Y-84487001D02*
X209462001Y-84161999D01*
X186642999Y-84487001D02*
X209136999Y-84487001D01*
X179540000Y-91590000D02*
X186642999Y-84487001D01*
X177000000Y-99210000D02*
X177000000Y-91590000D01*
X185278000Y-83312000D02*
X207772000Y-83312000D01*
X177000000Y-91590000D02*
X185278000Y-83312000D01*
D37*
X130010000Y-101115000D02*
X130010000Y-99210000D01*
X130530000Y-99730000D02*
X130010000Y-99210000D01*
X130530000Y-109135000D02*
X130530000Y-99730000D01*
X130530000Y-109135000D02*
X121380000Y-109135000D01*
D32*
X78740000Y-103632000D02*
X78740000Y-104648000D01*
X77440000Y-107236364D02*
X77440000Y-107696000D01*
X78740000Y-105936364D02*
X77440000Y-107236364D01*
X78740000Y-104648000D02*
X78740000Y-105936364D01*
X78740000Y-101092000D02*
X78740000Y-103632000D01*
X91664000Y-107236364D02*
X91664000Y-107696000D01*
X92964000Y-105936364D02*
X91664000Y-107236364D01*
X92964000Y-104648000D02*
X92964000Y-105936364D01*
X92964000Y-104648000D02*
X93488774Y-104123226D01*
X93488774Y-104123226D02*
X96012000Y-101600000D01*
X96012000Y-101600000D02*
X96012000Y-96520000D01*
X63907000Y-85975000D02*
X64008000Y-86076000D01*
X59055000Y-85975000D02*
X63907000Y-85975000D01*
X67580000Y-87152000D02*
X68580000Y-87152000D01*
X65931592Y-87152000D02*
X67580000Y-87152000D01*
X64855592Y-86076000D02*
X65931592Y-87152000D01*
X64008000Y-86076000D02*
X64855592Y-86076000D01*
X69580000Y-87152000D02*
X72136000Y-89708000D01*
X68580000Y-87152000D02*
X69580000Y-87152000D01*
X76140000Y-107160998D02*
X76140000Y-107696000D01*
X77440000Y-105860998D02*
X76140000Y-107160998D01*
X77440000Y-104648000D02*
X77440000Y-105860998D01*
X72136000Y-89708000D02*
X74261010Y-91833010D01*
X74261010Y-91833010D02*
X74261010Y-101009374D01*
X77440000Y-104188364D02*
X77440000Y-104648000D01*
X74261010Y-101009374D02*
X77440000Y-104188364D01*
X91664000Y-105860998D02*
X91352998Y-106172000D01*
X91664000Y-104648000D02*
X91664000Y-105860998D01*
X90364000Y-106848408D02*
X90364000Y-107696000D01*
X91040408Y-106172000D02*
X90364000Y-106848408D01*
X91352998Y-106172000D02*
X91040408Y-106172000D01*
X91664000Y-103348000D02*
X91186000Y-102870000D01*
X91664000Y-104648000D02*
X91664000Y-103348000D01*
X75692597Y-100849956D02*
X75692597Y-101415641D01*
X74168000Y-79248000D02*
X75692597Y-80772597D01*
X75692597Y-80772597D02*
X75692597Y-100849956D01*
X92287592Y-109220000D02*
X89408000Y-109220000D01*
X86780000Y-107188000D02*
X85598000Y-108370000D01*
X85598000Y-108370000D02*
X85598000Y-109220000D01*
X87376000Y-107188000D02*
X86780000Y-107188000D01*
X92964000Y-108543592D02*
X92287592Y-109220000D01*
X92964000Y-107696000D02*
X92964000Y-108543592D01*
X89408000Y-109220000D02*
X87376000Y-107188000D01*
X71755000Y-109393000D02*
X71755000Y-108043000D01*
X71755000Y-108043000D02*
X72610000Y-107188000D01*
X72610000Y-107188000D02*
X73660000Y-107188000D01*
X73660000Y-107188000D02*
X76200000Y-109728000D01*
X76200000Y-109728000D02*
X77555592Y-109728000D01*
X78740000Y-108543592D02*
X78740000Y-107696000D01*
X77555592Y-109728000D02*
X78740000Y-108543592D01*
X84328000Y-108370000D02*
X84328000Y-109220000D01*
X88050000Y-104648000D02*
X84328000Y-108370000D01*
X90364000Y-104648000D02*
X88050000Y-104648000D01*
X70485000Y-109393000D02*
X70485000Y-108543000D01*
X76140000Y-104648000D02*
X73660000Y-104648000D01*
X70485000Y-107823000D02*
X70485000Y-109393000D01*
X73660000Y-104648000D02*
X70485000Y-107823000D01*
D37*
X86868000Y-114970000D02*
X86868000Y-123952000D01*
D34*
X84328000Y-114970000D02*
X84328000Y-117856000D01*
D37*
X81788000Y-120396000D02*
X81788000Y-123952000D01*
X84328000Y-117856000D02*
X81788000Y-120396000D01*
X73025000Y-122301000D02*
X74676000Y-123952000D01*
X73025000Y-115143000D02*
X73025000Y-122301000D01*
D34*
X70485000Y-115143000D02*
X70485000Y-118491000D01*
D37*
X69596000Y-119380000D02*
X69596000Y-123952000D01*
X70485000Y-118491000D02*
X69596000Y-119380000D01*
D32*
X85598000Y-114970000D02*
X85598000Y-119634000D01*
X84763000Y-120469000D02*
X84763000Y-128016000D01*
X85598000Y-119634000D02*
X84763000Y-120469000D01*
X71755000Y-127635000D02*
X72136000Y-128016000D01*
X71755000Y-115143000D02*
X71755000Y-127635000D01*
D38*
G36*
X68330000Y-114857250D02*
G01*
X68488750Y-115016000D01*
X68961000Y-115016000D01*
X68961000Y-115270000D01*
X68488750Y-115270000D01*
X68330000Y-115428750D01*
X68327084Y-116205000D01*
X67183000Y-116205000D01*
X67183000Y-114427000D01*
X68328384Y-114427000D01*
X68330000Y-114857250D01*
X68330000Y-114857250D01*
G37*
X68330000Y-114857250D02*
X68488750Y-115016000D01*
X68961000Y-115016000D01*
X68961000Y-115270000D01*
X68488750Y-115270000D01*
X68330000Y-115428750D01*
X68327084Y-116205000D01*
X67183000Y-116205000D01*
X67183000Y-114427000D01*
X68328384Y-114427000D01*
X68330000Y-114857250D01*
G36*
X68326968Y-116235854D02*
G01*
X68337834Y-116360466D01*
X68372801Y-116480563D01*
X68430526Y-116591530D01*
X68508791Y-116689104D01*
X68604587Y-116769534D01*
X68714234Y-116829730D01*
X68833518Y-116867378D01*
X68933250Y-116878000D01*
X69092000Y-116719250D01*
X69092000Y-115951000D01*
X69338000Y-115951000D01*
X69338000Y-116719250D01*
X69350000Y-116731250D01*
X69350001Y-117667314D01*
X69288315Y-117729000D01*
X65330606Y-117729000D01*
X67108606Y-115951000D01*
X68328038Y-115951000D01*
X68326968Y-116235854D01*
X68326968Y-116235854D01*
G37*
X68326968Y-116235854D02*
X68337834Y-116360466D01*
X68372801Y-116480563D01*
X68430526Y-116591530D01*
X68508791Y-116689104D01*
X68604587Y-116769534D01*
X68714234Y-116829730D01*
X68833518Y-116867378D01*
X68933250Y-116878000D01*
X69092000Y-116719250D01*
X69092000Y-115951000D01*
X69338000Y-115951000D01*
X69338000Y-116719250D01*
X69350000Y-116731250D01*
X69350001Y-117667314D01*
X69288315Y-117729000D01*
X65330606Y-117729000D01*
X67108606Y-115951000D01*
X68328038Y-115951000D01*
X68326968Y-116235854D01*
G36*
X76581000Y-122590323D02*
G01*
X76345651Y-122461954D01*
X74855605Y-123952000D01*
X74869748Y-123966143D01*
X74690143Y-124145748D01*
X74676000Y-124131605D01*
X74661858Y-124145748D01*
X74482253Y-123966143D01*
X74496395Y-123952000D01*
X74482253Y-123937858D01*
X74661858Y-123758253D01*
X74676000Y-123772395D01*
X76166046Y-122282349D01*
X75979961Y-121941185D01*
X75562616Y-121725432D01*
X75111198Y-121595245D01*
X74643056Y-121555626D01*
X74176179Y-121608099D01*
X73728511Y-121750646D01*
X73372039Y-121941185D01*
X73279000Y-122111761D01*
X73279000Y-116850250D01*
X73306750Y-116878000D01*
X73406482Y-116867378D01*
X73525766Y-116829730D01*
X73635413Y-116769534D01*
X73731209Y-116689104D01*
X73809474Y-116591530D01*
X73867199Y-116480563D01*
X73902166Y-116360466D01*
X73913032Y-116235854D01*
X73910000Y-115428750D01*
X73751250Y-115270000D01*
X73279000Y-115270000D01*
X73279000Y-115016000D01*
X73751250Y-115016000D01*
X73832250Y-114935000D01*
X76581000Y-114935000D01*
X76581000Y-122590323D01*
X76581000Y-122590323D01*
G37*
X76581000Y-122590323D02*
X76345651Y-122461954D01*
X74855605Y-123952000D01*
X74869748Y-123966143D01*
X74690143Y-124145748D01*
X74676000Y-124131605D01*
X74661858Y-124145748D01*
X74482253Y-123966143D01*
X74496395Y-123952000D01*
X74482253Y-123937858D01*
X74661858Y-123758253D01*
X74676000Y-123772395D01*
X76166046Y-122282349D01*
X75979961Y-121941185D01*
X75562616Y-121725432D01*
X75111198Y-121595245D01*
X74643056Y-121555626D01*
X74176179Y-121608099D01*
X73728511Y-121750646D01*
X73372039Y-121941185D01*
X73279000Y-122111761D01*
X73279000Y-116850250D01*
X73306750Y-116878000D01*
X73406482Y-116867378D01*
X73525766Y-116829730D01*
X73635413Y-116769534D01*
X73731209Y-116689104D01*
X73809474Y-116591530D01*
X73867199Y-116480563D01*
X73902166Y-116360466D01*
X73913032Y-116235854D01*
X73910000Y-115428750D01*
X73751250Y-115270000D01*
X73279000Y-115270000D01*
X73279000Y-115016000D01*
X73751250Y-115016000D01*
X73832250Y-114935000D01*
X76581000Y-114935000D01*
X76581000Y-122590323D01*
G36*
X70608000Y-115016000D02*
G01*
X70632000Y-115016000D01*
X70632000Y-115270000D01*
X70608000Y-115270000D01*
X70608000Y-116719250D01*
X70766750Y-116878000D01*
X70866482Y-116867378D01*
X70985766Y-116829730D01*
X70993000Y-116825758D01*
X70993000Y-121564608D01*
X70231000Y-121566207D01*
X70231000Y-116850250D01*
X70362000Y-116719250D01*
X70362000Y-115270000D01*
X70338000Y-115270000D01*
X70338000Y-115016000D01*
X70362000Y-115016000D01*
X70362000Y-114996000D01*
X70608000Y-114996000D01*
X70608000Y-115016000D01*
X70608000Y-115016000D01*
G37*
X70608000Y-115016000D02*
X70632000Y-115016000D01*
X70632000Y-115270000D01*
X70608000Y-115270000D01*
X70608000Y-116719250D01*
X70766750Y-116878000D01*
X70866482Y-116867378D01*
X70985766Y-116829730D01*
X70993000Y-116825758D01*
X70993000Y-121564608D01*
X70231000Y-121566207D01*
X70231000Y-116850250D01*
X70362000Y-116719250D01*
X70362000Y-115270000D01*
X70338000Y-115270000D01*
X70338000Y-115016000D01*
X70362000Y-115016000D01*
X70362000Y-114996000D01*
X70608000Y-114996000D01*
X70608000Y-115016000D01*
G36*
X78105000Y-122480606D02*
G01*
X78105000Y-126365000D01*
X72515000Y-126365000D01*
X72515000Y-125621651D01*
X73185954Y-125621651D01*
X73372039Y-125962815D01*
X73789384Y-126178568D01*
X74240802Y-126308755D01*
X74708944Y-126348374D01*
X75175821Y-126295901D01*
X75623489Y-126153354D01*
X75979961Y-125962815D01*
X76166046Y-125621651D01*
X74676000Y-124131605D01*
X73185954Y-125621651D01*
X72515000Y-125621651D01*
X72515000Y-124974986D01*
X72665185Y-125255961D01*
X73006349Y-125442046D01*
X74496395Y-123952000D01*
X74855605Y-123952000D01*
X76345651Y-125442046D01*
X76686815Y-125255961D01*
X76902568Y-124838616D01*
X77032755Y-124387198D01*
X77072374Y-123919056D01*
X77019901Y-123452179D01*
X76877354Y-123004511D01*
X76686815Y-122648039D01*
X76345651Y-122461954D01*
X74855605Y-123952000D01*
X74496395Y-123952000D01*
X73006349Y-122461954D01*
X72665185Y-122648039D01*
X72515000Y-122938552D01*
X72515000Y-122282349D01*
X73185954Y-122282349D01*
X74676000Y-123772395D01*
X76166046Y-122282349D01*
X75979961Y-121941185D01*
X75562616Y-121725432D01*
X75111198Y-121595245D01*
X74643056Y-121555626D01*
X74176179Y-121608099D01*
X73728511Y-121750646D01*
X73372039Y-121941185D01*
X73185954Y-122282349D01*
X72515000Y-122282349D01*
X72515000Y-121031000D01*
X76655394Y-121031000D01*
X78105000Y-122480606D01*
X78105000Y-122480606D01*
G37*
X78105000Y-122480606D02*
X78105000Y-126365000D01*
X72515000Y-126365000D01*
X72515000Y-125621651D01*
X73185954Y-125621651D01*
X73372039Y-125962815D01*
X73789384Y-126178568D01*
X74240802Y-126308755D01*
X74708944Y-126348374D01*
X75175821Y-126295901D01*
X75623489Y-126153354D01*
X75979961Y-125962815D01*
X76166046Y-125621651D01*
X74676000Y-124131605D01*
X73185954Y-125621651D01*
X72515000Y-125621651D01*
X72515000Y-124974986D01*
X72665185Y-125255961D01*
X73006349Y-125442046D01*
X74496395Y-123952000D01*
X74855605Y-123952000D01*
X76345651Y-125442046D01*
X76686815Y-125255961D01*
X76902568Y-124838616D01*
X77032755Y-124387198D01*
X77072374Y-123919056D01*
X77019901Y-123452179D01*
X76877354Y-123004511D01*
X76686815Y-122648039D01*
X76345651Y-122461954D01*
X74855605Y-123952000D01*
X74496395Y-123952000D01*
X73006349Y-122461954D01*
X72665185Y-122648039D01*
X72515000Y-122938552D01*
X72515000Y-122282349D01*
X73185954Y-122282349D01*
X74676000Y-123772395D01*
X76166046Y-122282349D01*
X75979961Y-121941185D01*
X75562616Y-121725432D01*
X75111198Y-121595245D01*
X74643056Y-121555626D01*
X74176179Y-121608099D01*
X73728511Y-121750646D01*
X73372039Y-121941185D01*
X73185954Y-122282349D01*
X72515000Y-122282349D01*
X72515000Y-121031000D01*
X76655394Y-121031000D01*
X78105000Y-122480606D01*
G36*
X70993000Y-121564608D02*
G01*
X69881750Y-121566940D01*
X69723000Y-121725690D01*
X69723000Y-123825000D01*
X69743000Y-123825000D01*
X69743000Y-124079000D01*
X69723000Y-124079000D01*
X69723000Y-126178310D01*
X69881750Y-126337060D01*
X70585857Y-126338537D01*
X70014197Y-126910197D01*
X69998403Y-126929443D01*
X69986667Y-126951399D01*
X69979440Y-126975224D01*
X69977000Y-127000000D01*
X69977000Y-127889000D01*
X66167000Y-127889000D01*
X66167000Y-125702060D01*
X67207868Y-125702060D01*
X67220128Y-125826542D01*
X67256438Y-125946240D01*
X67315403Y-126056554D01*
X67394755Y-126153245D01*
X67491446Y-126232597D01*
X67601760Y-126291562D01*
X67721458Y-126327872D01*
X67845940Y-126340132D01*
X69310250Y-126337060D01*
X69469000Y-126178310D01*
X69469000Y-124079000D01*
X67369690Y-124079000D01*
X67210940Y-124237750D01*
X67207868Y-125702060D01*
X66167000Y-125702060D01*
X66167000Y-122201940D01*
X67207868Y-122201940D01*
X67210940Y-123666250D01*
X67369690Y-123825000D01*
X69469000Y-123825000D01*
X69469000Y-121725690D01*
X69310250Y-121566940D01*
X67845940Y-121563868D01*
X67721458Y-121576128D01*
X67601760Y-121612438D01*
X67491446Y-121671403D01*
X67394755Y-121750755D01*
X67315403Y-121847446D01*
X67256438Y-121957760D01*
X67220128Y-122077458D01*
X67207868Y-122201940D01*
X66167000Y-122201940D01*
X66167000Y-120448606D01*
X67108606Y-119507000D01*
X70993000Y-119507000D01*
X70993000Y-121564608D01*
X70993000Y-121564608D01*
G37*
X70993000Y-121564608D02*
X69881750Y-121566940D01*
X69723000Y-121725690D01*
X69723000Y-123825000D01*
X69743000Y-123825000D01*
X69743000Y-124079000D01*
X69723000Y-124079000D01*
X69723000Y-126178310D01*
X69881750Y-126337060D01*
X70585857Y-126338537D01*
X70014197Y-126910197D01*
X69998403Y-126929443D01*
X69986667Y-126951399D01*
X69979440Y-126975224D01*
X69977000Y-127000000D01*
X69977000Y-127889000D01*
X66167000Y-127889000D01*
X66167000Y-125702060D01*
X67207868Y-125702060D01*
X67220128Y-125826542D01*
X67256438Y-125946240D01*
X67315403Y-126056554D01*
X67394755Y-126153245D01*
X67491446Y-126232597D01*
X67601760Y-126291562D01*
X67721458Y-126327872D01*
X67845940Y-126340132D01*
X69310250Y-126337060D01*
X69469000Y-126178310D01*
X69469000Y-124079000D01*
X67369690Y-124079000D01*
X67210940Y-124237750D01*
X67207868Y-125702060D01*
X66167000Y-125702060D01*
X66167000Y-122201940D01*
X67207868Y-122201940D01*
X67210940Y-123666250D01*
X67369690Y-123825000D01*
X69469000Y-123825000D01*
X69469000Y-121725690D01*
X69310250Y-121566940D01*
X67845940Y-121563868D01*
X67721458Y-121576128D01*
X67601760Y-121612438D01*
X67491446Y-121671403D01*
X67394755Y-121750755D01*
X67315403Y-121847446D01*
X67256438Y-121957760D01*
X67220128Y-122077458D01*
X67207868Y-122201940D01*
X66167000Y-122201940D01*
X66167000Y-120448606D01*
X67108606Y-119507000D01*
X70993000Y-119507000D01*
X70993000Y-121564608D01*
G36*
X89281000Y-116384606D02*
G01*
X89281000Y-125423394D01*
X87831394Y-126873000D01*
X86412606Y-126873000D01*
X85523000Y-125983394D01*
X85523000Y-125887575D01*
X85564039Y-125962815D01*
X85981384Y-126178568D01*
X86432802Y-126308755D01*
X86900944Y-126348374D01*
X87367821Y-126295901D01*
X87815489Y-126153354D01*
X88171961Y-125962815D01*
X88358046Y-125621651D01*
X86868000Y-124131605D01*
X86853858Y-124145748D01*
X86674253Y-123966143D01*
X86688395Y-123952000D01*
X87047605Y-123952000D01*
X88537651Y-125442046D01*
X88878815Y-125255961D01*
X89094568Y-124838616D01*
X89224755Y-124387198D01*
X89264374Y-123919056D01*
X89211901Y-123452179D01*
X89069354Y-123004511D01*
X88878815Y-122648039D01*
X88537651Y-122461954D01*
X87047605Y-123952000D01*
X86688395Y-123952000D01*
X86674253Y-123937858D01*
X86853858Y-123758253D01*
X86868000Y-123772395D01*
X88358046Y-122282349D01*
X88171961Y-121941185D01*
X87754616Y-121725432D01*
X87303198Y-121595245D01*
X86835056Y-121555626D01*
X86368179Y-121608099D01*
X85920511Y-121750646D01*
X85564039Y-121941185D01*
X85523000Y-122016425D01*
X85523000Y-120904606D01*
X86449803Y-119977803D01*
X86465597Y-119958557D01*
X86477333Y-119936601D01*
X86484560Y-119912776D01*
X86487000Y-119888000D01*
X86487000Y-116694429D01*
X86586250Y-116705000D01*
X86745000Y-116546250D01*
X86745000Y-115097000D01*
X86991000Y-115097000D01*
X86991000Y-116546250D01*
X87149750Y-116705000D01*
X87249482Y-116694378D01*
X87368766Y-116656730D01*
X87478413Y-116596534D01*
X87574209Y-116516104D01*
X87652474Y-116418530D01*
X87710199Y-116307563D01*
X87745166Y-116187466D01*
X87756032Y-116062854D01*
X87753000Y-115255750D01*
X87594250Y-115097000D01*
X86991000Y-115097000D01*
X86745000Y-115097000D01*
X86721000Y-115097000D01*
X86721000Y-114935000D01*
X87831394Y-114935000D01*
X89281000Y-116384606D01*
X89281000Y-116384606D01*
G37*
X89281000Y-116384606D02*
X89281000Y-125423394D01*
X87831394Y-126873000D01*
X86412606Y-126873000D01*
X85523000Y-125983394D01*
X85523000Y-125887575D01*
X85564039Y-125962815D01*
X85981384Y-126178568D01*
X86432802Y-126308755D01*
X86900944Y-126348374D01*
X87367821Y-126295901D01*
X87815489Y-126153354D01*
X88171961Y-125962815D01*
X88358046Y-125621651D01*
X86868000Y-124131605D01*
X86853858Y-124145748D01*
X86674253Y-123966143D01*
X86688395Y-123952000D01*
X87047605Y-123952000D01*
X88537651Y-125442046D01*
X88878815Y-125255961D01*
X89094568Y-124838616D01*
X89224755Y-124387198D01*
X89264374Y-123919056D01*
X89211901Y-123452179D01*
X89069354Y-123004511D01*
X88878815Y-122648039D01*
X88537651Y-122461954D01*
X87047605Y-123952000D01*
X86688395Y-123952000D01*
X86674253Y-123937858D01*
X86853858Y-123758253D01*
X86868000Y-123772395D01*
X88358046Y-122282349D01*
X88171961Y-121941185D01*
X87754616Y-121725432D01*
X87303198Y-121595245D01*
X86835056Y-121555626D01*
X86368179Y-121608099D01*
X85920511Y-121750646D01*
X85564039Y-121941185D01*
X85523000Y-122016425D01*
X85523000Y-120904606D01*
X86449803Y-119977803D01*
X86465597Y-119958557D01*
X86477333Y-119936601D01*
X86484560Y-119912776D01*
X86487000Y-119888000D01*
X86487000Y-116694429D01*
X86586250Y-116705000D01*
X86745000Y-116546250D01*
X86745000Y-115097000D01*
X86991000Y-115097000D01*
X86991000Y-116546250D01*
X87149750Y-116705000D01*
X87249482Y-116694378D01*
X87368766Y-116656730D01*
X87478413Y-116596534D01*
X87574209Y-116516104D01*
X87652474Y-116418530D01*
X87710199Y-116307563D01*
X87745166Y-116187466D01*
X87756032Y-116062854D01*
X87753000Y-115255750D01*
X87594250Y-115097000D01*
X86991000Y-115097000D01*
X86745000Y-115097000D01*
X86721000Y-115097000D01*
X86721000Y-114935000D01*
X87831394Y-114935000D01*
X89281000Y-116384606D01*
G36*
X82173000Y-114684250D02*
G01*
X82331750Y-114843000D01*
X82935000Y-114843000D01*
X82935000Y-114823000D01*
X83181000Y-114823000D01*
X83181000Y-114843000D01*
X83185000Y-114843000D01*
X83185000Y-115097000D01*
X83181000Y-115097000D01*
X83181000Y-116546250D01*
X83185000Y-116550250D01*
X83185000Y-116787394D01*
X80719394Y-119253000D01*
X78867000Y-119253000D01*
X78867000Y-116062854D01*
X82169968Y-116062854D01*
X82180834Y-116187466D01*
X82215801Y-116307563D01*
X82273526Y-116418530D01*
X82351791Y-116516104D01*
X82447587Y-116596534D01*
X82557234Y-116656730D01*
X82676518Y-116694378D01*
X82776250Y-116705000D01*
X82935000Y-116546250D01*
X82935000Y-115097000D01*
X82331750Y-115097000D01*
X82173000Y-115255750D01*
X82169968Y-116062854D01*
X78867000Y-116062854D01*
X78867000Y-114427000D01*
X82172034Y-114427000D01*
X82173000Y-114684250D01*
X82173000Y-114684250D01*
G37*
X82173000Y-114684250D02*
X82331750Y-114843000D01*
X82935000Y-114843000D01*
X82935000Y-114823000D01*
X83181000Y-114823000D01*
X83181000Y-114843000D01*
X83185000Y-114843000D01*
X83185000Y-115097000D01*
X83181000Y-115097000D01*
X83181000Y-116546250D01*
X83185000Y-116550250D01*
X83185000Y-116787394D01*
X80719394Y-119253000D01*
X78867000Y-119253000D01*
X78867000Y-116062854D01*
X82169968Y-116062854D01*
X82180834Y-116187466D01*
X82215801Y-116307563D01*
X82273526Y-116418530D01*
X82351791Y-116516104D01*
X82447587Y-116596534D01*
X82557234Y-116656730D01*
X82676518Y-116694378D01*
X82776250Y-116705000D01*
X82935000Y-116546250D01*
X82935000Y-115097000D01*
X82331750Y-115097000D01*
X82173000Y-115255750D01*
X82169968Y-116062854D01*
X78867000Y-116062854D01*
X78867000Y-114427000D01*
X82172034Y-114427000D01*
X82173000Y-114684250D01*
G36*
X84838000Y-117127980D02*
G01*
X84838001Y-118972387D01*
X84718370Y-119331280D01*
X84610822Y-119546377D01*
X84252002Y-119905197D01*
X84222999Y-119928999D01*
X84167871Y-119996174D01*
X84128026Y-120044724D01*
X84058926Y-120174001D01*
X84057454Y-120176754D01*
X84013997Y-120320015D01*
X84003000Y-120431668D01*
X84003000Y-120431678D01*
X83999324Y-120469000D01*
X84003000Y-120506322D01*
X84003000Y-121767516D01*
X83989245Y-121750755D01*
X83892554Y-121671403D01*
X83782240Y-121612438D01*
X83662542Y-121576128D01*
X83538060Y-121563868D01*
X82073750Y-121566940D01*
X81915000Y-121725690D01*
X81915000Y-123825000D01*
X81935000Y-123825000D01*
X81935000Y-124079000D01*
X81915000Y-124079000D01*
X81915000Y-126178310D01*
X82073750Y-126337060D01*
X83332618Y-126339701D01*
X83282020Y-126365000D01*
X78867000Y-126365000D01*
X78867000Y-125702060D01*
X79399868Y-125702060D01*
X79412128Y-125826542D01*
X79448438Y-125946240D01*
X79507403Y-126056554D01*
X79586755Y-126153245D01*
X79683446Y-126232597D01*
X79793760Y-126291562D01*
X79913458Y-126327872D01*
X80037940Y-126340132D01*
X81502250Y-126337060D01*
X81661000Y-126178310D01*
X81661000Y-124079000D01*
X79561690Y-124079000D01*
X79402940Y-124237750D01*
X79399868Y-125702060D01*
X78867000Y-125702060D01*
X78867000Y-122201940D01*
X79399868Y-122201940D01*
X79402940Y-123666250D01*
X79561690Y-123825000D01*
X81661000Y-123825000D01*
X81661000Y-121725690D01*
X81502250Y-121566940D01*
X80037940Y-121563868D01*
X79913458Y-121576128D01*
X79793760Y-121612438D01*
X79683446Y-121671403D01*
X79586755Y-121750755D01*
X79507403Y-121847446D01*
X79448438Y-121957760D01*
X79412128Y-122077458D01*
X79399868Y-122201940D01*
X78867000Y-122201940D01*
X78867000Y-121972606D01*
X80344914Y-120494692D01*
X81858447Y-119485670D01*
X81877803Y-119469803D01*
X84380606Y-116967000D01*
X84757510Y-116967000D01*
X84838000Y-117127980D01*
X84838000Y-117127980D01*
G37*
X84838000Y-117127980D02*
X84838001Y-118972387D01*
X84718370Y-119331280D01*
X84610822Y-119546377D01*
X84252002Y-119905197D01*
X84222999Y-119928999D01*
X84167871Y-119996174D01*
X84128026Y-120044724D01*
X84058926Y-120174001D01*
X84057454Y-120176754D01*
X84013997Y-120320015D01*
X84003000Y-120431668D01*
X84003000Y-120431678D01*
X83999324Y-120469000D01*
X84003000Y-120506322D01*
X84003000Y-121767516D01*
X83989245Y-121750755D01*
X83892554Y-121671403D01*
X83782240Y-121612438D01*
X83662542Y-121576128D01*
X83538060Y-121563868D01*
X82073750Y-121566940D01*
X81915000Y-121725690D01*
X81915000Y-123825000D01*
X81935000Y-123825000D01*
X81935000Y-124079000D01*
X81915000Y-124079000D01*
X81915000Y-126178310D01*
X82073750Y-126337060D01*
X83332618Y-126339701D01*
X83282020Y-126365000D01*
X78867000Y-126365000D01*
X78867000Y-125702060D01*
X79399868Y-125702060D01*
X79412128Y-125826542D01*
X79448438Y-125946240D01*
X79507403Y-126056554D01*
X79586755Y-126153245D01*
X79683446Y-126232597D01*
X79793760Y-126291562D01*
X79913458Y-126327872D01*
X80037940Y-126340132D01*
X81502250Y-126337060D01*
X81661000Y-126178310D01*
X81661000Y-124079000D01*
X79561690Y-124079000D01*
X79402940Y-124237750D01*
X79399868Y-125702060D01*
X78867000Y-125702060D01*
X78867000Y-122201940D01*
X79399868Y-122201940D01*
X79402940Y-123666250D01*
X79561690Y-123825000D01*
X81661000Y-123825000D01*
X81661000Y-121725690D01*
X81502250Y-121566940D01*
X80037940Y-121563868D01*
X79913458Y-121576128D01*
X79793760Y-121612438D01*
X79683446Y-121671403D01*
X79586755Y-121750755D01*
X79507403Y-121847446D01*
X79448438Y-121957760D01*
X79412128Y-122077458D01*
X79399868Y-122201940D01*
X78867000Y-122201940D01*
X78867000Y-121972606D01*
X80344914Y-120494692D01*
X81858447Y-119485670D01*
X81877803Y-119469803D01*
X84380606Y-116967000D01*
X84757510Y-116967000D01*
X84838000Y-117127980D01*
M02*
