G04 #@! TF.GenerationSoftware,KiCad,Pcbnew,(5.1.2)-2*
G04 #@! TF.CreationDate,2019-06-10T17:10:01+02:00*
G04 #@! TF.ProjectId,GB2,4742322e-6b69-4636-9164-5f7063625858,rev?*
G04 #@! TF.SameCoordinates,Original*
G04 #@! TF.FileFunction,Soldermask,Top*
G04 #@! TF.FilePolarity,Negative*
%FSLAX46Y46*%
G04 Gerber Fmt 4.6, Leading zero omitted, Abs format (unit mm)*
G04 Created by KiCad (PCBNEW (5.1.2)-2) date 2019-06-10 17:10:01*
%MOMM*%
%LPD*%
G04 APERTURE LIST*
%ADD10C,0.100000*%
%ADD11C,3.600000*%
%ADD12O,2.000000X2.000000*%
%ADD13R,2.000000X2.000000*%
%ADD14C,0.500000*%
%ADD15R,1.400000X1.900000*%
%ADD16C,0.770000*%
%ADD17R,0.640000X2.340000*%
%ADD18R,3.100000X2.400000*%
%ADD19C,1.825000*%
%ADD20C,3.900120*%
%ADD21R,3.900120X3.900120*%
%ADD22C,2.000000*%
%ADD23C,1.924000*%
%ADD24C,6.000000*%
%ADD25O,2.100000X2.100000*%
%ADD26R,2.100000X2.100000*%
%ADD27C,3.399740*%
%ADD28R,3.399740X3.399740*%
%ADD29C,3.100000*%
%ADD30R,9.800000X11.200000*%
%ADD31R,5.000000X1.500000*%
%ADD32C,6.399480*%
%ADD33R,6.399480X6.399480*%
G04 APERTURE END LIST*
D10*
G36*
X104140000Y-139065000D02*
G01*
X100330000Y-139065000D01*
X100330000Y-123190000D01*
X104140000Y-123190000D01*
X104140000Y-139065000D01*
G37*
X104140000Y-139065000D02*
X100330000Y-139065000D01*
X100330000Y-123190000D01*
X104140000Y-123190000D01*
X104140000Y-139065000D01*
D11*
X102108000Y-53848000D03*
X74168000Y-53848000D03*
X58928000Y-104648000D03*
X107188000Y-105918000D03*
D12*
X58928000Y-58928000D03*
X58928000Y-56388000D03*
X58928000Y-96008000D03*
X107188000Y-56388000D03*
X58928000Y-93468000D03*
X107188000Y-58928000D03*
X58928000Y-90928000D03*
X107188000Y-61468000D03*
X58928000Y-88388000D03*
X107188000Y-64008000D03*
X58928000Y-85848000D03*
X107188000Y-66548000D03*
X58928000Y-83308000D03*
X107188000Y-69088000D03*
X58928000Y-80768000D03*
X107188000Y-74168000D03*
X58928000Y-78228000D03*
X107188000Y-76708000D03*
X58928000Y-74168000D03*
X107188000Y-79248000D03*
X58928000Y-71628000D03*
X107188000Y-81788000D03*
X58928000Y-69088000D03*
X107188000Y-84328000D03*
X58928000Y-66548000D03*
X107188000Y-86868000D03*
X58928000Y-64008000D03*
X107188000Y-89408000D03*
X58928000Y-61468000D03*
D13*
X107188000Y-91948000D03*
D12*
X58928000Y-98548000D03*
X58928000Y-101088000D03*
D14*
X76140000Y-104648000D03*
D10*
G36*
X76729018Y-103701843D02*
G01*
X76766537Y-103713224D01*
X76801114Y-103731706D01*
X76831421Y-103756579D01*
X76856294Y-103786886D01*
X76874776Y-103821463D01*
X76886157Y-103858982D01*
X76890000Y-103898000D01*
X76890000Y-105398000D01*
X76886157Y-105437018D01*
X76874776Y-105474537D01*
X76856294Y-105509114D01*
X76831421Y-105539421D01*
X76801114Y-105564294D01*
X76766537Y-105582776D01*
X76729018Y-105594157D01*
X76690000Y-105598000D01*
X76140000Y-105598000D01*
X76133888Y-105597398D01*
X76115466Y-105597398D01*
X76095860Y-105596435D01*
X76047029Y-105591625D01*
X76027620Y-105588746D01*
X75979495Y-105579174D01*
X75960452Y-105574404D01*
X75913497Y-105560160D01*
X75895020Y-105553549D01*
X75849687Y-105534772D01*
X75831939Y-105526377D01*
X75788666Y-105503246D01*
X75771838Y-105493160D01*
X75731039Y-105465900D01*
X75715270Y-105454205D01*
X75677341Y-105423077D01*
X75662800Y-105409897D01*
X75628103Y-105375200D01*
X75614923Y-105360659D01*
X75583795Y-105322730D01*
X75572100Y-105306961D01*
X75544840Y-105266162D01*
X75534754Y-105249334D01*
X75511623Y-105206061D01*
X75503228Y-105188313D01*
X75484451Y-105142980D01*
X75477840Y-105124503D01*
X75463596Y-105077548D01*
X75458826Y-105058505D01*
X75449254Y-105010380D01*
X75446375Y-104990971D01*
X75441565Y-104942140D01*
X75440602Y-104922534D01*
X75440602Y-104904112D01*
X75440000Y-104898000D01*
X75440000Y-104398000D01*
X75440602Y-104391888D01*
X75440602Y-104373466D01*
X75441565Y-104353860D01*
X75446375Y-104305029D01*
X75449254Y-104285620D01*
X75458826Y-104237495D01*
X75463596Y-104218452D01*
X75477840Y-104171497D01*
X75484451Y-104153020D01*
X75503228Y-104107687D01*
X75511623Y-104089939D01*
X75534754Y-104046666D01*
X75544840Y-104029838D01*
X75572100Y-103989039D01*
X75583795Y-103973270D01*
X75614923Y-103935341D01*
X75628103Y-103920800D01*
X75662800Y-103886103D01*
X75677341Y-103872923D01*
X75715270Y-103841795D01*
X75731039Y-103830100D01*
X75771838Y-103802840D01*
X75788666Y-103792754D01*
X75831939Y-103769623D01*
X75849687Y-103761228D01*
X75895020Y-103742451D01*
X75913497Y-103735840D01*
X75960452Y-103721596D01*
X75979495Y-103716826D01*
X76027620Y-103707254D01*
X76047029Y-103704375D01*
X76095860Y-103699565D01*
X76115466Y-103698602D01*
X76133888Y-103698602D01*
X76140000Y-103698000D01*
X76690000Y-103698000D01*
X76729018Y-103701843D01*
X76729018Y-103701843D01*
G37*
D15*
X77440000Y-104648000D03*
D14*
X78740000Y-104648000D03*
D10*
G36*
X78746112Y-103698602D02*
G01*
X78764534Y-103698602D01*
X78784140Y-103699565D01*
X78832971Y-103704375D01*
X78852380Y-103707254D01*
X78900505Y-103716826D01*
X78919548Y-103721596D01*
X78966503Y-103735840D01*
X78984980Y-103742451D01*
X79030313Y-103761228D01*
X79048061Y-103769623D01*
X79091334Y-103792754D01*
X79108162Y-103802840D01*
X79148961Y-103830100D01*
X79164730Y-103841795D01*
X79202659Y-103872923D01*
X79217200Y-103886103D01*
X79251897Y-103920800D01*
X79265077Y-103935341D01*
X79296205Y-103973270D01*
X79307900Y-103989039D01*
X79335160Y-104029838D01*
X79345246Y-104046666D01*
X79368377Y-104089939D01*
X79376772Y-104107687D01*
X79395549Y-104153020D01*
X79402160Y-104171497D01*
X79416404Y-104218452D01*
X79421174Y-104237495D01*
X79430746Y-104285620D01*
X79433625Y-104305029D01*
X79438435Y-104353860D01*
X79439398Y-104373466D01*
X79439398Y-104391888D01*
X79440000Y-104398000D01*
X79440000Y-104898000D01*
X79439398Y-104904112D01*
X79439398Y-104922534D01*
X79438435Y-104942140D01*
X79433625Y-104990971D01*
X79430746Y-105010380D01*
X79421174Y-105058505D01*
X79416404Y-105077548D01*
X79402160Y-105124503D01*
X79395549Y-105142980D01*
X79376772Y-105188313D01*
X79368377Y-105206061D01*
X79345246Y-105249334D01*
X79335160Y-105266162D01*
X79307900Y-105306961D01*
X79296205Y-105322730D01*
X79265077Y-105360659D01*
X79251897Y-105375200D01*
X79217200Y-105409897D01*
X79202659Y-105423077D01*
X79164730Y-105454205D01*
X79148961Y-105465900D01*
X79108162Y-105493160D01*
X79091334Y-105503246D01*
X79048061Y-105526377D01*
X79030313Y-105534772D01*
X78984980Y-105553549D01*
X78966503Y-105560160D01*
X78919548Y-105574404D01*
X78900505Y-105579174D01*
X78852380Y-105588746D01*
X78832971Y-105591625D01*
X78784140Y-105596435D01*
X78764534Y-105597398D01*
X78746112Y-105597398D01*
X78740000Y-105598000D01*
X78190000Y-105598000D01*
X78150982Y-105594157D01*
X78113463Y-105582776D01*
X78078886Y-105564294D01*
X78048579Y-105539421D01*
X78023706Y-105509114D01*
X78005224Y-105474537D01*
X77993843Y-105437018D01*
X77990000Y-105398000D01*
X77990000Y-103898000D01*
X77993843Y-103858982D01*
X78005224Y-103821463D01*
X78023706Y-103786886D01*
X78048579Y-103756579D01*
X78078886Y-103731706D01*
X78113463Y-103713224D01*
X78150982Y-103701843D01*
X78190000Y-103698000D01*
X78740000Y-103698000D01*
X78746112Y-103698602D01*
X78746112Y-103698602D01*
G37*
D16*
X69820000Y-112918000D03*
X69820000Y-111618000D03*
X72420000Y-112918000D03*
X71120000Y-112918000D03*
X71120000Y-111618000D03*
X72420000Y-111618000D03*
D17*
X73025000Y-115143000D03*
X71755000Y-115143000D03*
X70485000Y-115143000D03*
X69215000Y-115143000D03*
X69215000Y-109393000D03*
X70485000Y-109393000D03*
X71755000Y-109393000D03*
X73025000Y-109393000D03*
D18*
X71120000Y-112268000D03*
D16*
X83663000Y-112745000D03*
X83663000Y-111445000D03*
X86263000Y-112745000D03*
X84963000Y-112745000D03*
X84963000Y-111445000D03*
X86263000Y-111445000D03*
D17*
X86868000Y-114970000D03*
X85598000Y-114970000D03*
X84328000Y-114970000D03*
X83058000Y-114970000D03*
X83058000Y-109220000D03*
X84328000Y-109220000D03*
X85598000Y-109220000D03*
X86868000Y-109220000D03*
D18*
X84963000Y-112095000D03*
D10*
G36*
X75734707Y-126942542D02*
G01*
X75765787Y-126947152D01*
X75796266Y-126954787D01*
X75825850Y-126965372D01*
X75854254Y-126978806D01*
X75881204Y-126994959D01*
X75906442Y-127013677D01*
X75929723Y-127034777D01*
X75950823Y-127058058D01*
X75969541Y-127083296D01*
X75985694Y-127110246D01*
X75999128Y-127138650D01*
X76009713Y-127168234D01*
X76017348Y-127198713D01*
X76021958Y-127229793D01*
X76023500Y-127261176D01*
X76023500Y-128770824D01*
X76021958Y-128802207D01*
X76017348Y-128833287D01*
X76009713Y-128863766D01*
X75999128Y-128893350D01*
X75985694Y-128921754D01*
X75969541Y-128948704D01*
X75950823Y-128973942D01*
X75929723Y-128997223D01*
X75906442Y-129018323D01*
X75881204Y-129037041D01*
X75854254Y-129053194D01*
X75825850Y-129066628D01*
X75796266Y-129077213D01*
X75765787Y-129084848D01*
X75734707Y-129089458D01*
X75703324Y-129091000D01*
X74518676Y-129091000D01*
X74487293Y-129089458D01*
X74456213Y-129084848D01*
X74425734Y-129077213D01*
X74396150Y-129066628D01*
X74367746Y-129053194D01*
X74340796Y-129037041D01*
X74315558Y-129018323D01*
X74292277Y-128997223D01*
X74271177Y-128973942D01*
X74252459Y-128948704D01*
X74236306Y-128921754D01*
X74222872Y-128893350D01*
X74212287Y-128863766D01*
X74204652Y-128833287D01*
X74200042Y-128802207D01*
X74198500Y-128770824D01*
X74198500Y-127261176D01*
X74200042Y-127229793D01*
X74204652Y-127198713D01*
X74212287Y-127168234D01*
X74222872Y-127138650D01*
X74236306Y-127110246D01*
X74252459Y-127083296D01*
X74271177Y-127058058D01*
X74292277Y-127034777D01*
X74315558Y-127013677D01*
X74340796Y-126994959D01*
X74367746Y-126978806D01*
X74396150Y-126965372D01*
X74425734Y-126954787D01*
X74456213Y-126947152D01*
X74487293Y-126942542D01*
X74518676Y-126941000D01*
X75703324Y-126941000D01*
X75734707Y-126942542D01*
X75734707Y-126942542D01*
G37*
D19*
X75111000Y-128016000D03*
D10*
G36*
X72759707Y-126942542D02*
G01*
X72790787Y-126947152D01*
X72821266Y-126954787D01*
X72850850Y-126965372D01*
X72879254Y-126978806D01*
X72906204Y-126994959D01*
X72931442Y-127013677D01*
X72954723Y-127034777D01*
X72975823Y-127058058D01*
X72994541Y-127083296D01*
X73010694Y-127110246D01*
X73024128Y-127138650D01*
X73034713Y-127168234D01*
X73042348Y-127198713D01*
X73046958Y-127229793D01*
X73048500Y-127261176D01*
X73048500Y-128770824D01*
X73046958Y-128802207D01*
X73042348Y-128833287D01*
X73034713Y-128863766D01*
X73024128Y-128893350D01*
X73010694Y-128921754D01*
X72994541Y-128948704D01*
X72975823Y-128973942D01*
X72954723Y-128997223D01*
X72931442Y-129018323D01*
X72906204Y-129037041D01*
X72879254Y-129053194D01*
X72850850Y-129066628D01*
X72821266Y-129077213D01*
X72790787Y-129084848D01*
X72759707Y-129089458D01*
X72728324Y-129091000D01*
X71543676Y-129091000D01*
X71512293Y-129089458D01*
X71481213Y-129084848D01*
X71450734Y-129077213D01*
X71421150Y-129066628D01*
X71392746Y-129053194D01*
X71365796Y-129037041D01*
X71340558Y-129018323D01*
X71317277Y-128997223D01*
X71296177Y-128973942D01*
X71277459Y-128948704D01*
X71261306Y-128921754D01*
X71247872Y-128893350D01*
X71237287Y-128863766D01*
X71229652Y-128833287D01*
X71225042Y-128802207D01*
X71223500Y-128770824D01*
X71223500Y-127261176D01*
X71225042Y-127229793D01*
X71229652Y-127198713D01*
X71237287Y-127168234D01*
X71247872Y-127138650D01*
X71261306Y-127110246D01*
X71277459Y-127083296D01*
X71296177Y-127058058D01*
X71317277Y-127034777D01*
X71340558Y-127013677D01*
X71365796Y-126994959D01*
X71392746Y-126978806D01*
X71421150Y-126965372D01*
X71450734Y-126954787D01*
X71481213Y-126947152D01*
X71512293Y-126942542D01*
X71543676Y-126941000D01*
X72728324Y-126941000D01*
X72759707Y-126942542D01*
X72759707Y-126942542D01*
G37*
D19*
X72136000Y-128016000D03*
D10*
G36*
X82411707Y-126942542D02*
G01*
X82442787Y-126947152D01*
X82473266Y-126954787D01*
X82502850Y-126965372D01*
X82531254Y-126978806D01*
X82558204Y-126994959D01*
X82583442Y-127013677D01*
X82606723Y-127034777D01*
X82627823Y-127058058D01*
X82646541Y-127083296D01*
X82662694Y-127110246D01*
X82676128Y-127138650D01*
X82686713Y-127168234D01*
X82694348Y-127198713D01*
X82698958Y-127229793D01*
X82700500Y-127261176D01*
X82700500Y-128770824D01*
X82698958Y-128802207D01*
X82694348Y-128833287D01*
X82686713Y-128863766D01*
X82676128Y-128893350D01*
X82662694Y-128921754D01*
X82646541Y-128948704D01*
X82627823Y-128973942D01*
X82606723Y-128997223D01*
X82583442Y-129018323D01*
X82558204Y-129037041D01*
X82531254Y-129053194D01*
X82502850Y-129066628D01*
X82473266Y-129077213D01*
X82442787Y-129084848D01*
X82411707Y-129089458D01*
X82380324Y-129091000D01*
X81195676Y-129091000D01*
X81164293Y-129089458D01*
X81133213Y-129084848D01*
X81102734Y-129077213D01*
X81073150Y-129066628D01*
X81044746Y-129053194D01*
X81017796Y-129037041D01*
X80992558Y-129018323D01*
X80969277Y-128997223D01*
X80948177Y-128973942D01*
X80929459Y-128948704D01*
X80913306Y-128921754D01*
X80899872Y-128893350D01*
X80889287Y-128863766D01*
X80881652Y-128833287D01*
X80877042Y-128802207D01*
X80875500Y-128770824D01*
X80875500Y-127261176D01*
X80877042Y-127229793D01*
X80881652Y-127198713D01*
X80889287Y-127168234D01*
X80899872Y-127138650D01*
X80913306Y-127110246D01*
X80929459Y-127083296D01*
X80948177Y-127058058D01*
X80969277Y-127034777D01*
X80992558Y-127013677D01*
X81017796Y-126994959D01*
X81044746Y-126978806D01*
X81073150Y-126965372D01*
X81102734Y-126954787D01*
X81133213Y-126947152D01*
X81164293Y-126942542D01*
X81195676Y-126941000D01*
X82380324Y-126941000D01*
X82411707Y-126942542D01*
X82411707Y-126942542D01*
G37*
D19*
X81788000Y-128016000D03*
D10*
G36*
X85386707Y-126942542D02*
G01*
X85417787Y-126947152D01*
X85448266Y-126954787D01*
X85477850Y-126965372D01*
X85506254Y-126978806D01*
X85533204Y-126994959D01*
X85558442Y-127013677D01*
X85581723Y-127034777D01*
X85602823Y-127058058D01*
X85621541Y-127083296D01*
X85637694Y-127110246D01*
X85651128Y-127138650D01*
X85661713Y-127168234D01*
X85669348Y-127198713D01*
X85673958Y-127229793D01*
X85675500Y-127261176D01*
X85675500Y-128770824D01*
X85673958Y-128802207D01*
X85669348Y-128833287D01*
X85661713Y-128863766D01*
X85651128Y-128893350D01*
X85637694Y-128921754D01*
X85621541Y-128948704D01*
X85602823Y-128973942D01*
X85581723Y-128997223D01*
X85558442Y-129018323D01*
X85533204Y-129037041D01*
X85506254Y-129053194D01*
X85477850Y-129066628D01*
X85448266Y-129077213D01*
X85417787Y-129084848D01*
X85386707Y-129089458D01*
X85355324Y-129091000D01*
X84170676Y-129091000D01*
X84139293Y-129089458D01*
X84108213Y-129084848D01*
X84077734Y-129077213D01*
X84048150Y-129066628D01*
X84019746Y-129053194D01*
X83992796Y-129037041D01*
X83967558Y-129018323D01*
X83944277Y-128997223D01*
X83923177Y-128973942D01*
X83904459Y-128948704D01*
X83888306Y-128921754D01*
X83874872Y-128893350D01*
X83864287Y-128863766D01*
X83856652Y-128833287D01*
X83852042Y-128802207D01*
X83850500Y-128770824D01*
X83850500Y-127261176D01*
X83852042Y-127229793D01*
X83856652Y-127198713D01*
X83864287Y-127168234D01*
X83874872Y-127138650D01*
X83888306Y-127110246D01*
X83904459Y-127083296D01*
X83923177Y-127058058D01*
X83944277Y-127034777D01*
X83967558Y-127013677D01*
X83992796Y-126994959D01*
X84019746Y-126978806D01*
X84048150Y-126965372D01*
X84077734Y-126954787D01*
X84108213Y-126947152D01*
X84139293Y-126942542D01*
X84170676Y-126941000D01*
X85355324Y-126941000D01*
X85386707Y-126942542D01*
X85386707Y-126942542D01*
G37*
D19*
X84763000Y-128016000D03*
D20*
X74676000Y-123952000D03*
D21*
X69596000Y-123952000D03*
D20*
X86868000Y-123952000D03*
D21*
X81788000Y-123952000D03*
D14*
X90364000Y-104648000D03*
D10*
G36*
X90953018Y-103701843D02*
G01*
X90990537Y-103713224D01*
X91025114Y-103731706D01*
X91055421Y-103756579D01*
X91080294Y-103786886D01*
X91098776Y-103821463D01*
X91110157Y-103858982D01*
X91114000Y-103898000D01*
X91114000Y-105398000D01*
X91110157Y-105437018D01*
X91098776Y-105474537D01*
X91080294Y-105509114D01*
X91055421Y-105539421D01*
X91025114Y-105564294D01*
X90990537Y-105582776D01*
X90953018Y-105594157D01*
X90914000Y-105598000D01*
X90364000Y-105598000D01*
X90357888Y-105597398D01*
X90339466Y-105597398D01*
X90319860Y-105596435D01*
X90271029Y-105591625D01*
X90251620Y-105588746D01*
X90203495Y-105579174D01*
X90184452Y-105574404D01*
X90137497Y-105560160D01*
X90119020Y-105553549D01*
X90073687Y-105534772D01*
X90055939Y-105526377D01*
X90012666Y-105503246D01*
X89995838Y-105493160D01*
X89955039Y-105465900D01*
X89939270Y-105454205D01*
X89901341Y-105423077D01*
X89886800Y-105409897D01*
X89852103Y-105375200D01*
X89838923Y-105360659D01*
X89807795Y-105322730D01*
X89796100Y-105306961D01*
X89768840Y-105266162D01*
X89758754Y-105249334D01*
X89735623Y-105206061D01*
X89727228Y-105188313D01*
X89708451Y-105142980D01*
X89701840Y-105124503D01*
X89687596Y-105077548D01*
X89682826Y-105058505D01*
X89673254Y-105010380D01*
X89670375Y-104990971D01*
X89665565Y-104942140D01*
X89664602Y-104922534D01*
X89664602Y-104904112D01*
X89664000Y-104898000D01*
X89664000Y-104398000D01*
X89664602Y-104391888D01*
X89664602Y-104373466D01*
X89665565Y-104353860D01*
X89670375Y-104305029D01*
X89673254Y-104285620D01*
X89682826Y-104237495D01*
X89687596Y-104218452D01*
X89701840Y-104171497D01*
X89708451Y-104153020D01*
X89727228Y-104107687D01*
X89735623Y-104089939D01*
X89758754Y-104046666D01*
X89768840Y-104029838D01*
X89796100Y-103989039D01*
X89807795Y-103973270D01*
X89838923Y-103935341D01*
X89852103Y-103920800D01*
X89886800Y-103886103D01*
X89901341Y-103872923D01*
X89939270Y-103841795D01*
X89955039Y-103830100D01*
X89995838Y-103802840D01*
X90012666Y-103792754D01*
X90055939Y-103769623D01*
X90073687Y-103761228D01*
X90119020Y-103742451D01*
X90137497Y-103735840D01*
X90184452Y-103721596D01*
X90203495Y-103716826D01*
X90251620Y-103707254D01*
X90271029Y-103704375D01*
X90319860Y-103699565D01*
X90339466Y-103698602D01*
X90357888Y-103698602D01*
X90364000Y-103698000D01*
X90914000Y-103698000D01*
X90953018Y-103701843D01*
X90953018Y-103701843D01*
G37*
D15*
X91664000Y-104648000D03*
D14*
X92964000Y-104648000D03*
D10*
G36*
X92970112Y-103698602D02*
G01*
X92988534Y-103698602D01*
X93008140Y-103699565D01*
X93056971Y-103704375D01*
X93076380Y-103707254D01*
X93124505Y-103716826D01*
X93143548Y-103721596D01*
X93190503Y-103735840D01*
X93208980Y-103742451D01*
X93254313Y-103761228D01*
X93272061Y-103769623D01*
X93315334Y-103792754D01*
X93332162Y-103802840D01*
X93372961Y-103830100D01*
X93388730Y-103841795D01*
X93426659Y-103872923D01*
X93441200Y-103886103D01*
X93475897Y-103920800D01*
X93489077Y-103935341D01*
X93520205Y-103973270D01*
X93531900Y-103989039D01*
X93559160Y-104029838D01*
X93569246Y-104046666D01*
X93592377Y-104089939D01*
X93600772Y-104107687D01*
X93619549Y-104153020D01*
X93626160Y-104171497D01*
X93640404Y-104218452D01*
X93645174Y-104237495D01*
X93654746Y-104285620D01*
X93657625Y-104305029D01*
X93662435Y-104353860D01*
X93663398Y-104373466D01*
X93663398Y-104391888D01*
X93664000Y-104398000D01*
X93664000Y-104898000D01*
X93663398Y-104904112D01*
X93663398Y-104922534D01*
X93662435Y-104942140D01*
X93657625Y-104990971D01*
X93654746Y-105010380D01*
X93645174Y-105058505D01*
X93640404Y-105077548D01*
X93626160Y-105124503D01*
X93619549Y-105142980D01*
X93600772Y-105188313D01*
X93592377Y-105206061D01*
X93569246Y-105249334D01*
X93559160Y-105266162D01*
X93531900Y-105306961D01*
X93520205Y-105322730D01*
X93489077Y-105360659D01*
X93475897Y-105375200D01*
X93441200Y-105409897D01*
X93426659Y-105423077D01*
X93388730Y-105454205D01*
X93372961Y-105465900D01*
X93332162Y-105493160D01*
X93315334Y-105503246D01*
X93272061Y-105526377D01*
X93254313Y-105534772D01*
X93208980Y-105553549D01*
X93190503Y-105560160D01*
X93143548Y-105574404D01*
X93124505Y-105579174D01*
X93076380Y-105588746D01*
X93056971Y-105591625D01*
X93008140Y-105596435D01*
X92988534Y-105597398D01*
X92970112Y-105597398D01*
X92964000Y-105598000D01*
X92414000Y-105598000D01*
X92374982Y-105594157D01*
X92337463Y-105582776D01*
X92302886Y-105564294D01*
X92272579Y-105539421D01*
X92247706Y-105509114D01*
X92229224Y-105474537D01*
X92217843Y-105437018D01*
X92214000Y-105398000D01*
X92214000Y-103898000D01*
X92217843Y-103858982D01*
X92229224Y-103821463D01*
X92247706Y-103786886D01*
X92272579Y-103756579D01*
X92302886Y-103731706D01*
X92337463Y-103713224D01*
X92374982Y-103701843D01*
X92414000Y-103698000D01*
X92964000Y-103698000D01*
X92970112Y-103698602D01*
X92970112Y-103698602D01*
G37*
D14*
X78740000Y-107696000D03*
D10*
G36*
X78150982Y-108642157D02*
G01*
X78113463Y-108630776D01*
X78078886Y-108612294D01*
X78048579Y-108587421D01*
X78023706Y-108557114D01*
X78005224Y-108522537D01*
X77993843Y-108485018D01*
X77990000Y-108446000D01*
X77990000Y-106946000D01*
X77993843Y-106906982D01*
X78005224Y-106869463D01*
X78023706Y-106834886D01*
X78048579Y-106804579D01*
X78078886Y-106779706D01*
X78113463Y-106761224D01*
X78150982Y-106749843D01*
X78190000Y-106746000D01*
X78740000Y-106746000D01*
X78746112Y-106746602D01*
X78764534Y-106746602D01*
X78784140Y-106747565D01*
X78832971Y-106752375D01*
X78852380Y-106755254D01*
X78900505Y-106764826D01*
X78919548Y-106769596D01*
X78966503Y-106783840D01*
X78984980Y-106790451D01*
X79030313Y-106809228D01*
X79048061Y-106817623D01*
X79091334Y-106840754D01*
X79108162Y-106850840D01*
X79148961Y-106878100D01*
X79164730Y-106889795D01*
X79202659Y-106920923D01*
X79217200Y-106934103D01*
X79251897Y-106968800D01*
X79265077Y-106983341D01*
X79296205Y-107021270D01*
X79307900Y-107037039D01*
X79335160Y-107077838D01*
X79345246Y-107094666D01*
X79368377Y-107137939D01*
X79376772Y-107155687D01*
X79395549Y-107201020D01*
X79402160Y-107219497D01*
X79416404Y-107266452D01*
X79421174Y-107285495D01*
X79430746Y-107333620D01*
X79433625Y-107353029D01*
X79438435Y-107401860D01*
X79439398Y-107421466D01*
X79439398Y-107439888D01*
X79440000Y-107446000D01*
X79440000Y-107946000D01*
X79439398Y-107952112D01*
X79439398Y-107970534D01*
X79438435Y-107990140D01*
X79433625Y-108038971D01*
X79430746Y-108058380D01*
X79421174Y-108106505D01*
X79416404Y-108125548D01*
X79402160Y-108172503D01*
X79395549Y-108190980D01*
X79376772Y-108236313D01*
X79368377Y-108254061D01*
X79345246Y-108297334D01*
X79335160Y-108314162D01*
X79307900Y-108354961D01*
X79296205Y-108370730D01*
X79265077Y-108408659D01*
X79251897Y-108423200D01*
X79217200Y-108457897D01*
X79202659Y-108471077D01*
X79164730Y-108502205D01*
X79148961Y-108513900D01*
X79108162Y-108541160D01*
X79091334Y-108551246D01*
X79048061Y-108574377D01*
X79030313Y-108582772D01*
X78984980Y-108601549D01*
X78966503Y-108608160D01*
X78919548Y-108622404D01*
X78900505Y-108627174D01*
X78852380Y-108636746D01*
X78832971Y-108639625D01*
X78784140Y-108644435D01*
X78764534Y-108645398D01*
X78746112Y-108645398D01*
X78740000Y-108646000D01*
X78190000Y-108646000D01*
X78150982Y-108642157D01*
X78150982Y-108642157D01*
G37*
D15*
X77440000Y-107696000D03*
D14*
X76140000Y-107696000D03*
D10*
G36*
X76133888Y-108645398D02*
G01*
X76115466Y-108645398D01*
X76095860Y-108644435D01*
X76047029Y-108639625D01*
X76027620Y-108636746D01*
X75979495Y-108627174D01*
X75960452Y-108622404D01*
X75913497Y-108608160D01*
X75895020Y-108601549D01*
X75849687Y-108582772D01*
X75831939Y-108574377D01*
X75788666Y-108551246D01*
X75771838Y-108541160D01*
X75731039Y-108513900D01*
X75715270Y-108502205D01*
X75677341Y-108471077D01*
X75662800Y-108457897D01*
X75628103Y-108423200D01*
X75614923Y-108408659D01*
X75583795Y-108370730D01*
X75572100Y-108354961D01*
X75544840Y-108314162D01*
X75534754Y-108297334D01*
X75511623Y-108254061D01*
X75503228Y-108236313D01*
X75484451Y-108190980D01*
X75477840Y-108172503D01*
X75463596Y-108125548D01*
X75458826Y-108106505D01*
X75449254Y-108058380D01*
X75446375Y-108038971D01*
X75441565Y-107990140D01*
X75440602Y-107970534D01*
X75440602Y-107952112D01*
X75440000Y-107946000D01*
X75440000Y-107446000D01*
X75440602Y-107439888D01*
X75440602Y-107421466D01*
X75441565Y-107401860D01*
X75446375Y-107353029D01*
X75449254Y-107333620D01*
X75458826Y-107285495D01*
X75463596Y-107266452D01*
X75477840Y-107219497D01*
X75484451Y-107201020D01*
X75503228Y-107155687D01*
X75511623Y-107137939D01*
X75534754Y-107094666D01*
X75544840Y-107077838D01*
X75572100Y-107037039D01*
X75583795Y-107021270D01*
X75614923Y-106983341D01*
X75628103Y-106968800D01*
X75662800Y-106934103D01*
X75677341Y-106920923D01*
X75715270Y-106889795D01*
X75731039Y-106878100D01*
X75771838Y-106850840D01*
X75788666Y-106840754D01*
X75831939Y-106817623D01*
X75849687Y-106809228D01*
X75895020Y-106790451D01*
X75913497Y-106783840D01*
X75960452Y-106769596D01*
X75979495Y-106764826D01*
X76027620Y-106755254D01*
X76047029Y-106752375D01*
X76095860Y-106747565D01*
X76115466Y-106746602D01*
X76133888Y-106746602D01*
X76140000Y-106746000D01*
X76690000Y-106746000D01*
X76729018Y-106749843D01*
X76766537Y-106761224D01*
X76801114Y-106779706D01*
X76831421Y-106804579D01*
X76856294Y-106834886D01*
X76874776Y-106869463D01*
X76886157Y-106906982D01*
X76890000Y-106946000D01*
X76890000Y-108446000D01*
X76886157Y-108485018D01*
X76874776Y-108522537D01*
X76856294Y-108557114D01*
X76831421Y-108587421D01*
X76801114Y-108612294D01*
X76766537Y-108630776D01*
X76729018Y-108642157D01*
X76690000Y-108646000D01*
X76140000Y-108646000D01*
X76133888Y-108645398D01*
X76133888Y-108645398D01*
G37*
D14*
X92964000Y-107696000D03*
D10*
G36*
X92374982Y-108642157D02*
G01*
X92337463Y-108630776D01*
X92302886Y-108612294D01*
X92272579Y-108587421D01*
X92247706Y-108557114D01*
X92229224Y-108522537D01*
X92217843Y-108485018D01*
X92214000Y-108446000D01*
X92214000Y-106946000D01*
X92217843Y-106906982D01*
X92229224Y-106869463D01*
X92247706Y-106834886D01*
X92272579Y-106804579D01*
X92302886Y-106779706D01*
X92337463Y-106761224D01*
X92374982Y-106749843D01*
X92414000Y-106746000D01*
X92964000Y-106746000D01*
X92970112Y-106746602D01*
X92988534Y-106746602D01*
X93008140Y-106747565D01*
X93056971Y-106752375D01*
X93076380Y-106755254D01*
X93124505Y-106764826D01*
X93143548Y-106769596D01*
X93190503Y-106783840D01*
X93208980Y-106790451D01*
X93254313Y-106809228D01*
X93272061Y-106817623D01*
X93315334Y-106840754D01*
X93332162Y-106850840D01*
X93372961Y-106878100D01*
X93388730Y-106889795D01*
X93426659Y-106920923D01*
X93441200Y-106934103D01*
X93475897Y-106968800D01*
X93489077Y-106983341D01*
X93520205Y-107021270D01*
X93531900Y-107037039D01*
X93559160Y-107077838D01*
X93569246Y-107094666D01*
X93592377Y-107137939D01*
X93600772Y-107155687D01*
X93619549Y-107201020D01*
X93626160Y-107219497D01*
X93640404Y-107266452D01*
X93645174Y-107285495D01*
X93654746Y-107333620D01*
X93657625Y-107353029D01*
X93662435Y-107401860D01*
X93663398Y-107421466D01*
X93663398Y-107439888D01*
X93664000Y-107446000D01*
X93664000Y-107946000D01*
X93663398Y-107952112D01*
X93663398Y-107970534D01*
X93662435Y-107990140D01*
X93657625Y-108038971D01*
X93654746Y-108058380D01*
X93645174Y-108106505D01*
X93640404Y-108125548D01*
X93626160Y-108172503D01*
X93619549Y-108190980D01*
X93600772Y-108236313D01*
X93592377Y-108254061D01*
X93569246Y-108297334D01*
X93559160Y-108314162D01*
X93531900Y-108354961D01*
X93520205Y-108370730D01*
X93489077Y-108408659D01*
X93475897Y-108423200D01*
X93441200Y-108457897D01*
X93426659Y-108471077D01*
X93388730Y-108502205D01*
X93372961Y-108513900D01*
X93332162Y-108541160D01*
X93315334Y-108551246D01*
X93272061Y-108574377D01*
X93254313Y-108582772D01*
X93208980Y-108601549D01*
X93190503Y-108608160D01*
X93143548Y-108622404D01*
X93124505Y-108627174D01*
X93076380Y-108636746D01*
X93056971Y-108639625D01*
X93008140Y-108644435D01*
X92988534Y-108645398D01*
X92970112Y-108645398D01*
X92964000Y-108646000D01*
X92414000Y-108646000D01*
X92374982Y-108642157D01*
X92374982Y-108642157D01*
G37*
D15*
X91664000Y-107696000D03*
D14*
X90364000Y-107696000D03*
D10*
G36*
X90357888Y-108645398D02*
G01*
X90339466Y-108645398D01*
X90319860Y-108644435D01*
X90271029Y-108639625D01*
X90251620Y-108636746D01*
X90203495Y-108627174D01*
X90184452Y-108622404D01*
X90137497Y-108608160D01*
X90119020Y-108601549D01*
X90073687Y-108582772D01*
X90055939Y-108574377D01*
X90012666Y-108551246D01*
X89995838Y-108541160D01*
X89955039Y-108513900D01*
X89939270Y-108502205D01*
X89901341Y-108471077D01*
X89886800Y-108457897D01*
X89852103Y-108423200D01*
X89838923Y-108408659D01*
X89807795Y-108370730D01*
X89796100Y-108354961D01*
X89768840Y-108314162D01*
X89758754Y-108297334D01*
X89735623Y-108254061D01*
X89727228Y-108236313D01*
X89708451Y-108190980D01*
X89701840Y-108172503D01*
X89687596Y-108125548D01*
X89682826Y-108106505D01*
X89673254Y-108058380D01*
X89670375Y-108038971D01*
X89665565Y-107990140D01*
X89664602Y-107970534D01*
X89664602Y-107952112D01*
X89664000Y-107946000D01*
X89664000Y-107446000D01*
X89664602Y-107439888D01*
X89664602Y-107421466D01*
X89665565Y-107401860D01*
X89670375Y-107353029D01*
X89673254Y-107333620D01*
X89682826Y-107285495D01*
X89687596Y-107266452D01*
X89701840Y-107219497D01*
X89708451Y-107201020D01*
X89727228Y-107155687D01*
X89735623Y-107137939D01*
X89758754Y-107094666D01*
X89768840Y-107077838D01*
X89796100Y-107037039D01*
X89807795Y-107021270D01*
X89838923Y-106983341D01*
X89852103Y-106968800D01*
X89886800Y-106934103D01*
X89901341Y-106920923D01*
X89939270Y-106889795D01*
X89955039Y-106878100D01*
X89995838Y-106850840D01*
X90012666Y-106840754D01*
X90055939Y-106817623D01*
X90073687Y-106809228D01*
X90119020Y-106790451D01*
X90137497Y-106783840D01*
X90184452Y-106769596D01*
X90203495Y-106764826D01*
X90251620Y-106755254D01*
X90271029Y-106752375D01*
X90319860Y-106747565D01*
X90339466Y-106746602D01*
X90357888Y-106746602D01*
X90364000Y-106746000D01*
X90914000Y-106746000D01*
X90953018Y-106749843D01*
X90990537Y-106761224D01*
X91025114Y-106779706D01*
X91055421Y-106804579D01*
X91080294Y-106834886D01*
X91098776Y-106869463D01*
X91110157Y-106906982D01*
X91114000Y-106946000D01*
X91114000Y-108446000D01*
X91110157Y-108485018D01*
X91098776Y-108522537D01*
X91080294Y-108557114D01*
X91055421Y-108587421D01*
X91025114Y-108612294D01*
X90990537Y-108630776D01*
X90953018Y-108642157D01*
X90914000Y-108646000D01*
X90364000Y-108646000D01*
X90357888Y-108645398D01*
X90357888Y-108645398D01*
G37*
G36*
X94258207Y-92634042D02*
G01*
X94289287Y-92638652D01*
X94319766Y-92646287D01*
X94349350Y-92656872D01*
X94377754Y-92670306D01*
X94404704Y-92686459D01*
X94429942Y-92705177D01*
X94453223Y-92726277D01*
X94474323Y-92749558D01*
X94493041Y-92774796D01*
X94509194Y-92801746D01*
X94522628Y-92830150D01*
X94533213Y-92859734D01*
X94540848Y-92890213D01*
X94545458Y-92921293D01*
X94547000Y-92952676D01*
X94547000Y-94137324D01*
X94545458Y-94168707D01*
X94540848Y-94199787D01*
X94533213Y-94230266D01*
X94522628Y-94259850D01*
X94509194Y-94288254D01*
X94493041Y-94315204D01*
X94474323Y-94340442D01*
X94453223Y-94363723D01*
X94429942Y-94384823D01*
X94404704Y-94403541D01*
X94377754Y-94419694D01*
X94349350Y-94433128D01*
X94319766Y-94443713D01*
X94289287Y-94451348D01*
X94258207Y-94455958D01*
X94226824Y-94457500D01*
X92717176Y-94457500D01*
X92685793Y-94455958D01*
X92654713Y-94451348D01*
X92624234Y-94443713D01*
X92594650Y-94433128D01*
X92566246Y-94419694D01*
X92539296Y-94403541D01*
X92514058Y-94384823D01*
X92490777Y-94363723D01*
X92469677Y-94340442D01*
X92450959Y-94315204D01*
X92434806Y-94288254D01*
X92421372Y-94259850D01*
X92410787Y-94230266D01*
X92403152Y-94199787D01*
X92398542Y-94168707D01*
X92397000Y-94137324D01*
X92397000Y-92952676D01*
X92398542Y-92921293D01*
X92403152Y-92890213D01*
X92410787Y-92859734D01*
X92421372Y-92830150D01*
X92434806Y-92801746D01*
X92450959Y-92774796D01*
X92469677Y-92749558D01*
X92490777Y-92726277D01*
X92514058Y-92705177D01*
X92539296Y-92686459D01*
X92566246Y-92670306D01*
X92594650Y-92656872D01*
X92624234Y-92646287D01*
X92654713Y-92638652D01*
X92685793Y-92634042D01*
X92717176Y-92632500D01*
X94226824Y-92632500D01*
X94258207Y-92634042D01*
X94258207Y-92634042D01*
G37*
D19*
X93472000Y-93545000D03*
D10*
G36*
X94258207Y-95609042D02*
G01*
X94289287Y-95613652D01*
X94319766Y-95621287D01*
X94349350Y-95631872D01*
X94377754Y-95645306D01*
X94404704Y-95661459D01*
X94429942Y-95680177D01*
X94453223Y-95701277D01*
X94474323Y-95724558D01*
X94493041Y-95749796D01*
X94509194Y-95776746D01*
X94522628Y-95805150D01*
X94533213Y-95834734D01*
X94540848Y-95865213D01*
X94545458Y-95896293D01*
X94547000Y-95927676D01*
X94547000Y-97112324D01*
X94545458Y-97143707D01*
X94540848Y-97174787D01*
X94533213Y-97205266D01*
X94522628Y-97234850D01*
X94509194Y-97263254D01*
X94493041Y-97290204D01*
X94474323Y-97315442D01*
X94453223Y-97338723D01*
X94429942Y-97359823D01*
X94404704Y-97378541D01*
X94377754Y-97394694D01*
X94349350Y-97408128D01*
X94319766Y-97418713D01*
X94289287Y-97426348D01*
X94258207Y-97430958D01*
X94226824Y-97432500D01*
X92717176Y-97432500D01*
X92685793Y-97430958D01*
X92654713Y-97426348D01*
X92624234Y-97418713D01*
X92594650Y-97408128D01*
X92566246Y-97394694D01*
X92539296Y-97378541D01*
X92514058Y-97359823D01*
X92490777Y-97338723D01*
X92469677Y-97315442D01*
X92450959Y-97290204D01*
X92434806Y-97263254D01*
X92421372Y-97234850D01*
X92410787Y-97205266D01*
X92403152Y-97174787D01*
X92398542Y-97143707D01*
X92397000Y-97112324D01*
X92397000Y-95927676D01*
X92398542Y-95896293D01*
X92403152Y-95865213D01*
X92410787Y-95834734D01*
X92421372Y-95805150D01*
X92434806Y-95776746D01*
X92450959Y-95749796D01*
X92469677Y-95724558D01*
X92490777Y-95701277D01*
X92514058Y-95680177D01*
X92539296Y-95661459D01*
X92566246Y-95645306D01*
X92594650Y-95631872D01*
X92624234Y-95621287D01*
X92654713Y-95613652D01*
X92685793Y-95609042D01*
X92717176Y-95607500D01*
X94226824Y-95607500D01*
X94258207Y-95609042D01*
X94258207Y-95609042D01*
G37*
D19*
X93472000Y-96520000D03*
D10*
G36*
X70890207Y-92597542D02*
G01*
X70921287Y-92602152D01*
X70951766Y-92609787D01*
X70981350Y-92620372D01*
X71009754Y-92633806D01*
X71036704Y-92649959D01*
X71061942Y-92668677D01*
X71085223Y-92689777D01*
X71106323Y-92713058D01*
X71125041Y-92738296D01*
X71141194Y-92765246D01*
X71154628Y-92793650D01*
X71165213Y-92823234D01*
X71172848Y-92853713D01*
X71177458Y-92884793D01*
X71179000Y-92916176D01*
X71179000Y-94100824D01*
X71177458Y-94132207D01*
X71172848Y-94163287D01*
X71165213Y-94193766D01*
X71154628Y-94223350D01*
X71141194Y-94251754D01*
X71125041Y-94278704D01*
X71106323Y-94303942D01*
X71085223Y-94327223D01*
X71061942Y-94348323D01*
X71036704Y-94367041D01*
X71009754Y-94383194D01*
X70981350Y-94396628D01*
X70951766Y-94407213D01*
X70921287Y-94414848D01*
X70890207Y-94419458D01*
X70858824Y-94421000D01*
X69349176Y-94421000D01*
X69317793Y-94419458D01*
X69286713Y-94414848D01*
X69256234Y-94407213D01*
X69226650Y-94396628D01*
X69198246Y-94383194D01*
X69171296Y-94367041D01*
X69146058Y-94348323D01*
X69122777Y-94327223D01*
X69101677Y-94303942D01*
X69082959Y-94278704D01*
X69066806Y-94251754D01*
X69053372Y-94223350D01*
X69042787Y-94193766D01*
X69035152Y-94163287D01*
X69030542Y-94132207D01*
X69029000Y-94100824D01*
X69029000Y-92916176D01*
X69030542Y-92884793D01*
X69035152Y-92853713D01*
X69042787Y-92823234D01*
X69053372Y-92793650D01*
X69066806Y-92765246D01*
X69082959Y-92738296D01*
X69101677Y-92713058D01*
X69122777Y-92689777D01*
X69146058Y-92668677D01*
X69171296Y-92649959D01*
X69198246Y-92633806D01*
X69226650Y-92620372D01*
X69256234Y-92609787D01*
X69286713Y-92602152D01*
X69317793Y-92597542D01*
X69349176Y-92596000D01*
X70858824Y-92596000D01*
X70890207Y-92597542D01*
X70890207Y-92597542D01*
G37*
D19*
X70104000Y-93508500D03*
D10*
G36*
X70890207Y-95572542D02*
G01*
X70921287Y-95577152D01*
X70951766Y-95584787D01*
X70981350Y-95595372D01*
X71009754Y-95608806D01*
X71036704Y-95624959D01*
X71061942Y-95643677D01*
X71085223Y-95664777D01*
X71106323Y-95688058D01*
X71125041Y-95713296D01*
X71141194Y-95740246D01*
X71154628Y-95768650D01*
X71165213Y-95798234D01*
X71172848Y-95828713D01*
X71177458Y-95859793D01*
X71179000Y-95891176D01*
X71179000Y-97075824D01*
X71177458Y-97107207D01*
X71172848Y-97138287D01*
X71165213Y-97168766D01*
X71154628Y-97198350D01*
X71141194Y-97226754D01*
X71125041Y-97253704D01*
X71106323Y-97278942D01*
X71085223Y-97302223D01*
X71061942Y-97323323D01*
X71036704Y-97342041D01*
X71009754Y-97358194D01*
X70981350Y-97371628D01*
X70951766Y-97382213D01*
X70921287Y-97389848D01*
X70890207Y-97394458D01*
X70858824Y-97396000D01*
X69349176Y-97396000D01*
X69317793Y-97394458D01*
X69286713Y-97389848D01*
X69256234Y-97382213D01*
X69226650Y-97371628D01*
X69198246Y-97358194D01*
X69171296Y-97342041D01*
X69146058Y-97323323D01*
X69122777Y-97302223D01*
X69101677Y-97278942D01*
X69082959Y-97253704D01*
X69066806Y-97226754D01*
X69053372Y-97198350D01*
X69042787Y-97168766D01*
X69035152Y-97138287D01*
X69030542Y-97107207D01*
X69029000Y-97075824D01*
X69029000Y-95891176D01*
X69030542Y-95859793D01*
X69035152Y-95828713D01*
X69042787Y-95798234D01*
X69053372Y-95768650D01*
X69066806Y-95740246D01*
X69082959Y-95713296D01*
X69101677Y-95688058D01*
X69122777Y-95664777D01*
X69146058Y-95643677D01*
X69171296Y-95624959D01*
X69198246Y-95608806D01*
X69226650Y-95595372D01*
X69256234Y-95584787D01*
X69286713Y-95577152D01*
X69317793Y-95572542D01*
X69349176Y-95571000D01*
X70858824Y-95571000D01*
X70890207Y-95572542D01*
X70890207Y-95572542D01*
G37*
D19*
X70104000Y-96483500D03*
D22*
X77724000Y-94020000D03*
D13*
X77724000Y-96520000D03*
D22*
X86360000Y-94020000D03*
D13*
X86360000Y-96520000D03*
D23*
X143980000Y-99210000D03*
X146520000Y-99210000D03*
X149060000Y-99210000D03*
X151600000Y-99210000D03*
X154140000Y-99210000D03*
X156680000Y-99210000D03*
X159220000Y-99210000D03*
X161760000Y-99210000D03*
X164300000Y-99210000D03*
X166840000Y-99210000D03*
X169380000Y-99210000D03*
X171920000Y-99210000D03*
X174460000Y-99210000D03*
X177000000Y-99210000D03*
X179540000Y-99210000D03*
X182080000Y-99210000D03*
X184620000Y-99210000D03*
X187160000Y-99210000D03*
X189700000Y-99210000D03*
X192240000Y-99210000D03*
X192240000Y-114450000D03*
X189700000Y-114450000D03*
X187160000Y-114450000D03*
X184620000Y-114450000D03*
X182080000Y-114450000D03*
X179540000Y-114450000D03*
X177000000Y-114450000D03*
X174460000Y-114450000D03*
X171920000Y-114450000D03*
X169380000Y-114450000D03*
X166840000Y-114450000D03*
X164300000Y-114450000D03*
X161760000Y-114450000D03*
X159220000Y-114450000D03*
X156680000Y-114450000D03*
X154140000Y-114450000D03*
X151600000Y-114450000D03*
X149060000Y-114450000D03*
X146520000Y-114450000D03*
X143980000Y-114450000D03*
X147790000Y-110640000D03*
X147790000Y-108100000D03*
X147790000Y-105560000D03*
X147790000Y-103020000D03*
D24*
X138386000Y-73406000D03*
X196386000Y-50406000D03*
X138386000Y-50406000D03*
X196386000Y-73406000D03*
D25*
X143256000Y-74676000D03*
X143256000Y-72136000D03*
X161036000Y-74676000D03*
X161036000Y-72136000D03*
X166116000Y-74676000D03*
X166116000Y-72136000D03*
X155956000Y-74676000D03*
X155956000Y-72136000D03*
X183896000Y-74676000D03*
X183896000Y-72136000D03*
X153416000Y-74676000D03*
X153416000Y-72136000D03*
X171196000Y-74676000D03*
X171196000Y-72136000D03*
X148336000Y-74676000D03*
X148336000Y-72136000D03*
X150876000Y-74676000D03*
X150876000Y-72136000D03*
X145796000Y-74676000D03*
X145796000Y-72136000D03*
X168656000Y-74676000D03*
X168656000Y-72136000D03*
X181356000Y-74676000D03*
X181356000Y-72136000D03*
X176276000Y-74676000D03*
X176276000Y-72136000D03*
X158496000Y-74676000D03*
X158496000Y-72136000D03*
X178816000Y-74676000D03*
X178816000Y-72136000D03*
X163576000Y-74676000D03*
X163576000Y-72136000D03*
D26*
X191516000Y-72136000D03*
D25*
X191516000Y-74676000D03*
X186436000Y-72136000D03*
X188976000Y-74676000D03*
X173736000Y-74676000D03*
X173736000Y-72136000D03*
X188976000Y-72136000D03*
X186436000Y-74676000D03*
D10*
G36*
X144766207Y-126211542D02*
G01*
X144797287Y-126216152D01*
X144827766Y-126223787D01*
X144857350Y-126234372D01*
X144885754Y-126247806D01*
X144912704Y-126263959D01*
X144937942Y-126282677D01*
X144961223Y-126303777D01*
X144982323Y-126327058D01*
X145001041Y-126352296D01*
X145017194Y-126379246D01*
X145030628Y-126407650D01*
X145041213Y-126437234D01*
X145048848Y-126467713D01*
X145053458Y-126498793D01*
X145055000Y-126530176D01*
X145055000Y-127714824D01*
X145053458Y-127746207D01*
X145048848Y-127777287D01*
X145041213Y-127807766D01*
X145030628Y-127837350D01*
X145017194Y-127865754D01*
X145001041Y-127892704D01*
X144982323Y-127917942D01*
X144961223Y-127941223D01*
X144937942Y-127962323D01*
X144912704Y-127981041D01*
X144885754Y-127997194D01*
X144857350Y-128010628D01*
X144827766Y-128021213D01*
X144797287Y-128028848D01*
X144766207Y-128033458D01*
X144734824Y-128035000D01*
X143225176Y-128035000D01*
X143193793Y-128033458D01*
X143162713Y-128028848D01*
X143132234Y-128021213D01*
X143102650Y-128010628D01*
X143074246Y-127997194D01*
X143047296Y-127981041D01*
X143022058Y-127962323D01*
X142998777Y-127941223D01*
X142977677Y-127917942D01*
X142958959Y-127892704D01*
X142942806Y-127865754D01*
X142929372Y-127837350D01*
X142918787Y-127807766D01*
X142911152Y-127777287D01*
X142906542Y-127746207D01*
X142905000Y-127714824D01*
X142905000Y-126530176D01*
X142906542Y-126498793D01*
X142911152Y-126467713D01*
X142918787Y-126437234D01*
X142929372Y-126407650D01*
X142942806Y-126379246D01*
X142958959Y-126352296D01*
X142977677Y-126327058D01*
X142998777Y-126303777D01*
X143022058Y-126282677D01*
X143047296Y-126263959D01*
X143074246Y-126247806D01*
X143102650Y-126234372D01*
X143132234Y-126223787D01*
X143162713Y-126216152D01*
X143193793Y-126211542D01*
X143225176Y-126210000D01*
X144734824Y-126210000D01*
X144766207Y-126211542D01*
X144766207Y-126211542D01*
G37*
D19*
X143980000Y-127122500D03*
D10*
G36*
X144766207Y-123236542D02*
G01*
X144797287Y-123241152D01*
X144827766Y-123248787D01*
X144857350Y-123259372D01*
X144885754Y-123272806D01*
X144912704Y-123288959D01*
X144937942Y-123307677D01*
X144961223Y-123328777D01*
X144982323Y-123352058D01*
X145001041Y-123377296D01*
X145017194Y-123404246D01*
X145030628Y-123432650D01*
X145041213Y-123462234D01*
X145048848Y-123492713D01*
X145053458Y-123523793D01*
X145055000Y-123555176D01*
X145055000Y-124739824D01*
X145053458Y-124771207D01*
X145048848Y-124802287D01*
X145041213Y-124832766D01*
X145030628Y-124862350D01*
X145017194Y-124890754D01*
X145001041Y-124917704D01*
X144982323Y-124942942D01*
X144961223Y-124966223D01*
X144937942Y-124987323D01*
X144912704Y-125006041D01*
X144885754Y-125022194D01*
X144857350Y-125035628D01*
X144827766Y-125046213D01*
X144797287Y-125053848D01*
X144766207Y-125058458D01*
X144734824Y-125060000D01*
X143225176Y-125060000D01*
X143193793Y-125058458D01*
X143162713Y-125053848D01*
X143132234Y-125046213D01*
X143102650Y-125035628D01*
X143074246Y-125022194D01*
X143047296Y-125006041D01*
X143022058Y-124987323D01*
X142998777Y-124966223D01*
X142977677Y-124942942D01*
X142958959Y-124917704D01*
X142942806Y-124890754D01*
X142929372Y-124862350D01*
X142918787Y-124832766D01*
X142911152Y-124802287D01*
X142906542Y-124771207D01*
X142905000Y-124739824D01*
X142905000Y-123555176D01*
X142906542Y-123523793D01*
X142911152Y-123492713D01*
X142918787Y-123462234D01*
X142929372Y-123432650D01*
X142942806Y-123404246D01*
X142958959Y-123377296D01*
X142977677Y-123352058D01*
X142998777Y-123328777D01*
X143022058Y-123307677D01*
X143047296Y-123288959D01*
X143074246Y-123272806D01*
X143102650Y-123259372D01*
X143132234Y-123248787D01*
X143162713Y-123241152D01*
X143193793Y-123236542D01*
X143225176Y-123235000D01*
X144734824Y-123235000D01*
X144766207Y-123236542D01*
X144766207Y-123236542D01*
G37*
D19*
X143980000Y-124147500D03*
D10*
G36*
X140956207Y-123236542D02*
G01*
X140987287Y-123241152D01*
X141017766Y-123248787D01*
X141047350Y-123259372D01*
X141075754Y-123272806D01*
X141102704Y-123288959D01*
X141127942Y-123307677D01*
X141151223Y-123328777D01*
X141172323Y-123352058D01*
X141191041Y-123377296D01*
X141207194Y-123404246D01*
X141220628Y-123432650D01*
X141231213Y-123462234D01*
X141238848Y-123492713D01*
X141243458Y-123523793D01*
X141245000Y-123555176D01*
X141245000Y-124739824D01*
X141243458Y-124771207D01*
X141238848Y-124802287D01*
X141231213Y-124832766D01*
X141220628Y-124862350D01*
X141207194Y-124890754D01*
X141191041Y-124917704D01*
X141172323Y-124942942D01*
X141151223Y-124966223D01*
X141127942Y-124987323D01*
X141102704Y-125006041D01*
X141075754Y-125022194D01*
X141047350Y-125035628D01*
X141017766Y-125046213D01*
X140987287Y-125053848D01*
X140956207Y-125058458D01*
X140924824Y-125060000D01*
X139415176Y-125060000D01*
X139383793Y-125058458D01*
X139352713Y-125053848D01*
X139322234Y-125046213D01*
X139292650Y-125035628D01*
X139264246Y-125022194D01*
X139237296Y-125006041D01*
X139212058Y-124987323D01*
X139188777Y-124966223D01*
X139167677Y-124942942D01*
X139148959Y-124917704D01*
X139132806Y-124890754D01*
X139119372Y-124862350D01*
X139108787Y-124832766D01*
X139101152Y-124802287D01*
X139096542Y-124771207D01*
X139095000Y-124739824D01*
X139095000Y-123555176D01*
X139096542Y-123523793D01*
X139101152Y-123492713D01*
X139108787Y-123462234D01*
X139119372Y-123432650D01*
X139132806Y-123404246D01*
X139148959Y-123377296D01*
X139167677Y-123352058D01*
X139188777Y-123328777D01*
X139212058Y-123307677D01*
X139237296Y-123288959D01*
X139264246Y-123272806D01*
X139292650Y-123259372D01*
X139322234Y-123248787D01*
X139352713Y-123241152D01*
X139383793Y-123236542D01*
X139415176Y-123235000D01*
X140924824Y-123235000D01*
X140956207Y-123236542D01*
X140956207Y-123236542D01*
G37*
D19*
X140170000Y-124147500D03*
D10*
G36*
X140956207Y-126211542D02*
G01*
X140987287Y-126216152D01*
X141017766Y-126223787D01*
X141047350Y-126234372D01*
X141075754Y-126247806D01*
X141102704Y-126263959D01*
X141127942Y-126282677D01*
X141151223Y-126303777D01*
X141172323Y-126327058D01*
X141191041Y-126352296D01*
X141207194Y-126379246D01*
X141220628Y-126407650D01*
X141231213Y-126437234D01*
X141238848Y-126467713D01*
X141243458Y-126498793D01*
X141245000Y-126530176D01*
X141245000Y-127714824D01*
X141243458Y-127746207D01*
X141238848Y-127777287D01*
X141231213Y-127807766D01*
X141220628Y-127837350D01*
X141207194Y-127865754D01*
X141191041Y-127892704D01*
X141172323Y-127917942D01*
X141151223Y-127941223D01*
X141127942Y-127962323D01*
X141102704Y-127981041D01*
X141075754Y-127997194D01*
X141047350Y-128010628D01*
X141017766Y-128021213D01*
X140987287Y-128028848D01*
X140956207Y-128033458D01*
X140924824Y-128035000D01*
X139415176Y-128035000D01*
X139383793Y-128033458D01*
X139352713Y-128028848D01*
X139322234Y-128021213D01*
X139292650Y-128010628D01*
X139264246Y-127997194D01*
X139237296Y-127981041D01*
X139212058Y-127962323D01*
X139188777Y-127941223D01*
X139167677Y-127917942D01*
X139148959Y-127892704D01*
X139132806Y-127865754D01*
X139119372Y-127837350D01*
X139108787Y-127807766D01*
X139101152Y-127777287D01*
X139096542Y-127746207D01*
X139095000Y-127714824D01*
X139095000Y-126530176D01*
X139096542Y-126498793D01*
X139101152Y-126467713D01*
X139108787Y-126437234D01*
X139119372Y-126407650D01*
X139132806Y-126379246D01*
X139148959Y-126352296D01*
X139167677Y-126327058D01*
X139188777Y-126303777D01*
X139212058Y-126282677D01*
X139237296Y-126263959D01*
X139264246Y-126247806D01*
X139292650Y-126234372D01*
X139322234Y-126223787D01*
X139352713Y-126216152D01*
X139383793Y-126211542D01*
X139415176Y-126210000D01*
X140924824Y-126210000D01*
X140956207Y-126211542D01*
X140956207Y-126211542D01*
G37*
D19*
X140170000Y-127122500D03*
D25*
X210312000Y-80772000D03*
X210312000Y-83312000D03*
X207772000Y-80772000D03*
D26*
X207772000Y-83312000D03*
D27*
X130010000Y-99210000D03*
D28*
X126200000Y-99210000D03*
D29*
X58600000Y-139450000D03*
D10*
G36*
X117716207Y-72736542D02*
G01*
X117747287Y-72741152D01*
X117777766Y-72748787D01*
X117807350Y-72759372D01*
X117835754Y-72772806D01*
X117862704Y-72788959D01*
X117887942Y-72807677D01*
X117911223Y-72828777D01*
X117932323Y-72852058D01*
X117951041Y-72877296D01*
X117967194Y-72904246D01*
X117980628Y-72932650D01*
X117991213Y-72962234D01*
X117998848Y-72992713D01*
X118003458Y-73023793D01*
X118005000Y-73055176D01*
X118005000Y-74564824D01*
X118003458Y-74596207D01*
X117998848Y-74627287D01*
X117991213Y-74657766D01*
X117980628Y-74687350D01*
X117967194Y-74715754D01*
X117951041Y-74742704D01*
X117932323Y-74767942D01*
X117911223Y-74791223D01*
X117887942Y-74812323D01*
X117862704Y-74831041D01*
X117835754Y-74847194D01*
X117807350Y-74860628D01*
X117777766Y-74871213D01*
X117747287Y-74878848D01*
X117716207Y-74883458D01*
X117684824Y-74885000D01*
X116500176Y-74885000D01*
X116468793Y-74883458D01*
X116437713Y-74878848D01*
X116407234Y-74871213D01*
X116377650Y-74860628D01*
X116349246Y-74847194D01*
X116322296Y-74831041D01*
X116297058Y-74812323D01*
X116273777Y-74791223D01*
X116252677Y-74767942D01*
X116233959Y-74742704D01*
X116217806Y-74715754D01*
X116204372Y-74687350D01*
X116193787Y-74657766D01*
X116186152Y-74627287D01*
X116181542Y-74596207D01*
X116180000Y-74564824D01*
X116180000Y-73055176D01*
X116181542Y-73023793D01*
X116186152Y-72992713D01*
X116193787Y-72962234D01*
X116204372Y-72932650D01*
X116217806Y-72904246D01*
X116233959Y-72877296D01*
X116252677Y-72852058D01*
X116273777Y-72828777D01*
X116297058Y-72807677D01*
X116322296Y-72788959D01*
X116349246Y-72772806D01*
X116377650Y-72759372D01*
X116407234Y-72748787D01*
X116437713Y-72741152D01*
X116468793Y-72736542D01*
X116500176Y-72735000D01*
X117684824Y-72735000D01*
X117716207Y-72736542D01*
X117716207Y-72736542D01*
G37*
D19*
X117092500Y-73810000D03*
D10*
G36*
X120691207Y-72736542D02*
G01*
X120722287Y-72741152D01*
X120752766Y-72748787D01*
X120782350Y-72759372D01*
X120810754Y-72772806D01*
X120837704Y-72788959D01*
X120862942Y-72807677D01*
X120886223Y-72828777D01*
X120907323Y-72852058D01*
X120926041Y-72877296D01*
X120942194Y-72904246D01*
X120955628Y-72932650D01*
X120966213Y-72962234D01*
X120973848Y-72992713D01*
X120978458Y-73023793D01*
X120980000Y-73055176D01*
X120980000Y-74564824D01*
X120978458Y-74596207D01*
X120973848Y-74627287D01*
X120966213Y-74657766D01*
X120955628Y-74687350D01*
X120942194Y-74715754D01*
X120926041Y-74742704D01*
X120907323Y-74767942D01*
X120886223Y-74791223D01*
X120862942Y-74812323D01*
X120837704Y-74831041D01*
X120810754Y-74847194D01*
X120782350Y-74860628D01*
X120752766Y-74871213D01*
X120722287Y-74878848D01*
X120691207Y-74883458D01*
X120659824Y-74885000D01*
X119475176Y-74885000D01*
X119443793Y-74883458D01*
X119412713Y-74878848D01*
X119382234Y-74871213D01*
X119352650Y-74860628D01*
X119324246Y-74847194D01*
X119297296Y-74831041D01*
X119272058Y-74812323D01*
X119248777Y-74791223D01*
X119227677Y-74767942D01*
X119208959Y-74742704D01*
X119192806Y-74715754D01*
X119179372Y-74687350D01*
X119168787Y-74657766D01*
X119161152Y-74627287D01*
X119156542Y-74596207D01*
X119155000Y-74564824D01*
X119155000Y-73055176D01*
X119156542Y-73023793D01*
X119161152Y-72992713D01*
X119168787Y-72962234D01*
X119179372Y-72932650D01*
X119192806Y-72904246D01*
X119208959Y-72877296D01*
X119227677Y-72852058D01*
X119248777Y-72828777D01*
X119272058Y-72807677D01*
X119297296Y-72788959D01*
X119324246Y-72772806D01*
X119352650Y-72759372D01*
X119382234Y-72748787D01*
X119412713Y-72741152D01*
X119443793Y-72736542D01*
X119475176Y-72735000D01*
X120659824Y-72735000D01*
X120691207Y-72736542D01*
X120691207Y-72736542D01*
G37*
D19*
X120067500Y-73810000D03*
D10*
G36*
X133501207Y-75071542D02*
G01*
X133532287Y-75076152D01*
X133562766Y-75083787D01*
X133592350Y-75094372D01*
X133620754Y-75107806D01*
X133647704Y-75123959D01*
X133672942Y-75142677D01*
X133696223Y-75163777D01*
X133717323Y-75187058D01*
X133736041Y-75212296D01*
X133752194Y-75239246D01*
X133765628Y-75267650D01*
X133776213Y-75297234D01*
X133783848Y-75327713D01*
X133788458Y-75358793D01*
X133790000Y-75390176D01*
X133790000Y-76574824D01*
X133788458Y-76606207D01*
X133783848Y-76637287D01*
X133776213Y-76667766D01*
X133765628Y-76697350D01*
X133752194Y-76725754D01*
X133736041Y-76752704D01*
X133717323Y-76777942D01*
X133696223Y-76801223D01*
X133672942Y-76822323D01*
X133647704Y-76841041D01*
X133620754Y-76857194D01*
X133592350Y-76870628D01*
X133562766Y-76881213D01*
X133532287Y-76888848D01*
X133501207Y-76893458D01*
X133469824Y-76895000D01*
X131960176Y-76895000D01*
X131928793Y-76893458D01*
X131897713Y-76888848D01*
X131867234Y-76881213D01*
X131837650Y-76870628D01*
X131809246Y-76857194D01*
X131782296Y-76841041D01*
X131757058Y-76822323D01*
X131733777Y-76801223D01*
X131712677Y-76777942D01*
X131693959Y-76752704D01*
X131677806Y-76725754D01*
X131664372Y-76697350D01*
X131653787Y-76667766D01*
X131646152Y-76637287D01*
X131641542Y-76606207D01*
X131640000Y-76574824D01*
X131640000Y-75390176D01*
X131641542Y-75358793D01*
X131646152Y-75327713D01*
X131653787Y-75297234D01*
X131664372Y-75267650D01*
X131677806Y-75239246D01*
X131693959Y-75212296D01*
X131712677Y-75187058D01*
X131733777Y-75163777D01*
X131757058Y-75142677D01*
X131782296Y-75123959D01*
X131809246Y-75107806D01*
X131837650Y-75094372D01*
X131867234Y-75083787D01*
X131897713Y-75076152D01*
X131928793Y-75071542D01*
X131960176Y-75070000D01*
X133469824Y-75070000D01*
X133501207Y-75071542D01*
X133501207Y-75071542D01*
G37*
D19*
X132715000Y-75982500D03*
D10*
G36*
X133501207Y-78046542D02*
G01*
X133532287Y-78051152D01*
X133562766Y-78058787D01*
X133592350Y-78069372D01*
X133620754Y-78082806D01*
X133647704Y-78098959D01*
X133672942Y-78117677D01*
X133696223Y-78138777D01*
X133717323Y-78162058D01*
X133736041Y-78187296D01*
X133752194Y-78214246D01*
X133765628Y-78242650D01*
X133776213Y-78272234D01*
X133783848Y-78302713D01*
X133788458Y-78333793D01*
X133790000Y-78365176D01*
X133790000Y-79549824D01*
X133788458Y-79581207D01*
X133783848Y-79612287D01*
X133776213Y-79642766D01*
X133765628Y-79672350D01*
X133752194Y-79700754D01*
X133736041Y-79727704D01*
X133717323Y-79752942D01*
X133696223Y-79776223D01*
X133672942Y-79797323D01*
X133647704Y-79816041D01*
X133620754Y-79832194D01*
X133592350Y-79845628D01*
X133562766Y-79856213D01*
X133532287Y-79863848D01*
X133501207Y-79868458D01*
X133469824Y-79870000D01*
X131960176Y-79870000D01*
X131928793Y-79868458D01*
X131897713Y-79863848D01*
X131867234Y-79856213D01*
X131837650Y-79845628D01*
X131809246Y-79832194D01*
X131782296Y-79816041D01*
X131757058Y-79797323D01*
X131733777Y-79776223D01*
X131712677Y-79752942D01*
X131693959Y-79727704D01*
X131677806Y-79700754D01*
X131664372Y-79672350D01*
X131653787Y-79642766D01*
X131646152Y-79612287D01*
X131641542Y-79581207D01*
X131640000Y-79549824D01*
X131640000Y-78365176D01*
X131641542Y-78333793D01*
X131646152Y-78302713D01*
X131653787Y-78272234D01*
X131664372Y-78242650D01*
X131677806Y-78214246D01*
X131693959Y-78187296D01*
X131712677Y-78162058D01*
X131733777Y-78138777D01*
X131757058Y-78117677D01*
X131782296Y-78098959D01*
X131809246Y-78082806D01*
X131837650Y-78069372D01*
X131867234Y-78058787D01*
X131897713Y-78051152D01*
X131928793Y-78046542D01*
X131960176Y-78045000D01*
X133469824Y-78045000D01*
X133501207Y-78046542D01*
X133501207Y-78046542D01*
G37*
D19*
X132715000Y-78957500D03*
D10*
G36*
X117246207Y-54806542D02*
G01*
X117277287Y-54811152D01*
X117307766Y-54818787D01*
X117337350Y-54829372D01*
X117365754Y-54842806D01*
X117392704Y-54858959D01*
X117417942Y-54877677D01*
X117441223Y-54898777D01*
X117462323Y-54922058D01*
X117481041Y-54947296D01*
X117497194Y-54974246D01*
X117510628Y-55002650D01*
X117521213Y-55032234D01*
X117528848Y-55062713D01*
X117533458Y-55093793D01*
X117535000Y-55125176D01*
X117535000Y-56634824D01*
X117533458Y-56666207D01*
X117528848Y-56697287D01*
X117521213Y-56727766D01*
X117510628Y-56757350D01*
X117497194Y-56785754D01*
X117481041Y-56812704D01*
X117462323Y-56837942D01*
X117441223Y-56861223D01*
X117417942Y-56882323D01*
X117392704Y-56901041D01*
X117365754Y-56917194D01*
X117337350Y-56930628D01*
X117307766Y-56941213D01*
X117277287Y-56948848D01*
X117246207Y-56953458D01*
X117214824Y-56955000D01*
X116030176Y-56955000D01*
X115998793Y-56953458D01*
X115967713Y-56948848D01*
X115937234Y-56941213D01*
X115907650Y-56930628D01*
X115879246Y-56917194D01*
X115852296Y-56901041D01*
X115827058Y-56882323D01*
X115803777Y-56861223D01*
X115782677Y-56837942D01*
X115763959Y-56812704D01*
X115747806Y-56785754D01*
X115734372Y-56757350D01*
X115723787Y-56727766D01*
X115716152Y-56697287D01*
X115711542Y-56666207D01*
X115710000Y-56634824D01*
X115710000Y-55125176D01*
X115711542Y-55093793D01*
X115716152Y-55062713D01*
X115723787Y-55032234D01*
X115734372Y-55002650D01*
X115747806Y-54974246D01*
X115763959Y-54947296D01*
X115782677Y-54922058D01*
X115803777Y-54898777D01*
X115827058Y-54877677D01*
X115852296Y-54858959D01*
X115879246Y-54842806D01*
X115907650Y-54829372D01*
X115937234Y-54818787D01*
X115967713Y-54811152D01*
X115998793Y-54806542D01*
X116030176Y-54805000D01*
X117214824Y-54805000D01*
X117246207Y-54806542D01*
X117246207Y-54806542D01*
G37*
D19*
X116622500Y-55880000D03*
D10*
G36*
X120221207Y-54806542D02*
G01*
X120252287Y-54811152D01*
X120282766Y-54818787D01*
X120312350Y-54829372D01*
X120340754Y-54842806D01*
X120367704Y-54858959D01*
X120392942Y-54877677D01*
X120416223Y-54898777D01*
X120437323Y-54922058D01*
X120456041Y-54947296D01*
X120472194Y-54974246D01*
X120485628Y-55002650D01*
X120496213Y-55032234D01*
X120503848Y-55062713D01*
X120508458Y-55093793D01*
X120510000Y-55125176D01*
X120510000Y-56634824D01*
X120508458Y-56666207D01*
X120503848Y-56697287D01*
X120496213Y-56727766D01*
X120485628Y-56757350D01*
X120472194Y-56785754D01*
X120456041Y-56812704D01*
X120437323Y-56837942D01*
X120416223Y-56861223D01*
X120392942Y-56882323D01*
X120367704Y-56901041D01*
X120340754Y-56917194D01*
X120312350Y-56930628D01*
X120282766Y-56941213D01*
X120252287Y-56948848D01*
X120221207Y-56953458D01*
X120189824Y-56955000D01*
X119005176Y-56955000D01*
X118973793Y-56953458D01*
X118942713Y-56948848D01*
X118912234Y-56941213D01*
X118882650Y-56930628D01*
X118854246Y-56917194D01*
X118827296Y-56901041D01*
X118802058Y-56882323D01*
X118778777Y-56861223D01*
X118757677Y-56837942D01*
X118738959Y-56812704D01*
X118722806Y-56785754D01*
X118709372Y-56757350D01*
X118698787Y-56727766D01*
X118691152Y-56697287D01*
X118686542Y-56666207D01*
X118685000Y-56634824D01*
X118685000Y-55125176D01*
X118686542Y-55093793D01*
X118691152Y-55062713D01*
X118698787Y-55032234D01*
X118709372Y-55002650D01*
X118722806Y-54974246D01*
X118738959Y-54947296D01*
X118757677Y-54922058D01*
X118778777Y-54898777D01*
X118802058Y-54877677D01*
X118827296Y-54858959D01*
X118854246Y-54842806D01*
X118882650Y-54829372D01*
X118912234Y-54818787D01*
X118942713Y-54811152D01*
X118973793Y-54806542D01*
X119005176Y-54805000D01*
X120189824Y-54805000D01*
X120221207Y-54806542D01*
X120221207Y-54806542D01*
G37*
D19*
X119597500Y-55880000D03*
D10*
G36*
X120674207Y-101197042D02*
G01*
X120705287Y-101201652D01*
X120735766Y-101209287D01*
X120765350Y-101219872D01*
X120793754Y-101233306D01*
X120820704Y-101249459D01*
X120845942Y-101268177D01*
X120869223Y-101289277D01*
X120890323Y-101312558D01*
X120909041Y-101337796D01*
X120925194Y-101364746D01*
X120938628Y-101393150D01*
X120949213Y-101422734D01*
X120956848Y-101453213D01*
X120961458Y-101484293D01*
X120963000Y-101515676D01*
X120963000Y-102700324D01*
X120961458Y-102731707D01*
X120956848Y-102762787D01*
X120949213Y-102793266D01*
X120938628Y-102822850D01*
X120925194Y-102851254D01*
X120909041Y-102878204D01*
X120890323Y-102903442D01*
X120869223Y-102926723D01*
X120845942Y-102947823D01*
X120820704Y-102966541D01*
X120793754Y-102982694D01*
X120765350Y-102996128D01*
X120735766Y-103006713D01*
X120705287Y-103014348D01*
X120674207Y-103018958D01*
X120642824Y-103020500D01*
X119133176Y-103020500D01*
X119101793Y-103018958D01*
X119070713Y-103014348D01*
X119040234Y-103006713D01*
X119010650Y-102996128D01*
X118982246Y-102982694D01*
X118955296Y-102966541D01*
X118930058Y-102947823D01*
X118906777Y-102926723D01*
X118885677Y-102903442D01*
X118866959Y-102878204D01*
X118850806Y-102851254D01*
X118837372Y-102822850D01*
X118826787Y-102793266D01*
X118819152Y-102762787D01*
X118814542Y-102731707D01*
X118813000Y-102700324D01*
X118813000Y-101515676D01*
X118814542Y-101484293D01*
X118819152Y-101453213D01*
X118826787Y-101422734D01*
X118837372Y-101393150D01*
X118850806Y-101364746D01*
X118866959Y-101337796D01*
X118885677Y-101312558D01*
X118906777Y-101289277D01*
X118930058Y-101268177D01*
X118955296Y-101249459D01*
X118982246Y-101233306D01*
X119010650Y-101219872D01*
X119040234Y-101209287D01*
X119070713Y-101201652D01*
X119101793Y-101197042D01*
X119133176Y-101195500D01*
X120642824Y-101195500D01*
X120674207Y-101197042D01*
X120674207Y-101197042D01*
G37*
D19*
X119888000Y-102108000D03*
D10*
G36*
X120674207Y-98222042D02*
G01*
X120705287Y-98226652D01*
X120735766Y-98234287D01*
X120765350Y-98244872D01*
X120793754Y-98258306D01*
X120820704Y-98274459D01*
X120845942Y-98293177D01*
X120869223Y-98314277D01*
X120890323Y-98337558D01*
X120909041Y-98362796D01*
X120925194Y-98389746D01*
X120938628Y-98418150D01*
X120949213Y-98447734D01*
X120956848Y-98478213D01*
X120961458Y-98509293D01*
X120963000Y-98540676D01*
X120963000Y-99725324D01*
X120961458Y-99756707D01*
X120956848Y-99787787D01*
X120949213Y-99818266D01*
X120938628Y-99847850D01*
X120925194Y-99876254D01*
X120909041Y-99903204D01*
X120890323Y-99928442D01*
X120869223Y-99951723D01*
X120845942Y-99972823D01*
X120820704Y-99991541D01*
X120793754Y-100007694D01*
X120765350Y-100021128D01*
X120735766Y-100031713D01*
X120705287Y-100039348D01*
X120674207Y-100043958D01*
X120642824Y-100045500D01*
X119133176Y-100045500D01*
X119101793Y-100043958D01*
X119070713Y-100039348D01*
X119040234Y-100031713D01*
X119010650Y-100021128D01*
X118982246Y-100007694D01*
X118955296Y-99991541D01*
X118930058Y-99972823D01*
X118906777Y-99951723D01*
X118885677Y-99928442D01*
X118866959Y-99903204D01*
X118850806Y-99876254D01*
X118837372Y-99847850D01*
X118826787Y-99818266D01*
X118819152Y-99787787D01*
X118814542Y-99756707D01*
X118813000Y-99725324D01*
X118813000Y-98540676D01*
X118814542Y-98509293D01*
X118819152Y-98478213D01*
X118826787Y-98447734D01*
X118837372Y-98418150D01*
X118850806Y-98389746D01*
X118866959Y-98362796D01*
X118885677Y-98337558D01*
X118906777Y-98314277D01*
X118930058Y-98293177D01*
X118955296Y-98274459D01*
X118982246Y-98258306D01*
X119010650Y-98244872D01*
X119040234Y-98234287D01*
X119070713Y-98226652D01*
X119101793Y-98222042D01*
X119133176Y-98220500D01*
X120642824Y-98220500D01*
X120674207Y-98222042D01*
X120674207Y-98222042D01*
G37*
D19*
X119888000Y-99133000D03*
D10*
G36*
X145846207Y-131156542D02*
G01*
X145877287Y-131161152D01*
X145907766Y-131168787D01*
X145937350Y-131179372D01*
X145965754Y-131192806D01*
X145992704Y-131208959D01*
X146017942Y-131227677D01*
X146041223Y-131248777D01*
X146062323Y-131272058D01*
X146081041Y-131297296D01*
X146097194Y-131324246D01*
X146110628Y-131352650D01*
X146121213Y-131382234D01*
X146128848Y-131412713D01*
X146133458Y-131443793D01*
X146135000Y-131475176D01*
X146135000Y-132984824D01*
X146133458Y-133016207D01*
X146128848Y-133047287D01*
X146121213Y-133077766D01*
X146110628Y-133107350D01*
X146097194Y-133135754D01*
X146081041Y-133162704D01*
X146062323Y-133187942D01*
X146041223Y-133211223D01*
X146017942Y-133232323D01*
X145992704Y-133251041D01*
X145965754Y-133267194D01*
X145937350Y-133280628D01*
X145907766Y-133291213D01*
X145877287Y-133298848D01*
X145846207Y-133303458D01*
X145814824Y-133305000D01*
X144630176Y-133305000D01*
X144598793Y-133303458D01*
X144567713Y-133298848D01*
X144537234Y-133291213D01*
X144507650Y-133280628D01*
X144479246Y-133267194D01*
X144452296Y-133251041D01*
X144427058Y-133232323D01*
X144403777Y-133211223D01*
X144382677Y-133187942D01*
X144363959Y-133162704D01*
X144347806Y-133135754D01*
X144334372Y-133107350D01*
X144323787Y-133077766D01*
X144316152Y-133047287D01*
X144311542Y-133016207D01*
X144310000Y-132984824D01*
X144310000Y-131475176D01*
X144311542Y-131443793D01*
X144316152Y-131412713D01*
X144323787Y-131382234D01*
X144334372Y-131352650D01*
X144347806Y-131324246D01*
X144363959Y-131297296D01*
X144382677Y-131272058D01*
X144403777Y-131248777D01*
X144427058Y-131227677D01*
X144452296Y-131208959D01*
X144479246Y-131192806D01*
X144507650Y-131179372D01*
X144537234Y-131168787D01*
X144567713Y-131161152D01*
X144598793Y-131156542D01*
X144630176Y-131155000D01*
X145814824Y-131155000D01*
X145846207Y-131156542D01*
X145846207Y-131156542D01*
G37*
D19*
X145222500Y-132230000D03*
D10*
G36*
X142871207Y-131156542D02*
G01*
X142902287Y-131161152D01*
X142932766Y-131168787D01*
X142962350Y-131179372D01*
X142990754Y-131192806D01*
X143017704Y-131208959D01*
X143042942Y-131227677D01*
X143066223Y-131248777D01*
X143087323Y-131272058D01*
X143106041Y-131297296D01*
X143122194Y-131324246D01*
X143135628Y-131352650D01*
X143146213Y-131382234D01*
X143153848Y-131412713D01*
X143158458Y-131443793D01*
X143160000Y-131475176D01*
X143160000Y-132984824D01*
X143158458Y-133016207D01*
X143153848Y-133047287D01*
X143146213Y-133077766D01*
X143135628Y-133107350D01*
X143122194Y-133135754D01*
X143106041Y-133162704D01*
X143087323Y-133187942D01*
X143066223Y-133211223D01*
X143042942Y-133232323D01*
X143017704Y-133251041D01*
X142990754Y-133267194D01*
X142962350Y-133280628D01*
X142932766Y-133291213D01*
X142902287Y-133298848D01*
X142871207Y-133303458D01*
X142839824Y-133305000D01*
X141655176Y-133305000D01*
X141623793Y-133303458D01*
X141592713Y-133298848D01*
X141562234Y-133291213D01*
X141532650Y-133280628D01*
X141504246Y-133267194D01*
X141477296Y-133251041D01*
X141452058Y-133232323D01*
X141428777Y-133211223D01*
X141407677Y-133187942D01*
X141388959Y-133162704D01*
X141372806Y-133135754D01*
X141359372Y-133107350D01*
X141348787Y-133077766D01*
X141341152Y-133047287D01*
X141336542Y-133016207D01*
X141335000Y-132984824D01*
X141335000Y-131475176D01*
X141336542Y-131443793D01*
X141341152Y-131412713D01*
X141348787Y-131382234D01*
X141359372Y-131352650D01*
X141372806Y-131324246D01*
X141388959Y-131297296D01*
X141407677Y-131272058D01*
X141428777Y-131248777D01*
X141452058Y-131227677D01*
X141477296Y-131208959D01*
X141504246Y-131192806D01*
X141532650Y-131179372D01*
X141562234Y-131168787D01*
X141592713Y-131161152D01*
X141623793Y-131156542D01*
X141655176Y-131155000D01*
X142839824Y-131155000D01*
X142871207Y-131156542D01*
X142871207Y-131156542D01*
G37*
D19*
X142247500Y-132230000D03*
D10*
G36*
X148576207Y-126211542D02*
G01*
X148607287Y-126216152D01*
X148637766Y-126223787D01*
X148667350Y-126234372D01*
X148695754Y-126247806D01*
X148722704Y-126263959D01*
X148747942Y-126282677D01*
X148771223Y-126303777D01*
X148792323Y-126327058D01*
X148811041Y-126352296D01*
X148827194Y-126379246D01*
X148840628Y-126407650D01*
X148851213Y-126437234D01*
X148858848Y-126467713D01*
X148863458Y-126498793D01*
X148865000Y-126530176D01*
X148865000Y-127714824D01*
X148863458Y-127746207D01*
X148858848Y-127777287D01*
X148851213Y-127807766D01*
X148840628Y-127837350D01*
X148827194Y-127865754D01*
X148811041Y-127892704D01*
X148792323Y-127917942D01*
X148771223Y-127941223D01*
X148747942Y-127962323D01*
X148722704Y-127981041D01*
X148695754Y-127997194D01*
X148667350Y-128010628D01*
X148637766Y-128021213D01*
X148607287Y-128028848D01*
X148576207Y-128033458D01*
X148544824Y-128035000D01*
X147035176Y-128035000D01*
X147003793Y-128033458D01*
X146972713Y-128028848D01*
X146942234Y-128021213D01*
X146912650Y-128010628D01*
X146884246Y-127997194D01*
X146857296Y-127981041D01*
X146832058Y-127962323D01*
X146808777Y-127941223D01*
X146787677Y-127917942D01*
X146768959Y-127892704D01*
X146752806Y-127865754D01*
X146739372Y-127837350D01*
X146728787Y-127807766D01*
X146721152Y-127777287D01*
X146716542Y-127746207D01*
X146715000Y-127714824D01*
X146715000Y-126530176D01*
X146716542Y-126498793D01*
X146721152Y-126467713D01*
X146728787Y-126437234D01*
X146739372Y-126407650D01*
X146752806Y-126379246D01*
X146768959Y-126352296D01*
X146787677Y-126327058D01*
X146808777Y-126303777D01*
X146832058Y-126282677D01*
X146857296Y-126263959D01*
X146884246Y-126247806D01*
X146912650Y-126234372D01*
X146942234Y-126223787D01*
X146972713Y-126216152D01*
X147003793Y-126211542D01*
X147035176Y-126210000D01*
X148544824Y-126210000D01*
X148576207Y-126211542D01*
X148576207Y-126211542D01*
G37*
D19*
X147790000Y-127122500D03*
D10*
G36*
X148576207Y-123236542D02*
G01*
X148607287Y-123241152D01*
X148637766Y-123248787D01*
X148667350Y-123259372D01*
X148695754Y-123272806D01*
X148722704Y-123288959D01*
X148747942Y-123307677D01*
X148771223Y-123328777D01*
X148792323Y-123352058D01*
X148811041Y-123377296D01*
X148827194Y-123404246D01*
X148840628Y-123432650D01*
X148851213Y-123462234D01*
X148858848Y-123492713D01*
X148863458Y-123523793D01*
X148865000Y-123555176D01*
X148865000Y-124739824D01*
X148863458Y-124771207D01*
X148858848Y-124802287D01*
X148851213Y-124832766D01*
X148840628Y-124862350D01*
X148827194Y-124890754D01*
X148811041Y-124917704D01*
X148792323Y-124942942D01*
X148771223Y-124966223D01*
X148747942Y-124987323D01*
X148722704Y-125006041D01*
X148695754Y-125022194D01*
X148667350Y-125035628D01*
X148637766Y-125046213D01*
X148607287Y-125053848D01*
X148576207Y-125058458D01*
X148544824Y-125060000D01*
X147035176Y-125060000D01*
X147003793Y-125058458D01*
X146972713Y-125053848D01*
X146942234Y-125046213D01*
X146912650Y-125035628D01*
X146884246Y-125022194D01*
X146857296Y-125006041D01*
X146832058Y-124987323D01*
X146808777Y-124966223D01*
X146787677Y-124942942D01*
X146768959Y-124917704D01*
X146752806Y-124890754D01*
X146739372Y-124862350D01*
X146728787Y-124832766D01*
X146721152Y-124802287D01*
X146716542Y-124771207D01*
X146715000Y-124739824D01*
X146715000Y-123555176D01*
X146716542Y-123523793D01*
X146721152Y-123492713D01*
X146728787Y-123462234D01*
X146739372Y-123432650D01*
X146752806Y-123404246D01*
X146768959Y-123377296D01*
X146787677Y-123352058D01*
X146808777Y-123328777D01*
X146832058Y-123307677D01*
X146857296Y-123288959D01*
X146884246Y-123272806D01*
X146912650Y-123259372D01*
X146942234Y-123248787D01*
X146972713Y-123241152D01*
X147003793Y-123236542D01*
X147035176Y-123235000D01*
X148544824Y-123235000D01*
X148576207Y-123236542D01*
X148576207Y-123236542D01*
G37*
D19*
X147790000Y-124147500D03*
D30*
X130530000Y-109135000D03*
D31*
X121380000Y-111675000D03*
X121380000Y-109135000D03*
X121380000Y-106595000D03*
D22*
X117350000Y-63650000D03*
D13*
X119850000Y-63650000D03*
D22*
X114810000Y-94130000D03*
D13*
X117310000Y-94130000D03*
D22*
X143970000Y-139850000D03*
D13*
X140170000Y-139850000D03*
D25*
X178600000Y-49380000D03*
X178600000Y-51920000D03*
X176060000Y-49380000D03*
X176060000Y-51920000D03*
X173520000Y-49380000D03*
X173520000Y-51920000D03*
X170980000Y-49380000D03*
X170980000Y-51920000D03*
X168440000Y-49380000D03*
X168440000Y-51920000D03*
X165900000Y-49380000D03*
X165900000Y-51920000D03*
X163360000Y-49380000D03*
X163360000Y-51920000D03*
X160820000Y-49380000D03*
X160820000Y-51920000D03*
X158280000Y-49380000D03*
X158280000Y-51920000D03*
X155740000Y-49380000D03*
D26*
X155740000Y-51920000D03*
D25*
X178600000Y-54460000D03*
X178600000Y-57000000D03*
X176060000Y-54460000D03*
X176060000Y-57000000D03*
X173520000Y-54460000D03*
X173520000Y-57000000D03*
X170980000Y-54460000D03*
X170980000Y-57000000D03*
X168440000Y-54460000D03*
X168440000Y-57000000D03*
X165900000Y-54460000D03*
X165900000Y-57000000D03*
X163360000Y-54460000D03*
X163360000Y-57000000D03*
X160820000Y-54460000D03*
X160820000Y-57000000D03*
X158280000Y-54460000D03*
X158280000Y-57000000D03*
X155740000Y-54460000D03*
D26*
X155740000Y-57000000D03*
D25*
X178600000Y-59540000D03*
X178600000Y-62080000D03*
X176060000Y-59540000D03*
X176060000Y-62080000D03*
X173520000Y-59540000D03*
X173520000Y-62080000D03*
X170980000Y-59540000D03*
X170980000Y-62080000D03*
X168440000Y-59540000D03*
X168440000Y-62080000D03*
X165900000Y-59540000D03*
X165900000Y-62080000D03*
X163360000Y-59540000D03*
X163360000Y-62080000D03*
X160820000Y-59540000D03*
X160820000Y-62080000D03*
X158280000Y-59540000D03*
X158280000Y-62080000D03*
X155740000Y-59540000D03*
D26*
X155740000Y-62080000D03*
D27*
X126200000Y-87780000D03*
D28*
X130010000Y-87780000D03*
D20*
X107150000Y-122070000D03*
D21*
X102070000Y-122070000D03*
D32*
X108420000Y-128420000D03*
D33*
X100800000Y-128420000D03*
D25*
X211290000Y-96670000D03*
X208750000Y-96670000D03*
D26*
X206210000Y-96670000D03*
D25*
X211290000Y-90320000D03*
X208750000Y-90320000D03*
D26*
X206210000Y-90320000D03*
D25*
X163030000Y-137310000D03*
X163030000Y-139850000D03*
X160490000Y-137310000D03*
X160490000Y-139850000D03*
X157950000Y-137310000D03*
X157950000Y-139850000D03*
X155410000Y-137310000D03*
X155410000Y-139850000D03*
X152870000Y-137310000D03*
D26*
X152870000Y-139850000D03*
D27*
X130010000Y-94130000D03*
D28*
X126200000Y-94130000D03*
D27*
X130010000Y-141120000D03*
D28*
X126200000Y-141120000D03*
D32*
X108420000Y-136040000D03*
D33*
X100800000Y-136040000D03*
D25*
X198590000Y-137310000D03*
X198590000Y-139850000D03*
X196050000Y-137310000D03*
X196050000Y-139850000D03*
X193510000Y-137310000D03*
D26*
X193510000Y-139850000D03*
D25*
X180810000Y-137310000D03*
X180810000Y-139850000D03*
X178270000Y-137310000D03*
X178270000Y-139850000D03*
X175730000Y-137310000D03*
D26*
X175730000Y-139850000D03*
D25*
X192240000Y-119530000D03*
X189700000Y-119530000D03*
X187160000Y-119530000D03*
X184620000Y-119530000D03*
X182080000Y-119530000D03*
X179540000Y-119530000D03*
X177000000Y-119530000D03*
X174460000Y-119530000D03*
X171920000Y-119530000D03*
X169380000Y-119530000D03*
X166840000Y-119530000D03*
X164300000Y-119530000D03*
X161760000Y-119530000D03*
X159220000Y-119530000D03*
X156680000Y-119530000D03*
X154140000Y-119530000D03*
X151600000Y-119530000D03*
X149060000Y-119530000D03*
X146520000Y-119530000D03*
D26*
X143980000Y-119530000D03*
D25*
X192240000Y-91590000D03*
X189700000Y-91590000D03*
X187160000Y-91590000D03*
X184620000Y-91590000D03*
X182080000Y-91590000D03*
X179540000Y-91590000D03*
X177000000Y-91590000D03*
X174460000Y-91590000D03*
X171920000Y-91590000D03*
X169380000Y-91590000D03*
X166840000Y-91590000D03*
X164300000Y-91590000D03*
X161760000Y-91590000D03*
X159220000Y-91590000D03*
X156680000Y-91590000D03*
X154140000Y-91590000D03*
X151600000Y-91590000D03*
X149060000Y-91590000D03*
X146520000Y-91590000D03*
D26*
X143980000Y-91590000D03*
D25*
X143256000Y-67056000D03*
X145796000Y-67056000D03*
X148336000Y-67056000D03*
X150876000Y-67056000D03*
X153416000Y-67056000D03*
X155956000Y-67056000D03*
X158496000Y-67056000D03*
X161036000Y-67056000D03*
X163576000Y-67056000D03*
X166116000Y-67056000D03*
X168656000Y-67056000D03*
X171196000Y-67056000D03*
X173736000Y-67056000D03*
X176276000Y-67056000D03*
X178816000Y-67056000D03*
X181356000Y-67056000D03*
X183896000Y-67056000D03*
X186436000Y-67056000D03*
X188976000Y-67056000D03*
D26*
X191516000Y-67056000D03*
D25*
X143256000Y-80264000D03*
X145796000Y-80264000D03*
X148336000Y-80264000D03*
X150876000Y-80264000D03*
X153416000Y-80264000D03*
X155956000Y-80264000D03*
X158496000Y-80264000D03*
X161036000Y-80264000D03*
X163576000Y-80264000D03*
X166116000Y-80264000D03*
X168656000Y-80264000D03*
X171196000Y-80264000D03*
X173736000Y-80264000D03*
X176276000Y-80264000D03*
X178816000Y-80264000D03*
X181356000Y-80264000D03*
X183896000Y-80264000D03*
X186436000Y-80264000D03*
X188976000Y-80264000D03*
D26*
X191516000Y-80264000D03*
D29*
X58600000Y-50550000D03*
X212240000Y-139450000D03*
X212240000Y-50550000D03*
M02*
