M48
; DRILL file {KiCad (5.1.2)-2} date 2019-06-10 17:11:58
; FORMAT={3:3/ absolute / metric / suppress leading zeros}
; #@! TF.CreationDate,2019-06-10T17:11:58+02:00
; #@! TF.GenerationSoftware,Kicad,Pcbnew,(5.1.2)-2
FMAT,2
METRIC,TZ
T1C0.330
T2C0.400
T3C0.762
T4C0.800
T5C1.000
T6C1.199
T7C1.501
T8C2.499
T9C2.700
T10C2.750
T11C3.200
%
G90
G05
T1
X69820Y-111618
X69820Y-112918
X71120Y-111618
X71120Y-112918
X72420Y-111618
X72420Y-112918
X83663Y-111445
X83663Y-112745
X84963Y-111445
X84963Y-112745
X86263Y-111445
X86263Y-112745
T2
X65024Y-93472
X65786Y-115570
X67056Y-117348
X68072Y-115824
X68072Y-117348
X70612Y-92964
X72136Y-89708
X72136Y-96520
X73025Y-109393
X74168Y-112268
X75184Y-112268
X75692Y-128524
X75693Y-101416
X76200Y-112268
X77216Y-112268
X78232Y-112268
X78740Y-101092
X78740Y-103632
X79248Y-112268
X79248Y-115824
X79248Y-116840
X80264Y-112268
X80772Y-115824
X80772Y-116840
X81280Y-112268
X81280Y-128524
X86360Y-86360
X86868Y-109220
X91186Y-102870
X91440Y-97536
X93472Y-93545
X96012Y-96520
X99060Y-106172
X101092Y-106172
X114300Y-73660
X118872Y-106680
X121285Y-104775
X123952Y-106680
X132715Y-73025
X146520Y-94780
X154305Y-104140
X155575Y-95250
X180810Y-108100
T3
X143980Y-99210
X143980Y-114450
X146520Y-99210
X146520Y-114450
X147790Y-103020
X147790Y-105560
X147790Y-108100
X147790Y-110640
X149060Y-99210
X149060Y-114450
X151600Y-99210
X151600Y-114450
X154140Y-99210
X154140Y-114450
X156680Y-99210
X156680Y-114450
X159220Y-99210
X159220Y-114450
X161760Y-99210
X161760Y-114450
X164300Y-99210
X164300Y-114450
X166840Y-99210
X166840Y-114450
X169380Y-99210
X169380Y-114450
X171920Y-99210
X171920Y-114450
X174460Y-99210
X174460Y-114450
X177000Y-99210
X177000Y-114450
X179540Y-99210
X179540Y-114450
X182080Y-99210
X182080Y-114450
X184620Y-99210
X184620Y-114450
X187160Y-99210
X187160Y-114450
X189700Y-99210
X189700Y-114450
X192240Y-99210
X192240Y-114450
T4
X117350Y-63650
X119850Y-63650
X77724Y-94020
X77724Y-96520
X114810Y-94130
X117310Y-94130
X86360Y-94020
X86360Y-96520
X58928Y-56388
X58928Y-58928
X58928Y-61468
X58928Y-64008
X58928Y-66548
X58928Y-69088
X58928Y-71628
X58928Y-74168
X58928Y-78228
X58928Y-80768
X58928Y-83308
X58928Y-85848
X58928Y-88388
X58928Y-90928
X58928Y-93468
X58928Y-96008
X58928Y-98548
X58928Y-101088
X107188Y-56388
X107188Y-58928
X107188Y-61468
X107188Y-64008
X107188Y-66548
X107188Y-69088
X107188Y-74168
X107188Y-76708
X107188Y-79248
X107188Y-81788
X107188Y-84328
X107188Y-86868
X107188Y-89408
X107188Y-91948
X140170Y-139850
X143970Y-139850
T5
X143256Y-80264
X145796Y-80264
X148336Y-80264
X150876Y-80264
X153416Y-80264
X155956Y-80264
X158496Y-80264
X161036Y-80264
X163576Y-80264
X166116Y-80264
X168656Y-80264
X171196Y-80264
X173736Y-80264
X176276Y-80264
X178816Y-80264
X181356Y-80264
X183896Y-80264
X186436Y-80264
X188976Y-80264
X191516Y-80264
X175730Y-137310
X175730Y-139850
X178270Y-137310
X178270Y-139850
X180810Y-137310
X180810Y-139850
X206210Y-96670
X208750Y-96670
X211290Y-96670
X155740Y-59540
X155740Y-62080
X158280Y-59540
X158280Y-62080
X160820Y-59540
X160820Y-62080
X163360Y-59540
X163360Y-62080
X165900Y-59540
X165900Y-62080
X168440Y-59540
X168440Y-62080
X170980Y-59540
X170980Y-62080
X173520Y-59540
X173520Y-62080
X176060Y-59540
X176060Y-62080
X178600Y-59540
X178600Y-62080
X193510Y-137310
X193510Y-139850
X196050Y-137310
X196050Y-139850
X198590Y-137310
X198590Y-139850
X207772Y-80772
X207772Y-83312
X210312Y-80772
X210312Y-83312
X152870Y-137310
X152870Y-139850
X155410Y-137310
X155410Y-139850
X157950Y-137310
X157950Y-139850
X160490Y-137310
X160490Y-139850
X163030Y-137310
X163030Y-139850
X143256Y-67056
X145796Y-67056
X148336Y-67056
X150876Y-67056
X153416Y-67056
X155956Y-67056
X158496Y-67056
X161036Y-67056
X163576Y-67056
X166116Y-67056
X168656Y-67056
X171196Y-67056
X173736Y-67056
X176276Y-67056
X178816Y-67056
X181356Y-67056
X183896Y-67056
X186436Y-67056
X188976Y-67056
X191516Y-67056
X206210Y-90320
X208750Y-90320
X211290Y-90320
X155740Y-49380
X155740Y-51920
X158280Y-49380
X158280Y-51920
X160820Y-49380
X160820Y-51920
X163360Y-49380
X163360Y-51920
X165900Y-49380
X165900Y-51920
X168440Y-49380
X168440Y-51920
X170980Y-49380
X170980Y-51920
X173520Y-49380
X173520Y-51920
X176060Y-49380
X176060Y-51920
X178600Y-49380
X178600Y-51920
X155740Y-54460
X155740Y-57000
X158280Y-54460
X158280Y-57000
X160820Y-54460
X160820Y-57000
X163360Y-54460
X163360Y-57000
X165900Y-54460
X165900Y-57000
X168440Y-54460
X168440Y-57000
X170980Y-54460
X170980Y-57000
X173520Y-54460
X173520Y-57000
X176060Y-54460
X176060Y-57000
X178600Y-54460
X178600Y-57000
X143980Y-119530
X146520Y-119530
X149060Y-119530
X151600Y-119530
X154140Y-119530
X156680Y-119530
X159220Y-119530
X161760Y-119530
X164300Y-119530
X166840Y-119530
X169380Y-119530
X171920Y-119530
X174460Y-119530
X177000Y-119530
X179540Y-119530
X182080Y-119530
X184620Y-119530
X187160Y-119530
X189700Y-119530
X192240Y-119530
X143256Y-72136
X143256Y-74676
X145796Y-72136
X145796Y-74676
X148336Y-72136
X148336Y-74676
X150876Y-72136
X150876Y-74676
X153416Y-72136
X153416Y-74676
X155956Y-72136
X155956Y-74676
X158496Y-72136
X158496Y-74676
X161036Y-72136
X161036Y-74676
X163576Y-72136
X163576Y-74676
X166116Y-72136
X166116Y-74676
X168656Y-72136
X168656Y-74676
X171196Y-72136
X171196Y-74676
X173736Y-72136
X173736Y-74676
X176276Y-72136
X176276Y-74676
X178816Y-72136
X178816Y-74676
X181356Y-72136
X181356Y-74676
X183896Y-72136
X183896Y-74676
X186436Y-72136
X186436Y-74676
X188976Y-72136
X188976Y-74676
X191516Y-72136
X191516Y-74676
X143980Y-91590
X146520Y-91590
X149060Y-91590
X151600Y-91590
X154140Y-91590
X156680Y-91590
X159220Y-91590
X161760Y-91590
X164300Y-91590
X166840Y-91590
X169380Y-91590
X171920Y-91590
X174460Y-91590
X177000Y-91590
X179540Y-91590
X182080Y-91590
X184620Y-91590
X187160Y-91590
X189700Y-91590
X192240Y-91590
T6
X126200Y-94130
X130010Y-94130
X126200Y-141120
X130010Y-141120
X126200Y-99210
X130010Y-99210
X126200Y-87780
X130010Y-87780
T7
X69596Y-123952
X74676Y-123952
X102070Y-122070
X107150Y-122070
X81788Y-123952
X86868Y-123952
T8
X100800Y-136040
X108420Y-136040
X100800Y-128420
X108420Y-128420
T9
X212240Y-139450
X58600Y-50550
X212240Y-50550
X58600Y-139450
T10
X138386Y-50406
X138386Y-73406
X196386Y-50406
X196386Y-73406
T11
X58928Y-104648
X74168Y-53848
X102108Y-53848
X107188Y-105918
T0
M30
